<?xml version="1.0" encoding="UTF-8" standalone="no"?>
<svg
   xmlns:dc="http://purl.org/dc/elements/1.1/"
   xmlns:cc="http://creativecommons.org/ns#"
   xmlns:rdf="http://www.w3.org/1999/02/22-rdf-syntax-ns#"
   xmlns:svg="http://www.w3.org/2000/svg"
   xmlns="http://www.w3.org/2000/svg"
   xmlns:sodipodi="http://sodipodi.sourceforge.net/DTD/sodipodi-0.dtd"
   xmlns:inkscape="http://www.inkscape.org/namespaces/inkscape"
   version="1.1"
   id="svg1430"
   width="71.733437"
   height="66.193672"
   viewBox="0 0 71.733437 66.193672"
   sodipodi:docname="meteor.svg"
   inkscape:version="1.0.1 (3bc2e813f5, 2020-09-07)">
  <metadata
     id="metadata1436">
    <rdf:RDF>
      <cc:Work
         rdf:about="">
        <dc:format>image/svg+xml</dc:format>
        <dc:type
           rdf:resource="http://purl.org/dc/dcmitype/StillImage" />
        <dc:title></dc:title>
      </cc:Work>
    </rdf:RDF>
  </metadata>
  <defs
     id="defs1434" />
  <sodipodi:namedview
     pagecolor="#ffffff"
     bordercolor="#666666"
     borderopacity="1"
     objecttolerance="10"
     gridtolerance="10"
     guidetolerance="10"
     inkscape:pageopacity="0"
     inkscape:pageshadow="2"
     inkscape:window-width="1905"
     inkscape:window-height="1528"
     id="namedview1432"
     showgrid="false"
     inkscape:zoom="3.1545064"
     inkscape:cx="-60.616598"
     inkscape:cy="72.406987"
     inkscape:window-x="1913"
     inkscape:window-y="0"
     inkscape:window-maximized="0"
     inkscape:current-layer="layer1" />
  <g
     inkscape:groupmode="layer"
     id="layer1"
     inkscape:label="draw"
     style="display:inline"
     transform="translate(-116.09403,-35.628068)">
    <path
       style="fill:#f1fffa;fill-opacity:0.901961;stroke-width:0;paint-order:fill markers stroke"
       id="path2004"
       d="m 118.9243,86.624974 c 0.33013,-0.708704 0.77054,-1.348584 1.05933,-2.078141 0.27993,-0.487792 0.42157,-1.016603 0.49225,-1.575657 0.0539,-0.577968 0.0498,-1.159611 0.05,-1.739681 -0.002,-0.597561 -0.004,-1.195118 -0.004,-1.792679 -0.0361,-0.517412 -0.16747,-0.950075 -0.46013,-1.362692 -0.24611,-0.402406 -0.5578,-0.761215 -0.88312,-1.095081 -0.29266,-0.32788 -0.33611,-0.504971 -0.0131,-0.807353 0.13951,-0.239439 0.40719,-0.305328 0.59614,-0.482983 0.10067,-0.09465 0.18687,-0.205263 0.2864,-0.301214 -0.55047,0.359194 1.05375,-0.713194 0.49301,-0.380766 -1.80741,1.071499 -0.0822,0.04241 0.54159,-0.328924 -0.25775,0.162517 -0.51757,0.321473 -0.77326,0.487552 -0.0594,0.03858 0.12422,-0.06733 0.18419,-0.104918 0.38464,-0.241061 0.7674,-0.485403 1.14946,-0.730917 1.20322,-0.773186 -3.28189,2.016977 0.61748,-0.391006 -0.39508,0.306646 1.01729,-0.668219 0.55772,-0.398389 -1.81087,1.06322 -0.006,0.09186 0.54728,-0.389191 0.31629,-0.360572 0.62957,-0.720011 0.92261,-1.102136 0.38443,-0.41418 0.76192,-0.843512 1.09966,-1.301015 0.36664,-0.391195 0.66094,-0.837017 0.97477,-1.270851 0.33929,-0.314973 0.62787,-0.686413 0.8987,-1.065741 0.30213,-0.390819 0.62843,-0.770587 0.9865,-1.106816 -0.21266,-0.0076 0.7274,-0.586646 0.48418,-0.433027 -1.32959,0.839768 -0.79716,0.467742 -0.31749,0.356974 0.53842,-0.08884 1.08565,-0.08348 1.62917,-0.0854 0.49129,-0.002 0.99105,0.09522 1.46132,0.243369 0.42684,0.136308 0.83143,0.33294 1.23865,0.522588 0.45191,0.224136 0.87617,0.473634 1.36324,0.607043 0.45199,0.189495 0.91707,0.30743 1.39885,0.37101 0.53839,0.07216 1.08382,0.02057 1.62142,0.08841 0.49301,0.115425 0.99078,0.189735 1.49408,0.230181 0.55874,0.03562 1.11877,0.03604 1.67832,0.03771 0.54854,9.43e-4 1.09369,0.02875 1.63485,-0.07643 0.47399,-0.101005 0.95006,-0.228541 1.4267,-0.09755 0.45421,0.201788 0.64458,0.580983 0.86461,1.008218 0.19114,0.464715 0.46661,0.881789 0.67506,1.336376 0.16246,0.443672 0.34244,0.879757 0.53962,1.307701 0.27064,0.477652 0.44644,1.004043 0.66993,1.506156 0.22164,0.599704 0.45374,1.191897 0.77448,1.742041 0.22244,0.500275 0.63088,0.767284 1.07122,1.025871 0.39096,0.191113 0.78279,0.379027 1.16738,0.584167 0.31829,0.292313 0.74184,0.384993 1.07533,0.644858 0.29499,0.355478 0.35944,0.854125 0.31681,1.309185 -0.0428,0.489166 -0.20509,0.938857 -0.34143,1.403028 -0.22291,0.493611 -0.28791,1.03493 -0.5373,1.514343 -0.25818,0.471667 -0.36997,1.003405 -0.54568,1.510444 -0.18631,0.497241 -0.15883,1.038689 -0.26752,1.551298 -0.14022,0.505624 -0.19732,1.026964 -0.23143,1.550357 -0.0768,0.597451 -0.25308,1.168227 -0.39744,1.749062 -0.13953,0.591287 -0.17219,1.200152 -0.19219,1.806355 -0.10328,0.512556 -0.19734,1.023708 -0.24567,1.54557 -0.0168,0.512676 -0.0756,1.030991 -0.26312,1.508138 -0.24714,0.428953 -0.62376,0.760947 -1.02422,1.026951 -0.37178,0.251274 -0.59507,0.397566 0.4788,-0.282436 0.0861,-0.05451 -0.17418,0.105513 -0.26268,0.155577 -0.26733,0.151217 -0.5462,0.269331 -0.82454,0.395777 -0.51666,0.210963 -1.04795,0.381544 -1.57622,0.559056 -0.52634,0.147506 -1.04835,0.312054 -1.56578,0.491037 -0.50446,0.142959 -1.01026,0.284855 -1.49444,0.493692 -0.47099,0.230291 -0.92839,0.491742 -1.3861,0.749918 -0.86135,0.396624 -1.67489,0.89775 -2.46125,1.438939 -0.70145,0.417247 0.26955,-0.156737 0.45665,-0.302576 0.0751,-0.05856 -0.1731,0.07548 -0.26242,0.104806 -0.30933,0.101582 -0.62861,0.137874 -0.94901,0.175402 -0.61396,0.05538 -1.23079,0.05285 -1.84648,0.0525 -0.5737,-0.002 -1.14742,-0.0043 -1.72114,-0.0056 -0.56911,-10e-4 -1.13823,-0.0011 -1.70735,-0.0012 -0.56948,-3.4e-5 -1.13895,-2e-6 -1.70843,1.2e-5 -0.50884,0.03979 -0.97804,-0.02569 -1.44096,-0.245055 -0.34635,-0.235489 -0.68268,-0.49113 -1.05096,-0.687873 -0.40191,-0.288251 -0.81581,-0.56227 -1.21231,-0.859228 -0.39907,-0.255494 -0.79397,-0.511851 -1.17614,-0.794934 -0.36843,-0.301087 -0.70341,-0.62027 -0.9783,-1.018098 -0.24467,-0.439026 -0.63937,-0.732421 -0.94718,-1.111175 -0.30933,-0.368398 -0.58948,-0.755353 -0.84783,-1.165059 -0.30617,-0.474912 -0.56776,-0.981525 -0.81097,-1.494629 -0.20429,-0.497153 -0.42023,-0.988725 -0.65105,-1.472954 -0.1906,-0.454635 -0.23113,-0.950541 -0.36061,-1.425189 -0.12364,-0.493289 -0.15737,-0.997215 -0.28376,-1.489676 -0.11399,-0.418987 -0.15465,-0.852207 -0.18466,-1.28495 0,0 -1.00053,0.544802 -1.00053,0.544802 v 0 c 0.0324,0.439747 0.0768,0.879551 0.19322,1.305195 0.12501,0.492827 0.15467,0.999451 0.28456,1.491426 0.13043,0.481319 0.16984,0.986173 0.37077,1.444563 0.23153,0.483605 0.44822,0.974611 0.65372,1.470972 0.24553,0.517281 0.50752,1.029052 0.81494,1.508934 0.26049,0.413726 0.54366,0.804173 0.85422,1.177201 0.30303,0.380115 0.70189,0.664079 0.94477,1.102139 0.28038,0.410253 0.61908,0.742043 0.99601,1.053267 0.38411,0.279836 0.77125,0.547965 1.17713,0.792224 0.39791,0.304839 0.82242,0.572718 1.22073,0.877228 0.37413,0.186217 0.71093,0.447108 1.05271,0.690484 0.47351,0.231662 0.94328,0.336205 1.47121,0.285016 0.56947,-1.3e-5 1.13895,-4.2e-5 1.70842,-2e-5 0.56908,5.4e-5 1.13816,1.02e-4 1.70724,0.001 0.57385,0.0011 1.14769,0.0032 1.72155,0.0054 0.61835,9.41e-4 1.2376,0.0043 1.8547,-0.04353 1.02276,-0.10333 1.84907,-0.429159 2.70692,-1.10993 0.31249,-0.209289 1.24098,-0.788743 -0.25299,0.115955 -0.0789,0.04776 0.15923,-0.0932 0.24214,-0.132729 1.06634,-0.508429 -0.51401,0.288536 0.546,-0.251978 0.4535,-0.263007 0.91429,-0.514088 1.37814,-0.755278 0.4705,-0.238134 0.98748,-0.362339 1.48951,-0.505024 0.51711,-0.177411 1.03542,-0.353052 1.56318,-0.491375 0.53342,-0.168143 1.05981,-0.360502 1.586,-0.550323 0.88094,-0.40886 1.74924,-0.840899 2.54096,-1.43262 0.39768,-0.29031 0.77974,-0.632367 0.99817,-1.095428 0.16384,-0.495259 0.23384,-1.011956 0.24883,-1.535128 0.0532,-0.523019 0.16091,-1.033553 0.24137,-1.551888 0.022,-0.598844 0.0586,-1.200025 0.20284,-1.782651 0.14943,-0.585383 0.32019,-1.165048 0.38936,-1.769416 0.0377,-0.519537 0.10542,-1.034069 0.23875,-1.537309 0.0896,-0.51218 0.088,-1.044231 0.27483,-1.535514 0.17375,-0.503637 0.2863,-1.031842 0.55099,-1.49624 0.22901,-0.491496 0.31403,-1.034478 0.53032,-1.533349 0.14368,-0.46879 0.28872,-0.932889 0.32975,-1.427733 0.0229,-0.498568 -0.0499,-1.021803 -0.37023,-1.411573 -0.33337,-0.279621 -0.76492,-0.359135 -1.08724,-0.663541 -0.38479,-0.202813 -0.77157,-0.399145 -1.16564,-0.580579 -0.42938,-0.241928 -0.82764,-0.487915 -1.04341,-0.971884 -0.3209,-0.54498 -0.54498,-1.135956 -0.76803,-1.73012 -0.222,-0.503559 -0.39857,-1.030268 -0.66766,-1.509616 -0.19738,-0.427756 -0.37624,-0.864181 -0.54053,-1.307053 -0.21046,-0.455649 -0.48526,-0.874949 -0.67703,-1.341482 -0.23416,-0.453496 -0.44382,-0.852027 -0.91189,-1.086492 -0.48442,-0.171417 -0.96927,-0.06051 -1.45919,0.05085 -0.53732,0.119655 -1.07492,0.105982 -1.62301,0.09644 -0.55776,-10e-4 -1.11592,-7.15e-4 -1.67308,-0.03152 -0.50163,-0.03561 -0.99971,-0.09912 -1.48916,-0.224065 -0.53588,-0.08982 -1.08355,-0.02206 -1.62304,-0.0904 -0.47925,-0.05534 -0.94554,-0.157148 -1.39054,-0.359021 -0.48726,-0.11952 -0.90573,-0.36065 -1.35127,-0.589363 -0.40749,-0.198043 -0.81789,-0.390059 -1.24538,-0.534233 -0.4705,-0.16866 -0.98848,-0.258323 -1.4837,-0.272146 -0.54714,4.78e-4 -1.09675,-0.0054 -1.64066,0.06598 -0.80836,0.148483 -1.55524,0.611074 -2.11107,1.239731 -0.34767,0.352643 -0.68478,0.72165 -0.9789,1.124713 -0.28142,0.373117 -0.57441,0.734343 -0.89814,1.068184 -0.3015,0.442016 -0.62696,0.859437 -0.97256,1.265413 -0.34798,0.451132 -0.72504,0.877775 -1.10325,1.301105 -0.293,0.375922 -0.60238,0.737903 -0.93239,1.078539 -0.0609,0.04884 -0.2514,0.182453 -0.18279,0.146524 0.26996,-0.14137 1.04689,-0.629584 0.78958,-0.464294 -0.57451,0.369053 -1.16628,0.688902 -1.71581,1.093877 0.25524,-0.15052 1.01826,-0.606982 0.76571,-0.45156 -0.39133,0.240826 -0.79061,0.467237 -1.18209,0.707801 -0.82759,0.508565 1.1768,-0.650496 0.40165,-0.195456 -0.38732,0.227369 -0.7773,0.449703 -1.16595,0.674554 -0.43941,0.277277 -0.24024,0.149167 0.61352,-0.355478 -0.57425,0.362391 -1.14205,0.634105 -1.63909,1.089855 -0.28378,0.283276 -0.61905,0.487109 -0.88142,0.792188 -0.26518,0.35086 -0.20767,0.653363 0.0967,0.96868 0.3216,0.329185 0.62999,0.682541 0.87202,1.080527 0.27882,0.390936 0.40082,0.80153 0.42855,1.294586 9e-4,0.597474 0.004,1.194945 0.004,1.792418 -9e-4,0.575405 0.003,1.152769 -0.0579,1.725459 -0.0784,0.549272 -0.24013,1.060737 -0.50221,1.546305 -0.30095,0.723124 -0.73929,1.366716 -1.06218,2.079216 0,0 1.02452,-0.49395 1.02452,-0.49395 z" />
    <path
       style="fill:#f1fffa;fill-opacity:0.901961;stroke-width:0;paint-order:fill markers stroke"
       id="path2006"
       d="m 129.10134,94.044131 c 0.13678,-0.775861 0.3375,-1.533398 0.74788,-2.199448 0.22812,-0.486791 2.09308,-1.607942 0.37141,-0.521918 0.47915,-0.289904 1.00396,-0.429073 1.54647,-0.508075 0.50416,-0.09273 0.98463,-0.276514 1.47305,-0.430093 0.98576,-0.183637 1.73877,-0.713618 2.59373,-1.254859 0.42143,-0.309155 0.76879,-0.708895 1.15407,-1.063874 -0.26047,0.0053 0.83529,-0.685023 0.53553,-0.507574 -1.42626,0.844287 -0.69318,0.420094 -0.25447,0.310374 0.56891,-0.06994 1.17239,-0.193018 1.72878,-0.0035 0.36687,0.213424 0.0945,0.622214 -0.0455,0.910261 -0.21291,0.437944 -0.43704,0.868282 -0.62449,1.321386 -0.2679,0.423363 -0.41956,0.904805 -0.61043,1.367681 -0.13411,0.465223 -0.26229,0.927283 -0.5483,1.31707 -0.31713,0.509118 -0.71807,0.936517 -1.15548,1.330304 -0.69181,0.50651 0.15195,-0.120225 -0.49433,0.387346 -0.0747,0.05864 -0.31189,0.214005 -0.22981,0.167519 1.49156,-0.844742 0.61829,-0.402309 0.27662,-0.231569 -0.44931,0.221962 -0.93253,0.365962 -1.41069,0.504101 -0.54491,0.145252 -1.10755,0.174828 -1.66681,0.194691 -0.55265,0.02883 -1.0976,-0.09 -1.61761,-0.276357 -0.42467,-0.21609 -0.81269,-0.497585 -1.2015,-0.77542 -0.0694,-0.05106 -0.13869,-0.102115 -0.20803,-0.153172 0,0 -0.95137,0.635302 -0.95137,0.635302 v 0 c 0.0695,0.05188 0.1391,0.10376 0.20864,0.155641 0.39822,0.280411 0.79026,0.570011 1.21823,0.80091 0.52719,0.193887 1.07941,0.333364 1.6424,0.31066 0.56342,-0.01629 1.13027,-0.03959 1.68182,-0.172652 0.4824,-0.129734 0.96554,-0.280801 1.4235,-0.484582 0.82247,-0.44359 1.66197,-0.869212 2.37092,-1.506354 0.4357,-0.402882 0.82728,-0.847494 1.14886,-1.357366 0.26099,-0.411171 0.39359,-0.87419 0.53904,-1.340048 0.19265,-0.461581 0.35076,-0.938014 0.60947,-1.366299 0.19383,-0.448461 0.41894,-0.877704 0.62839,-1.317248 0.17075,-0.365626 0.36421,-0.817806 -0.0481,-1.084322 -0.56292,-0.231236 -1.17942,-0.105854 -1.76683,-0.04828 -0.86004,0.165628 -1.63691,0.684957 -2.22333,1.357787 -0.38063,0.355816 -0.72986,0.75232 -1.15639,1.050241 1.70054,-0.958427 -0.17881,0.112258 -0.65375,0.100349 -0.4892,0.144847 -0.9638,0.33555 -1.46283,0.445001 -0.54704,0.068 -1.08483,0.18417 -1.5684,0.476252 -0.82407,0.484981 -1.72721,0.899572 -2.28138,1.737112 -0.39298,0.688737 -0.5914,1.460593 -0.72922,2.246622 0,0 1.01031,-0.52359 1.01031,-0.52359 z" />
    <path
       style="fill:#f1fffa;fill-opacity:0.901961;stroke-width:0;paint-order:fill markers stroke"
       id="path2008"
       d="m 140.32178,80.694691 c 0.34329,-0.690708 0.72488,-1.354197 1.12565,-2.009086 0.32102,-0.398878 0.53324,-0.859305 0.91492,-1.201849 0.18476,-0.274128 0.50029,-0.371696 0.73176,-0.583606 0.10722,-0.09816 0.19938,-0.21331 0.30454,-0.313891 0.30589,-0.367791 1.85961,-1.429081 0.18596,-0.353681 0.48827,-0.162719 0.61242,0.295519 0.62202,0.712806 -0.11731,0.660639 -0.33441,1.31052 -0.60651,1.918502 -0.22261,0.500708 -0.46155,1.001091 -0.79838,1.428627 -0.23435,0.47321 -0.58654,0.852718 -0.89842,1.266032 0.28538,-0.03391 -1.01583,0.789109 -0.7074,0.588568 1.253,-0.814693 0.63754,-0.380588 0.17114,-0.297088 -0.55582,0.04038 -1.04011,-0.240424 -1.48631,-0.554519 -0.25733,-0.186764 -0.53216,-0.341041 -0.79523,-0.518356 0,0 -0.94747,0.638401 -0.94747,0.638401 v 0 c 0.26185,0.179052 0.53707,0.329503 0.79493,0.515175 0.45775,0.332728 0.95621,0.633325 1.53053,0.627378 0.95399,-0.09757 1.82067,-0.759804 2.47706,-1.463721 0.32136,-0.40679 0.64227,-0.81024 0.89862,-1.268097 0.31847,-0.448071 0.56801,-0.943652 0.78472,-1.453474 0.26051,-0.629197 0.50065,-1.285724 0.58451,-1.969066 -0.0297,-0.474457 -0.1895,-1.000472 -0.74194,-0.909489 -0.39427,0.233884 -0.79544,0.455423 -1.18283,0.701652 -0.34377,0.218509 -0.59476,0.606285 -0.93043,0.83965 -0.3298,0.324489 -0.71532,0.560515 -1.03532,0.89621 -0.35804,0.364721 -0.58953,0.822309 -0.9006,1.228835 -0.40205,0.654567 -0.76156,1.332566 -1.12906,2.008532 0,0 1.03354,-0.474445 1.03354,-0.474445 z" />
    <path
       style="fill:#f1fffa;fill-opacity:0.901961;stroke-width:0;paint-order:fill markers stroke"
       id="path2010"
       d="m 123.2935,78.222646 c -0.19944,-0.754041 -0.39221,-1.526274 -0.26416,-2.309429 0.0771,-0.224018 0.23745,-0.386923 0.41177,-0.533076 0.055,-0.04608 0.23642,-0.159992 0.17561,-0.122876 -0.9091,0.554812 -1.03701,0.577409 -0.52448,0.401591 0.51217,-0.196081 1.04587,-0.310183 1.56975,-0.464243 0.8035,-0.290856 1.50947,-0.799688 2.17735,-1.335549 0.43101,-0.364926 0.84237,-0.753293 1.2797,-1.109567 0.28297,-0.313362 1.1227,-0.898082 -0.42034,0.14576 -0.0345,0.02336 0.0775,-0.03148 0.11838,-0.03592 0.11919,-0.01295 0.13356,0.01383 0.23367,0.06822 0.27063,0.344051 0.26171,0.840502 0.28483,1.265131 -9e-4,0.578585 0.0623,1.166273 -0.0242,1.739775 -0.0802,0.517598 -0.38389,0.95645 -0.72999,1.321208 0.69868,-0.378199 -1.31849,0.888066 -0.60065,0.455083 1.52447,-0.919524 0.64381,-0.404727 0.28801,-0.232628 -0.4832,0.161911 -0.95776,0.358001 -1.44978,0.4905 -0.49515,0.07489 -0.98338,0.14914 -1.47133,0.267485 -0.24414,0.0601 -0.4931,0.08967 -0.7418,0.118883 0,0 -0.90527,0.705242 -0.90527,0.705242 v 0 c 0.25096,-0.02541 0.5023,-0.0506 0.74919,-0.106918 0.48957,-0.115299 0.97137,-0.22108 1.47259,-0.266465 0.49981,-0.119538 0.96963,-0.331335 1.46297,-0.474004 0.79991,-0.361927 1.57491,-0.814597 2.2365,-1.413024 0.33991,-0.398104 0.63537,-0.845063 0.70129,-1.387982 0.0662,-0.583183 0.0212,-1.174345 0.0138,-1.760312 -0.0278,-0.469158 -0.036,-0.986862 -0.33422,-1.366374 -0.68125,-0.498747 -1.39935,0.449644 -1.92945,0.906088 -0.43116,0.36556 -0.8497,0.746578 -1.28274,1.10967 -0.0379,0.03141 -0.29816,0.248151 -0.33742,0.276729 -0.0625,0.0455 -0.26064,0.164499 -0.19363,0.126733 1.56074,-0.879518 0.65502,-0.380726 0.29547,-0.228246 -0.52393,0.153855 -1.05786,0.265059 -1.56925,0.463177 -0.75684,0.194177 -1.66858,0.687369 -1.96703,1.496702 -0.0968,0.8016 0.0874,1.583041 0.2845,2.355066 0,0 0.99045,-0.566434 0.99045,-0.566434 z" />
    <path
       style="fill:#f1fffa;fill-opacity:0.901961;stroke-width:0;paint-order:fill markers stroke"
       id="path2014"
       d="m 117.67275,85.671454 c -0.008,-0.991916 -0.004,-1.983892 -0.003,-2.975831 0.002,-0.689389 0.002,-1.378779 0.003,-2.068169 -0.0799,-0.518376 -0.18422,-1.029589 -0.23515,-1.552771 -0.0456,-0.574512 -0.0477,-1.151467 -0.0508,-1.727559 -0.0838,-0.517949 -0.18488,-1.029973 -0.23489,-1.553458 -0.0824,-0.560742 8.8e-4,-1.060171 0.29901,-1.532803 0.23085,-0.484363 0.5345,-0.900216 0.85891,-1.317106 0.36053,-0.322295 0.57908,-0.768784 0.89023,-1.135822 0.35186,-0.238219 0.61473,-0.553253 0.8901,-0.87469 0.24883,-0.401649 0.63671,-0.664029 0.96209,-0.991068 0.41619,-0.460258 0.79916,-0.948322 1.23368,-1.391585 0.45969,-0.349977 0.8498,-0.783693 1.28305,-1.164867 0.43955,-0.388921 0.89787,-0.750992 1.35803,-1.112507 0.43057,-0.275006 0.81791,-0.612932 1.21603,-0.935894 0.34731,-0.352463 0.67261,-0.725907 1.07166,-1.015832 0.52387,-0.438774 1.09873,-0.788618 1.66291,-1.165256 -0.21305,0.143539 0.85819,-0.528128 0.64335,-0.396618 -0.21734,0.133041 -0.86616,0.537895 -0.6494,0.403809 0.58059,-0.359149 1.16778,-0.706442 1.73184,-1.093422 0.56781,-0.317321 1.09345,-0.703334 1.61711,-1.093277 0.4608,-0.380634 0.89763,-0.805357 1.28691,-1.266516 0.32389,-0.324441 0.64066,-0.655887 0.88879,-1.049376 0.24932,-0.307039 0.43841,-0.661585 0.6307,-1.009537 0,0 -1.0321,0.480697 -1.0321,0.480697 v 0 c -0.19773,0.34312 -0.38653,0.693413 -0.63319,1.001506 -0.26167,0.3789 -0.57996,0.704407 -0.89451,1.034709 -0.39967,0.446354 -0.82085,0.879078 -1.29255,1.241203 -0.5262,0.386697 -1.05721,0.763437 -1.62031,1.089498 -0.16522,0.110825 -0.6724,0.422946 -0.49856,0.32772 0.23344,-0.12787 0.91797,-0.541907 0.69061,-0.402508 -0.63601,0.389946 -1.285,0.75645 -1.91444,1.158284 -0.56828,0.373715 -1.1362,0.741105 -1.66587,1.174628 -0.38569,0.307224 -0.7102,0.681263 -1.07074,1.019125 -0.39837,0.320918 -0.78947,0.652255 -1.21509,0.933704 -0.46084,0.361553 -0.91733,0.72944 -1.35585,1.120443 -0.42306,0.393876 -0.83545,0.799221 -1.27755,1.170721 -0.43015,0.447461 -0.80947,0.942019 -1.23766,1.390659 -0.33193,0.322634 -0.70592,0.601612 -0.9602,1.00242 -0.26823,0.328303 -0.57464,0.59706 -0.88888,0.876372 -0.29359,0.381086 -0.54234,0.800722 -0.88713,1.136446 -0.32847,0.417346 -0.60851,0.85635 -0.85411,1.332876 -0.2719,0.505907 -0.35295,1.024909 -0.26622,1.601655 0.0518,0.51941 0.15499,1.02752 0.23085,1.542852 0.004,0.579752 0.006,1.160438 0.0548,1.738406 0.0528,0.518734 0.15884,1.025774 0.23119,1.541071 3.5e-4,0.688514 9e-4,1.377027 0.003,2.065541 0.002,0.992962 0.005,1.985962 -0.003,2.978902 0,0 1.0041,-0.536775 1.0041,-0.536775 z" />
    <path
       style="fill:#f1fffa;fill-opacity:0.901961;stroke-width:0;paint-order:fill markers stroke"
       id="path2016"
       d="m 135.19648,63.634676 c 1.16818,-0.09538 2.22475,-0.623995 3.25601,-1.151611 1.01767,-0.551592 2.01403,-1.145963 2.96221,-1.814968 0.40742,-0.255636 0.0594,-0.02758 0.42077,-0.28973 0.0588,-0.04259 0.2422,-0.158818 0.1793,-0.123059 -1.22051,0.693848 -0.48955,0.294466 -0.21947,0.157941 0.37405,-0.167919 0.73533,-0.339939 1.13749,-0.42257 0.77825,-0.09115 1.56426,-0.08172 2.3465,-0.08567 0.30855,0.03785 1.32434,-0.167198 1.42644,0.268379 -0.17674,0.364363 -0.44745,0.669392 -0.73378,0.947355 -0.38939,0.370427 -0.80558,0.708496 -1.21677,1.052735 -0.31817,0.297929 -0.637,0.588406 -0.99283,0.839544 -0.32526,0.265846 -0.65927,0.53197 -0.94291,0.84605 -0.2414,0.380297 -0.59197,0.666136 -0.853,1.027536 -0.17124,0.311268 -0.50139,0.603204 -0.49107,0.980272 0.1883,0.353459 0.66848,0.309199 1.00924,0.32594 0.49135,0.01479 0.98301,0.0095 1.4745,0.0072 0.6259,-0.033 0.95708,-0.346863 1.54367,-0.673891 0.19692,-0.109791 -0.77094,0.469289 -0.58035,0.348323 0.31285,-0.198561 0.63145,-0.387431 0.94716,-0.581145 0.38405,-0.230442 0.70399,-0.554542 1.00985,-0.882026 0.30765,-0.269027 0.55242,-0.604801 0.78509,-0.941184 0.24714,-0.253839 0.4379,-0.548129 0.64889,-0.83034 -0.12825,-0.05006 0.44438,-0.430433 0.29445,-0.338604 -1.19651,0.732828 -0.77988,0.189422 -0.61707,0.528024 0.0877,0.376071 0.0782,0.76882 0.082,1.153273 0.0246,0.507564 -0.0286,1.001412 -0.23858,1.46393 -0.0325,0.19067 -0.21541,0.318072 -0.25101,0.506141 -0.004,0.02757 0.0273,0.164685 0.0928,0.131591 0.30365,-0.15345 0.57926,-0.359276 0.8689,-0.538914 0.36787,-0.353843 0.79191,-0.634902 1.15615,-0.992524 0.35805,-0.304151 0.64478,-0.68418 0.913,-1.07034 0.29858,-0.317658 0.47086,-0.73099 0.65399,-1.124414 0.27329,-0.438293 0.50344,-0.898212 0.70744,-1.373979 0.21274,-0.392655 0.39176,-0.799591 0.61832,-1.184514 0.20005,-0.378022 0.38443,-0.767688 0.64722,-1.104987 -0.008,-0.09682 0.38389,-0.384001 0.34094,-0.357133 -1.13608,0.710888 -0.84637,0.300042 -0.51993,0.482781 0.21011,0.272998 0.20575,0.65692 0.22509,0.989086 0.0179,0.462724 0.014,0.925968 0.0128,1.388949 -0.002,0.467396 -0.003,0.934794 -0.004,1.402193 -3.7e-4,0.465709 -3.7e-4,0.931418 -3.8e-4,1.397128 0,0.465534 2e-5,0.931068 2e-5,1.396603 0.0472,0.596973 -0.0616,1.170797 -0.16773,1.754041 -0.16825,0.7139 -0.34115,1.435034 -0.6216,2.112915 -0.15213,0.415445 -0.32971,0.814134 -0.53432,1.204256 -0.18984,0.351027 -0.50778,0.596243 -0.7198,0.929875 -0.21512,0.303894 -0.4282,0.60444 -0.69462,0.864442 -0.26766,0.226808 -0.42337,0.554384 -0.68562,0.782177 -0.28608,0.268635 -0.24212,0.43919 0.12083,0.547851 0.39911,0.07141 0.80485,-0.03315 1.18252,-0.162383 0.78903,-0.299316 1.4506,-0.827378 2.08862,-1.371452 0.46825,-0.485224 0.97174,-0.93122 1.42108,-1.435132 -0.24087,0.01678 0.72446,-0.612938 0.50062,-0.46331 -0.89472,0.598094 -0.67827,0.168623 -0.6569,0.633423 0.0245,0.420538 -0.13093,0.791858 -0.28335,1.170797 -0.10098,0.38997 -0.35603,0.700054 -0.52816,1.054185 -0.22013,0.312624 -0.34818,0.678501 -0.51482,1.021517 -0.25573,0.357174 -0.47126,0.743763 -0.62876,1.156186 -0.0981,0.429348 -0.31934,0.802344 -0.52676,1.18188 -0.19107,0.305042 -0.4164,0.597378 -0.65404,0.867398 -0.26493,0.301029 -0.4721,0.361408 0.46584,-0.225717 -0.0136,0.0063 -0.0391,0.0035 -0.0409,0.01877 -0.008,0.05882 0.0932,-0.07392 0.12542,-0.123229 0.13423,-0.205448 0.26077,-0.409375 0.40564,-0.608097 0.27394,-0.536345 0.71172,-0.917484 1.10918,-1.346378 0.39512,-0.443408 0.87637,-0.787954 1.30145,-1.196275 0.47983,-0.483345 0.92184,-1.004077 1.41858,-1.469438 0.40713,-0.422145 0.83143,-0.826319 1.26388,-1.220693 0.37059,-0.333833 0.73756,-0.671573 1.12681,-0.982221 -0.20452,0.12393 -0.41501,0.238066 -0.61356,0.371789 -0.0537,0.0361 0.13862,-0.05335 0.19182,-0.0166 0.11972,0.08269 0.11122,0.37694 0.1231,0.48389 0.0798,0.568838 -0.0267,1.126196 -0.10711,1.68656 -0.0932,0.360289 -0.25398,0.704875 -0.45253,1.016796 -0.20794,0.36924 -0.41834,0.73349 -0.66844,1.074979 -0.32559,0.309561 -0.55326,0.703633 -0.85043,1.037808 -0.2289,0.25854 -0.43023,0.533374 -0.61159,0.829393 -0.25085,0.323502 -0.60944,0.520702 -0.8991,0.803421 -0.33289,0.292585 -0.67702,0.585457 -0.92065,0.962488 -0.21294,0.26546 -0.44082,0.574065 -0.216,0.894911 0.31444,0.231596 0.72752,0.218101 1.09916,0.231244 0.51928,0.0045 0.94927,-0.225215 1.38554,-0.482684 0.5659,-0.301529 0.12452,-0.06171 1.19793,-0.699185 0.0635,-0.03773 0.25267,-0.15323 0.19128,-0.111954 -0.18277,0.122873 -0.37829,0.225952 -0.55562,0.356908 -0.12046,0.08896 0.26949,-0.127928 0.4048,-0.19062 0.19432,-0.08654 0.37569,-0.215888 0.58602,-0.262055 0.0596,-0.0131 0.19124,-0.0427 0.18208,0.01908 -0.008,0.05242 -0.0444,0.09579 -0.0666,0.143686 -0.25195,0.63296 -0.56281,1.235386 -0.88971,1.829824 -0.2683,0.441355 -0.66411,0.764374 -1.03162,1.111372 -0.34411,0.194423 -0.59907,0.506118 -0.92078,0.728242 -0.25056,0.233872 -0.52162,0.423537 -0.81352,0.597827 -0.24901,0.126676 -0.90063,0.666599 0.10708,-0.05718 0.081,-0.05818 -0.17376,0.09697 -0.26117,0.144385 -0.76902,0.417059 0.33465,-0.189658 -0.55314,0.30002 -0.65285,0.382074 -1.34156,0.689905 -2.0081,1.044652 -0.55949,0.26503 -1.08039,0.600496 -1.61503,0.913646 -0.17081,0.100049 0.67987,-0.406237 0.50955,-0.305283 -1.07281,0.635929 -0.70793,0.363215 -1.22537,0.770882 -0.38789,0.300007 -0.78183,0.592326 -1.13707,0.93264 -0.27598,0.335126 -0.55744,0.663511 -0.83453,0.997238 -0.20094,0.314726 -0.4331,0.604596 -0.65553,0.903536 -0.21475,0.314062 -0.41437,0.635324 -0.602,0.967563 -0.13242,0.346361 -0.28674,0.682159 -0.37461,1.044715 -0.17017,0.426736 -0.34965,0.84041 -0.45077,1.292193 -0.11631,0.376448 -0.24031,0.742354 -0.42751,1.088379 -0.23943,0.294893 -0.43749,0.619972 -0.65134,0.934545 -0.18792,0.326504 -0.45183,0.601966 -0.69882,0.883795 -0.35833,0.325658 -0.70681,0.675263 -1.10373,0.952872 -1.05837,0.739905 2.54626,-1.62998 -0.59948,0.387759 -0.12723,0.0816 -0.49472,0.346518 -0.36252,0.273669 0.19686,-0.108491 0.38567,-0.231672 0.5785,-0.347506 -0.28113,0.365572 -0.75289,0.425711 -1.10661,0.674901 -0.0992,0.06991 -0.39497,0.281097 -0.28976,0.221062 0.84337,-0.481238 0.78977,-0.449241 0.4515,-0.298035 -0.48817,0.158308 -1.01079,0.147662 -1.51768,0.156721 -0.63648,0.04998 -1.26904,0.137972 -1.90558,0.188214 -0.57882,0.05492 -1.12894,0.250019 -1.69603,0.367673 -0.57665,0.120538 -1.16681,0.106031 -1.74973,0.163604 -0.5567,0.0842 -1.11446,0.150906 -1.6763,0.183635 -0.66066,0.02859 -1.32212,0.02781 -1.98326,0.02844 -0.59442,5.45e-4 -1.18883,-7.4e-4 -1.78326,-0.0024 -0.46558,0.0201 -0.91791,0.0024 -1.36829,-0.123536 -0.43979,-0.178531 -0.86987,-0.375597 -1.28218,-0.613376 -0.36549,-0.164137 -0.69658,-0.349392 -0.97853,-0.641638 -0.34846,-0.333219 -0.67887,-0.683593 -1.02781,-1.016695 -0.3583,-0.373146 -0.6481,-0.804357 -0.98805,-1.193419 -0.25867,-0.333011 -0.54715,-0.638901 -0.81433,-0.964579 -0.37874,-0.4286 -0.53663,-1.007114 -0.67819,-1.554613 -0.13432,-0.6153 -0.1678,-1.24589 -0.18494,-1.874068 -0.01,-0.544011 -0.005,-1.088144 -0.004,-1.632203 0.003,-0.485806 0.004,-0.971615 0.004,-1.457423 0.0229,-0.386035 0.17555,-0.728982 0.29703,-1.08716 0.17759,-0.306583 0.27678,-0.646852 0.41093,-0.973662 0.0631,-0.237552 0.14569,-0.463845 0.23299,-0.692988 0,0 -0.81766,0.388219 -0.81766,0.388219 v 0 c -0.0866,0.228018 -0.15854,0.458939 -0.23414,0.690685 -0.13547,0.32721 -0.24039,0.665907 -0.40859,0.97839 -0.12944,0.363323 -0.26608,0.72145 -0.28148,1.114391 -3e-4,0.485556 -7.1e-4,0.971113 -0.003,1.456667 -0.002,0.544896 -0.004,1.089908 0.005,1.634724 0.0204,0.634312 0.0594,1.27061 0.19698,1.891452 0.14685,0.55949 0.30844,1.151445 0.69249,1.592412 0.2669,0.327672 0.55849,0.631977 0.81785,0.966113 0.34284,0.39016 0.63451,0.823028 0.99256,1.200106 0.34726,0.332567 0.67777,0.680149 1.02244,1.015024 0.28451,0.302367 0.61644,0.501746 0.99378,0.662288 0.41584,0.245664 0.85335,0.438764 1.2946,0.631177 0.45421,0.141137 0.91011,0.169144 1.38363,0.143941 0.59525,5.5e-5 1.1905,1.71e-4 1.78574,4.13e-4 0.6615,-0.0015 1.32322,-3.1e-5 1.9844,-0.02337 0.56329,-0.02937 1.12308,-0.08902 1.68019,-0.180698 0.58308,-0.06863 1.17507,-0.03965 1.75383,-0.156553 0.56745,-0.111033 1.11364,-0.306992 1.68898,-0.375908 0.63649,-0.04815 1.26886,-0.133564 1.90421,-0.194035 0.51116,-0.0063 1.03377,0.0055 1.53236,-0.125904 0.4914,-0.184305 0.19894,-0.06318 1.09511,-0.610998 0.004,-0.0032 0.2883,-0.212743 0.29129,-0.214784 0.0542,-0.03704 0.22378,-0.136859 0.16629,-0.10538 -0.20153,0.110365 -0.39913,0.228115 -0.59871,0.342171 0.31905,-0.189844 0.64106,-0.374556 0.95714,-0.569532 0.12842,-0.07921 0.49908,-0.336558 0.36345,-0.271223 -1.47798,0.711913 0.15034,0.04803 0.59761,-0.390206 0.3895,-0.292863 0.75168,-0.631519 1.09853,-0.974452 0.23992,-0.291448 0.51269,-0.556572 0.69405,-0.892733 0.21328,-0.316759 0.42342,-0.635253 0.64732,-0.94416 0.17978,-0.354078 0.30679,-0.726506 0.41613,-1.109272 0.10827,-0.448859 0.30021,-0.858681 0.45337,-1.291181 0.0949,-0.352412 0.24187,-0.688162 0.38544,-1.021702 0.19181,-0.32666 0.38538,-0.64993 0.60587,-0.957394 0.22139,-0.297698 0.44776,-0.59102 0.657,-0.898001 0.28104,-0.327671 0.54643,-0.66785 0.83717,-0.986897 0.35973,-0.33258 0.75273,-0.624587 1.13933,-0.923302 0.0713,-0.05253 0.29375,-0.195442 0.21403,-0.157598 -0.18072,0.08579 -0.69193,0.40468 -0.51946,0.302589 0.34026,-0.201416 0.68262,-0.399091 1.02284,-0.600565 0.16529,-0.09787 -0.33589,0.186455 -0.49799,0.289756 -0.0903,0.05754 0.18739,-0.103066 0.28225,-0.152266 0.0988,-0.05124 0.19911,-0.09934 0.29866,-0.149018 0.66477,-0.358857 1.35512,-0.662325 2.00857,-1.043389 0.75369,-0.419831 1.52648,-0.808806 2.24424,-1.292459 0.29121,-0.17465 0.54979,-0.387849 0.81097,-0.606238 0.30791,-0.241894 0.58941,-0.51636 0.91404,-0.736893 0.37438,-0.345266 0.75865,-0.687304 1.01826,-1.137487 0.32858,-0.600405 0.63752,-1.212814 0.88363,-1.854368 0.008,-0.07783 0.0377,-0.156505 0.0241,-0.233508 -0.053,-0.298569 -0.7373,0.100326 -0.83296,0.159437 -0.48191,0.217142 -0.92502,0.475072 -1.39343,0.735932 -0.0644,0.03587 -0.25407,0.149929 -0.18996,0.113511 0.19014,-0.108011 0.38241,-0.212426 0.56808,-0.328306 0.0733,-0.04574 -0.15364,0.07839 -0.23045,0.117585 -0.43018,0.254183 -0.8391,0.510705 -1.35374,0.521869 -0.35044,-0.0094 -0.73298,0.0059 -1.05108,-0.164576 -0.20488,-0.262218 0.12029,-0.576796 0.26431,-0.790258 0.25963,-0.360849 0.59815,-0.65043 0.92677,-0.943398 0.30032,-0.273267 0.6612,-0.481538 0.89309,-0.826078 0.18768,-0.287784 0.3874,-0.561308 0.61585,-0.8167 0.28443,-0.345558 0.53452,-0.720078 0.84466,-1.043578 0.24659,-0.346454 0.45621,-0.715041 0.66898,-1.083836 0.18675,-0.330088 0.36228,-0.671299 0.43417,-1.049244 0.0812,-0.567163 0.17352,-1.132593 0.0956,-1.707573 -0.12199,-1.046472 -0.49278,-0.585171 -1.33054,-0.06969 -0.38352,0.318631 -0.75658,0.649479 -1.12407,0.987397 -0.42536,0.40042 -0.85391,0.796803 -1.25852,1.219653 -0.49109,0.472465 -0.93652,0.990721 -1.42121,1.470032 -0.43426,0.399037 -0.9026,0.759159 -1.29918,1.201119 -0.40887,0.422769 -0.81663,0.832784 -1.10596,1.358318 -0.0599,0.08401 -0.71351,0.90591 -0.37105,0.926014 0.30071,-0.178519 0.61113,-0.340876 0.90212,-0.535558 0.26894,-0.179919 0.61146,-0.784928 0.8113,-1.05902 0.21166,-0.380932 0.4125,-0.765334 0.52224,-1.19281 0.16709,-0.407623 0.39148,-0.783618 0.63152,-1.15028 0.16301,-0.345117 0.30594,-0.701867 0.5173,-1.020371 0.18435,-0.348805 0.41583,-0.673319 0.52335,-1.06088 0.15693,-0.390805 0.29565,-0.781124 0.26696,-1.21242 -0.12244,-0.94231 -1.18059,0.311605 -1.47068,0.612129 -0.45109,0.497674 -0.94932,0.946992 -1.42245,1.422224 -0.28155,0.236417 -0.2564,0.218456 -0.52558,0.43342 -0.0698,0.05568 -0.29182,0.200497 -0.21014,0.165796 1.21485,-0.516179 0.43073,-0.309768 0.18543,-0.135851 -0.36657,0.132071 -0.75753,0.251714 -1.14986,0.203331 -0.35814,-0.07194 -0.25301,-0.142637 -0.0294,-0.372679 0.24134,-0.248497 0.422,-0.553355 0.68346,-0.78492 0.25618,-0.272462 0.47603,-0.571357 0.68829,-0.880251 0.2282,-0.321086 0.53553,-0.580828 0.71517,-0.938818 0.20539,-0.39096 0.3702,-0.798239 0.52753,-1.211799 0.26383,-0.68831 0.44743,-1.406782 0.60818,-2.126736 0.10999,-0.589069 0.21273,-1.169965 0.16754,-1.773054 -1e-5,-0.465533 -2e-5,-0.931065 -2e-5,-1.396599 1e-5,-0.465678 1e-5,-0.931357 4.1e-4,-1.397036 5e-4,-0.467348 0.002,-0.934696 0.004,-1.402044 0.002,-0.464857 0.004,-0.93002 -0.0149,-1.394564 -0.023,-0.365325 -0.0316,-0.766426 -0.26292,-1.06579 -0.49511,-0.37575 -1.11405,0.330208 -1.40934,0.738832 -0.24815,0.350476 -0.43986,0.735675 -0.64267,1.114589 -0.22086,0.388966 -0.40539,0.795594 -0.61114,1.192859 -0.20853,0.473053 -0.44763,0.927165 -0.70925,1.371617 -0.18744,0.390767 -0.36833,0.789698 -0.66261,1.110443 -0.27443,0.378458 -0.55845,0.752373 -0.91675,1.052937 -0.37298,0.348372 -0.79042,0.641228 -1.16563,0.987463 0.22595,-0.128872 0.43876,-0.285642 0.67787,-0.386614 0.0285,-0.01206 0.007,0.06322 0.0169,0.09321 0.004,0.009 6.5e-4,-0.01936 0.004,-0.02813 0.0694,-0.174555 0.18614,-0.32451 0.2459,-0.504108 0.19454,-0.478193 0.24743,-0.983379 0.22284,-1.49961 -0.004,-0.397955 0.006,-0.806507 -0.0971,-1.193136 -0.30716,-0.607283 -1.04905,0.255153 -1.2908,0.635463 -0.2017,0.289612 -0.42033,0.560898 -0.64739,0.830568 -0.23932,0.32999 -0.48271,0.659338 -0.78928,0.928221 -0.31318,0.319491 -0.6304,0.638087 -1.01667,0.865035 1.2842,-0.724839 0.1774,-0.104032 -0.36971,0.227853 -0.19954,0.121046 0.41213,-0.219333 0.60756,-0.34723 0.0617,-0.04036 -0.55567,0.211918 -0.58432,0.148453 -0.49074,0.0025 -0.98162,0.0082 -1.47231,-0.0033 -0.27788,-0.01111 -0.74558,0.04673 -0.9318,-0.206914 0.0306,-0.352021 0.35006,-0.629786 0.5124,-0.925558 0.27562,-0.347087 0.59662,-0.655188 0.85505,-1.018007 0.29301,-0.302672 0.61973,-0.573857 0.9511,-0.830689 0.34742,-0.26142 0.66745,-0.550477 0.98797,-0.844794 0.40762,-0.34998 0.83147,-0.679808 1.21409,-1.059236 0.28533,-0.287699 0.61872,-0.627352 0.6961,-1.041906 -0.20254,-0.572968 -1.05395,-0.314701 -1.50022,-0.358695 -0.78263,0.003 -1.56737,-0.0045 -2.34763,0.06668 -0.4112,0.0677 -0.77313,0.232537 -1.15167,0.402689 -0.67588,0.32009 -1.30261,0.73791 -1.91797,1.164483 -0.92459,0.644548 -1.00093,0.678673 -1.43985,0.915419 -1.02166,0.525838 -2.06143,1.064782 -3.21891,1.175832 0,0 -0.72563,0.539961 -0.72563,0.539961 z" />
    <path
       style="fill:#f1fffa;fill-opacity:0.901961;stroke-width:0;paint-order:fill markers stroke"
       id="path2018"
       d="m 125.79772,64.560099 c 0.46292,-0.58465 0.88001,-1.203041 1.31328,-1.81044 0.24491,-0.457121 0.67206,-0.735757 0.97832,-1.141518 0.36401,-0.391048 0.64228,-0.857674 0.97325,-1.27716 0.33855,-0.410336 0.62147,-0.86896 0.95195,-1.28525 0.31193,-0.476234 0.74486,-0.846159 1.0414,-1.332487 0.26864,-0.410107 0.6637,-0.691421 0.99659,-1.036821 0.057,-0.04831 0.11417,-0.09663 0.17125,-0.144948 0.26217,-0.221926 0.87578,-0.649747 0.61921,-0.504269 -0.0552,0.03127 -2.70711,1.67868 0.46603,-0.291233 0.43176,-0.271826 0.84357,-0.583418 1.2436,-0.904395 1.21373,-0.677637 -3.31516,1.901095 0.57757,-0.359052 0.25413,-0.147544 -1.00349,0.613455 -0.74658,0.47134 0.95455,-0.528003 0.87186,-0.477277 1.39598,-0.874809 -0.12556,0.06448 0.66857,-0.428573 0.50242,-0.319745 -0.22009,0.144154 -0.89391,0.552631 -0.66549,0.423541 0.6445,-0.364232 1.17135,-0.719309 1.76358,-1.114949 -0.82374,0.433051 1.60636,-1.010405 0.79919,-0.525082 -0.23136,0.139115 -0.91505,0.574986 -0.68891,0.426701 1.84249,-1.208204 0.71976,-0.419399 1.51763,-0.984975 -0.18098,0.121691 0.753,-0.464617 0.56543,-0.347259 -0.22645,0.141686 -0.90804,0.56276 -0.6794,0.424987 0.6032,-0.363478 1.13552,-0.74305 1.72195,-1.100576 0.29664,-0.187254 0.59005,-0.37819 0.88765,-0.563686 0.10067,-0.06274 0.40137,-0.253198 0.29982,-0.192063 -0.87811,0.528563 -0.84457,0.500324 -0.37083,0.266517 0.56547,-0.323252 1.13748,-0.633505 1.7071,-0.948707 0.90117,-0.436945 1.75714,-0.921975 2.61629,-1.448289 0.4228,-0.323365 0.88084,-0.586899 1.3184,-0.888193 0.3856,-0.366776 0.82335,-0.662847 1.2477,-0.977107 0.45454,-0.275936 0.86328,-0.626469 1.30273,-0.92733 0.29167,-0.230068 2.24486,-1.46531 0.56723,-0.397458 0.59517,-0.314225 1.22821,-0.551441 1.85767,-0.780419 0.49309,-0.145153 0.9722,-0.339487 1.45087,-0.529826 0.55699,-0.175689 1.11142,-0.363376 1.68432,-0.473075 0.76463,-0.103128 1.52858,-0.218042 2.27293,-0.431107 0.50023,-0.124779 0.99542,-0.272469 1.46873,-0.485089 0.59249,-0.291419 0.14958,-0.06565 1.33466,-0.801772 0.25292,-0.157102 -0.50776,0.310808 -0.75956,0.469876 -0.0766,0.04843 0.15743,-0.08944 0.23407,-0.137908 1.15073,-0.727883 0.82343,-0.494699 1.40048,-0.918326 0.36667,-0.301285 0.67889,-0.663938 1.0278,-0.984845 0.52464,-0.278247 -0.27689,0.141663 -0.72051,0.478525 -0.0219,0.01666 0.0484,0.0305 0.062,0.05506 0.027,0.04882 0.0422,0.104248 0.0563,0.15873 0.0436,0.168242 0.0528,0.313893 0.0721,0.487592 0.0314,0.576749 0.10594,1.160306 -0.0865,1.711657 -0.14029,0.495429 -0.39821,0.916009 -0.66892,1.33915 -0.16462,0.301039 -0.80342,0.64758 -0.23962,0.878025 0.89464,-0.0057 1.77314,-0.267991 2.64146,-0.472521 1.22895,-0.342849 2.47785,-0.619729 3.67397,-1.077637 0.72084,-0.292677 1.45369,-0.556256 2.13681,-0.938912 1.06544,-0.544195 1.95452,-1.34582 2.89911,-2.07283 0.0893,-0.07923 0.18017,-0.156463 0.2678,-0.237676 0.0847,-0.07849 0.16316,-0.164243 0.24903,-0.241313 0.0684,-0.06141 0.2928,-0.218363 0.21341,-0.173772 -0.26611,0.167439 -0.53223,0.334878 -0.79834,0.502317 0.0199,-7.18e-4 0.0545,-0.02232 0.0596,-0.0022 0.0116,0.04677 -0.0165,0.09508 -0.0248,0.142619 -0.27846,0.912322 -0.70339,1.780648 -1.1608,2.608846 -0.37346,0.746375 -0.83429,1.43589 -1.28677,2.129597 -0.32477,0.486431 -0.63645,0.97972 -0.92666,1.489903 -0.32783,0.569718 -0.77579,1.041149 -1.10571,1.608817 -0.3177,0.467209 -0.72682,0.855351 -1.05911,1.312063 -0.48814,0.570446 -0.99469,1.118214 -1.52223,1.64886 -0.5279,0.627935 -1.08041,1.226129 -1.57446,1.88377 -0.51441,0.537672 -0.97211,1.11303 -1.41856,1.710622 -0.26931,0.433338 -0.53341,0.870966 -0.67761,1.368808 -0.0375,0.48927 -0.73733,1.386744 -0.69783,1.804244 0.008,0.08463 0.0969,0.136331 0.1454,0.204497 0.0923,0.01632 0.18344,0.05448 0.27688,0.04896 0.62105,-0.03664 1.7903,-0.669315 2.37098,-0.957173 0.75612,-0.375833 1.48296,-0.832861 2.18355,-1.308201 0.33593,-0.227924 0.62116,-0.574463 0.92057,-0.851332 0.52337,-0.329735 0.85655,-0.82446 1.17334,-1.353578 0.28503,-0.575687 0.72184,-1.043842 1.03394,-1.599748 0.0363,-0.05786 0.16525,-0.209388 0.10877,-0.173569 -0.38253,0.2426 -0.77273,0.484781 -1.10112,0.802925 -0.0343,0.03327 -0.47003,1.373463 -0.52,1.523694 -0.24081,0.669265 -0.5425,1.309879 -0.72903,1.999245 -0.29862,0.701511 -0.31076,1.480485 -0.44041,2.224627 -0.12818,0.777798 -0.26643,1.552898 -0.40174,2.329555 -0.0957,0.739098 -0.24345,1.469523 -0.4699,2.176189 -0.2342,0.997661 -1.35253,1.41452 0.61185,0.356721 0.42888,-0.527195 0.95142,-0.94793 1.43266,-1.420171 0.55376,-0.495104 1.14622,-0.937072 1.72286,-1.40216 0.60825,-0.435734 1.13556,-0.979006 1.70273,-1.46866 0.30663,-0.247122 1.223,-0.964691 -0.27892,0.109666 -0.0406,0.02904 0.18451,-0.08478 0.19219,-0.0098 0.005,0.04946 -0.0312,0.09398 -0.0467,0.140971 -0.18713,0.747173 -0.50458,1.447299 -0.75045,2.173486 -0.5138,1.046174 -0.0303,0.697534 1.11097,-0.107675 0.3177,-0.224153 0.55504,-0.553444 0.82966,-0.833304 0.86279,-0.856444 1.6543,-1.791167 2.38791,-2.77085 0.39908,-0.609898 0.92265,-1.109168 1.336,-1.706274 0.46413,-0.606166 0.95802,-1.188044 1.41798,-1.797731 0.50588,-0.531169 0.93139,-1.125482 1.34784,-1.732833 0.49296,-0.590253 0.85709,-1.2759 1.31265,-1.894055 0.32971,-0.465257 0.59722,-0.975731 0.94478,-1.426717 0.0335,-0.02043 0.13288,-0.08373 0.10056,-0.06127 -0.30564,0.212276 -0.63835,0.385571 -0.92064,0.63086 -0.0403,0.03496 0.007,0.109545 0.005,0.164325 -0.009,0.282961 -0.0535,0.566956 -0.0858,0.847549 -0.16736,0.596543 -0.36547,1.184 -0.56653,1.769714 -0.1798,0.64928 -0.40881,1.278162 -0.64632,1.905883 -0.29697,0.632803 -0.52898,1.297415 -0.69025,1.981631 -0.22831,0.78293 -0.51833,1.549657 -0.82713,2.301799 -0.29664,0.676556 -0.46541,1.401152 -0.70842,2.096984 -0.19272,0.514985 -0.26669,1.068533 -0.54086,1.546733 -0.25278,0.424286 -0.39233,0.906176 -0.60282,1.350814 -0.15934,0.48787 -0.43284,0.903937 -0.70721,1.326997 -0.29198,0.544124 -0.67714,1.022834 -1.09159,1.468423 -0.67053,0.64915 -1.29463,1.34624 -1.95192,2.009419 -0.48925,0.461446 -0.97694,0.929468 -1.48777,1.364677 -0.44986,0.403943 -0.94534,0.742799 -1.40764,1.130696 -0.51054,0.440783 -1.04887,0.841778 -1.5182,1.332764 -0.35462,0.363291 -0.74028,0.714649 -1.02219,1.145288 -0.28082,0.36441 -0.56637,0.709395 -0.72668,1.151422 -0.2029,0.439971 -0.52207,0.799524 -0.74323,1.227087 -0.21408,0.388845 -0.50349,0.714211 -0.76782,1.062971 -0.1465,0.254364 -0.30827,0.498596 -0.46688,0.745543 0,0 1.03431,-0.474486 1.03431,-0.474486 v 0 c 0.15631,-0.246083 0.31457,-0.49057 0.47212,-0.73574 0.27485,-0.343786 0.54361,-0.691062 0.75902,-1.08071 0.23739,-0.419224 0.55005,-0.790742 0.7378,-1.241081 0.17772,-0.422772 0.47313,-0.759167 0.7369,-1.125326 0.30056,-0.412164 0.67301,-0.76602 1.028,-1.125649 0.47952,-0.47571 1.00913,-0.884226 1.52021,-1.320694 0.46682,-0.38333 0.96193,-0.726755 1.41015,-1.134879 0.5001,-0.447009 0.99951,-0.896637 1.47729,-1.369655 0.65534,-0.667407 1.28575,-1.360573 1.95329,-2.015031 0.40916,-0.457711 0.79088,-0.941138 1.08769,-1.488486 0.27285,-0.428296 0.53475,-0.855438 0.7013,-1.343602 0.19566,-0.451223 0.35976,-0.918791 0.60685,-1.34433 0.24406,-0.496002 0.33994,-1.043309 0.52864,-1.562623 0.22897,-0.698997 0.41942,-1.412456 0.70866,-2.089139 0.30418,-0.759156 0.60244,-1.526724 0.82045,-2.318246 0.17135,-0.678898 0.40932,-1.335814 0.69898,-1.969216 0.23907,-0.627994 0.45561,-1.262578 0.64375,-1.909553 0.19792,-0.593588 0.41869,-1.181949 0.55721,-1.793902 0.0934,-0.807616 0.34164,-2.08316 -1.14745,-0.590278 -0.32787,0.464617 -0.61185,0.960337 -0.93931,1.425364 -0.44538,0.625488 -0.82321,1.301137 -1.30942,1.895938 -0.41585,0.605931 -0.85812,1.183809 -1.3482,1.726506 -0.46715,0.606767 -0.95874,1.192675 -1.42125,1.803654 -0.42439,0.583694 -0.93129,1.095384 -1.33112,1.700286 -0.73718,0.970648 -1.51956,1.905662 -2.38545,2.752713 -0.15736,0.157882 -0.31251,0.318219 -0.47207,0.473646 -0.12369,0.12049 -0.54575,0.369086 -0.37758,0.353988 0.82351,-0.07394 0.71426,-0.298741 0.95219,-0.828449 0.25279,-0.732631 0.57612,-1.442856 0.74571,-2.204014 -0.004,-0.0854 0.0169,-0.175983 -0.0112,-0.256222 -0.0351,-0.100138 -0.18812,-0.123101 -0.26324,-0.08365 -0.60209,0.316228 -1.1506,0.616155 -1.64777,1.069795 -0.55885,0.49812 -1.09832,1.023696 -1.70209,1.462964 -0.57814,0.463099 -1.17104,0.907134 -1.71732,1.411839 -0.4879,0.471973 -1.01485,0.899652 -1.43379,1.444561 1.06796,-0.363255 1.13035,-0.267653 1.44587,-1.329754 0.22056,-0.712008 0.35561,-1.448876 0.45967,-2.189076 0.13624,-0.77654 0.27254,-1.552219 0.40095,-2.330128 0.11982,-0.744622 0.15868,-1.512083 0.44906,-2.214633 0.19501,-0.683246 0.4962,-1.322374 0.72855,-1.991905 0.1316,-0.389478 0.28614,-0.771294 0.4126,-1.162448 0.0396,-0.122602 0.22712,-0.34501 0.10643,-0.371993 -0.79008,-0.176648 -0.82336,-0.02599 -1.05392,0.358499 -0.32735,0.544224 -0.74233,1.02769 -1.03395,1.597493 -0.318,0.521716 -0.6794,0.979899 -1.18175,1.321481 -0.19584,0.18381 -0.38428,0.376414 -0.58485,0.554507 -0.10946,0.09719 -0.48,0.30004 -0.33799,0.279191 0.20989,-0.03082 0.36451,-0.231245 0.56195,-0.312072 0.29248,-0.119735 -1.09481,0.623794 -0.83156,0.464073 -0.81183,0.41552 -1.66113,0.848616 -2.55123,1.026574 -0.0326,-0.03245 -0.0977,-0.05022 -0.0978,-0.09736 -9e-4,-0.483349 0.65534,-1.268187 0.70246,-1.804387 0.15742,-0.480195 0.41967,-0.912223 0.6908,-1.330232 0.43824,-0.602492 0.92341,-1.150713 1.41403,-1.706937 0.49674,-0.651356 1.04876,-1.250417 1.58111,-1.869601 0.52855,-0.534182 1.03773,-1.08679 1.5211,-1.666276 0.34381,-0.447373 0.75017,-0.841979 1.05274,-1.32276 0.34253,-0.558396 0.78758,-1.036177 1.10737,-1.611499 0.29541,-0.503902 0.60195,-0.999789 0.92737,-1.482854 0.45445,-0.691535 0.89755,-1.392187 1.27474,-2.134478 0.45698,-0.845091 0.91218,-1.732302 1.14688,-2.67438 -0.0127,-0.08783 -9e-4,-0.18362 -0.0381,-0.263505 -0.23054,-0.497064 -1.62657,0.969622 -1.97673,1.25003 -0.3194,0.251887 -0.62787,0.518071 -0.95106,0.764656 -0.43784,0.334062 -0.70514,0.499034 -0.66497,0.484087 0.22528,-0.08384 0.423,-0.233653 0.63451,-0.350479 -0.67607,0.401141 -1.41218,0.661244 -2.13341,0.957899 -1.19018,0.476084 -2.44117,0.745842 -3.66894,1.093403 -0.8568,0.20499 -1.71739,0.436699 -2.5964,0.496661 -0.40366,0.05132 0.3168,-0.51435 0.34609,-0.671053 0.27642,-0.426474 0.50779,-0.872349 0.65462,-1.367881 0.16422,-0.57266 0.10213,-1.168327 0.0644,-1.758435 -0.13949,-1.167231 -0.32985,-1.08324 -1.51416,-0.181857 -0.33641,0.331921 -0.66321,0.674846 -1.03063,0.970314 -0.84521,0.6298 1.18939,-0.659487 0.29288,-0.120453 -0.39061,0.234864 -0.78749,0.458661 -1.17142,0.70536 -0.19788,0.127152 1.32335,-0.749948 0.60125,-0.368109 -0.45808,0.243277 -0.96575,0.371651 -1.461,0.503413 -0.74102,0.221641 -1.50099,0.352137 -2.26679,0.441901 -0.57919,0.09303 -1.13053,0.289907 -1.69418,0.452429 -0.48026,0.18632 -0.95539,0.394303 -1.44986,0.533829 -0.63399,0.219129 -1.26642,0.467711 -1.86784,0.768696 -0.84916,0.495068 -1.69756,0.981622 -2.49466,1.564857 -0.43413,0.310453 -0.85419,0.643471 -1.30323,0.930586 -0.42498,0.311561 -0.84946,0.624029 -1.2482,0.972138 -0.44241,0.292516 -0.88802,0.576039 -1.31906,0.886317 1.79374,-1.054716 -0.32587,0.12864 -0.68977,0.282115 -0.56646,0.320246 -1.14595,0.614348 -1.70242,0.954212 -0.96669,0.447172 -1.83707,1.090389 -2.74689,1.647957 -0.33616,0.220218 -0.6799,0.442534 -0.50872,0.355811 0.24539,-0.12432 0.94991,-0.56089 0.71315,-0.419347 -0.60457,0.361414 -1.21789,0.706919 -1.80935,1.091881 -0.0931,0.06639 -0.38237,0.246601 -0.27928,0.199186 0.2371,-0.109045 0.90503,-0.527215 0.68424,-0.385435 -0.67184,0.431392 -1.38693,0.79387 -2.03496,1.267426 -0.34249,0.233509 -0.55352,0.376924 -0.5264,0.362321 0.23532,-0.126698 0.92187,-0.544471 0.68917,-0.412582 -0.59498,0.337211 -1.19895,0.672228 -1.76366,1.066276 -0.0732,0.05159 -0.29767,0.198027 -0.21968,0.154788 0.25597,-0.141927 1.00963,-0.594955 0.75452,-0.451345 -0.39966,0.224981 -0.78992,0.467959 -1.18825,0.695504 -0.26326,0.150387 1.04292,-0.620673 0.783,-0.46401 -0.38821,0.233996 -0.78128,0.459139 -1.16791,0.696014 -0.0658,0.0403 -0.12585,0.09012 -0.18877,0.135173 -0.40999,0.307247 -0.80618,0.635261 -1.24507,0.896704 2.08229,-1.225653 -0.86975,0.436231 -1.24999,0.962188 -0.34576,0.335612 -0.72494,0.642039 -0.98659,1.06005 -0.31539,0.467303 -0.7291,0.851843 -1.04301,1.321912 -0.31964,0.426834 -0.62234,0.867487 -0.95273,1.285744 -0.3212,0.428419 -0.61819,0.878497 -0.97523,1.276321 -0.32117,0.387753 -0.73086,0.689478 -0.97304,1.146651 -0.42465,0.616825 -0.86444,1.218764 -1.31372,1.81657 0,0 1.03353,-0.474444 1.03353,-0.474444 z" />
    <path
       style="fill:#f1fffa;fill-opacity:0.901961;stroke-width:0;paint-order:fill markers stroke"
       id="path2020"
       d="m 154.39352,50.645951 c 0.30642,-0.388742 0.61786,-0.77455 0.99769,-1.128051 0.2458,-0.233253 0.50349,-0.465699 0.80133,-0.665089 0.38382,-0.252712 0.78036,-0.494455 1.18272,-0.731407 0.42022,-0.206663 0.82356,-0.429647 1.23844,-0.641731 0.40287,-0.184823 0.79077,-0.386491 1.18523,-0.581102 0.39354,-0.170107 0.0516,-0.01654 0.41249,-0.194359 0.0602,-0.02967 0.24662,-0.112015 0.18335,-0.08597 -0.17564,0.0723 -0.6951,0.298625 -0.52064,0.224817 0.66218,-0.280148 1.37302,-0.592999 0.33296,-0.13768 2.20164,-0.925753 0.43903,-0.186278 0.33036,-0.1358 -0.0519,0.0241 0.11145,-0.03799 0.16711,-0.05708 0.1809,-0.06204 0.35936,-0.119135 0.54732,-0.168953 0.37315,-0.118941 0.77066,-0.182249 1.15368,-0.280075 0.32204,-0.07975 0.62244,-0.187476 0.95581,-0.242372 0.35582,-0.02086 0.69819,-0.09114 1.04685,-0.141758 0.13793,-0.0329 0.2801,-0.05877 0.41741,-0.09243 0.0131,-0.0032 -0.0308,-0.0025 -0.0411,0.0042 -0.035,0.02284 -0.0585,0.05354 -0.0881,0.08013 -0.0451,0.04051 -0.0906,0.08077 -0.13586,0.121149 -0.0707,0.05522 -0.61047,0.396545 -0.5102,0.466761 0.0261,0.01825 0.0661,0.02136 0.0992,0.03205 0.64349,-0.230248 1.20982,-0.532431 1.75907,-0.862217 0.53785,-0.311841 1.07767,-0.621165 1.61211,-0.936083 0.52425,-0.316941 1.03573,-0.646836 1.49753,-1.012083 0.38477,-0.348875 0.78463,-0.68615 1.21069,-1.008939 0.36476,-0.346675 0.83874,-0.616041 1.24094,-0.936299 0.2885,-0.246508 0.60232,-0.475906 0.90227,-0.714546 0.19598,-0.201248 0.41151,-0.390306 0.61766,-0.586086 0.23836,-0.226532 0.45456,-0.463935 0.73064,-0.668119 -0.20664,0.09298 -0.41926,0.179256 -0.61991,0.27895 -0.0118,0.0059 0.032,6.19e-4 0.0412,0.0086 0.0343,0.02989 0.055,0.124957 0.0606,0.15163 0.0216,0.102929 0.0224,0.181191 0.0298,0.288125 0.0152,0.379028 0.01,0.758293 0.007,1.137422 -0.0227,0.399105 -0.19456,0.779085 -0.30106,1.168223 -0.0849,0.324867 -0.10529,0.655448 -0.11614,0.985213 -0.007,0.302796 -0.004,0.605644 -0.003,0.908463 0.0295,0.126673 -0.11042,0.585689 0.17226,0.631159 0.0457,0.0073 0.0929,-0.0077 0.13935,-0.01161 0.29253,-0.132337 0.59652,-0.252095 0.87759,-0.397011 0.0439,-0.02264 0.40533,-0.329507 0.42691,-0.346637 0.2593,-0.205785 0.51686,-0.404105 0.75737,-0.622228 0.45472,-0.394397 0.85268,-0.820173 1.29048,-1.224104 0.3628,-0.314386 0.75217,-0.610108 1.06949,-0.950682 0.307,-0.278204 0.59526,-0.567355 0.87436,-0.860488 0.28398,-0.238241 0.56975,-0.47445 0.85402,-0.712794 0.34945,-0.280461 0.69549,-0.565215 1.08715,-0.8149 0.40795,-0.257681 0.83528,-0.499595 1.23619,-0.762646 0.47038,-0.27098 0.97625,-0.505816 1.46236,-0.761956 0.0729,-0.03278 0.29341,-0.129093 0.21881,-0.09835 -1.2182,0.501991 0.38161,-0.07198 0.60197,-0.144594 0.12021,-0.04252 0.92262,-0.351249 0.99868,-0.25262 0.0229,0.02978 0.005,0.06821 0.007,0.102322 -0.14761,0.461074 -0.47275,0.90075 -0.80136,1.308889 -0.26868,0.298348 -0.5083,0.607802 -0.74544,0.920254 -0.24965,0.255457 -0.48588,0.522356 -0.67988,0.80244 -0.38511,0.550981 -0.76372,1.104311 -1.14166,1.658144 -0.30195,0.488039 -0.67346,0.949985 -0.99061,1.432437 -0.34785,0.553617 -0.72677,1.096205 -1.11962,1.633329 -0.38465,0.586506 0.36227,0.341428 0.75524,0.215513 0.81034,-0.271939 1.55928,-0.627776 2.2908,-0.996171 0.50746,-0.178771 0.84972,-0.512201 1.29018,-0.753611 -0.20926,0.09109 -0.42151,0.178622 -0.62777,0.273284 -0.0567,0.02602 -0.32639,0.478026 -0.3368,0.493303 -0.78219,1.147968 0.34784,-0.528918 -0.4249,0.620419 -0.33342,0.40259 -0.60162,0.827948 -0.83395,1.265663 -0.13266,0.269679 -0.28932,0.525774 -0.36202,0.80901 -0.13112,0.365776 -0.2621,0.729757 -0.43409,1.086693 -0.371,0.73902 -0.7693,1.467899 -1.21406,2.184797 -0.25524,0.462298 -0.57768,0.901095 -0.8611,1.353546 -0.1849,0.255829 -0.39278,0.500253 -0.60358,0.744475 -0.13274,0.138968 -0.41698,0.33879 -0.43385,0.51213 0.0252,0.01503 0.046,0.05481 0.0757,0.04507 0.6214,-0.203491 1.18306,-0.509258 1.70721,-0.822431 0.4137,-0.278003 0.83623,-0.546818 1.19141,-0.866184 0.30303,-0.247957 0.67746,-0.438747 1.00888,-0.664885 0.0467,-0.02672 0.19249,-0.100829 0.14027,-0.08016 -0.20329,0.08044 -0.4032,0.166044 -0.59511,0.260153 -0.016,0.0078 0.0533,-0.01027 0.0576,0.0034 0.0133,0.04219 -0.007,0.08657 -0.0157,0.129359 -0.0473,0.224745 -0.0723,0.256967 -0.1639,0.488119 -0.17619,0.432465 -0.42637,0.847601 -0.69933,1.251684 -0.21599,0.28462 -0.43352,0.568818 -0.63008,0.860912 -0.27606,0.37231 -0.5316,0.750733 -0.80633,1.124438 -0.24427,0.306583 -0.41399,0.648639 -0.68778,0.941953 -0.18125,0.229641 -0.39356,0.445526 -0.57058,0.677179 -0.18887,0.211057 -0.42108,0.397585 -0.6049,0.611252 -0.17236,0.115779 -0.23363,0.288309 -0.38006,0.416627 -0.0657,0.05752 -0.14466,0.106281 -0.21335,0.161879 -0.21114,0.191947 -0.43759,0.375141 -0.64767,0.567804 -0.21221,0.16251 -0.41982,0.324923 -0.65321,0.471925 -0.31498,0.201724 -0.62987,0.404163 -0.98079,0.572238 -0.33711,0.188145 -0.67337,0.374609 -1.03092,0.541901 -0.30141,0.119976 -0.46863,0.340332 -0.72651,0.493251 -0.10248,0.08468 -0.23175,0.14772 -0.35347,0.216338 0,0 0.76258,-0.222154 0.76258,-0.222154 v 0 c 0.12158,-0.06962 0.24426,-0.138657 0.35227,-0.219726 0.24033,-0.165281 0.4331,-0.363708 0.72881,-0.484944 0.3521,-0.1721 0.68992,-0.357324 1.02933,-0.542271 0.34628,-0.174783 0.66327,-0.377655 0.97954,-0.579985 0.23101,-0.149636 0.43963,-0.315164 0.64811,-0.481205 0.2164,-0.188465 0.42902,-0.379332 0.64966,-0.564977 0.22764,-0.181336 0.38794,-0.389458 0.58704,-0.587047 0.19259,-0.209344 0.422,-0.398919 0.60292,-0.614267 0.18338,-0.22771 0.38618,-0.447005 0.57154,-0.673756 0.2573,-0.301768 0.44223,-0.635514 0.68114,-0.945236 0.27621,-0.373506 0.52829,-0.754182 0.80646,-1.126409 0.20289,-0.290362 0.41939,-0.575394 0.63189,-0.862053 0.27117,-0.406034 0.51007,-0.825885 0.68663,-1.259035 0.0753,-0.195826 0.24584,-0.488454 0.13244,-0.697789 -0.11318,-0.208929 -0.80508,0.226606 -1.04608,0.376459 -0.33786,0.221694 -0.70855,0.418649 -1.00404,0.672495 -0.35755,0.313334 -0.78061,0.580738 -1.19392,0.853868 -0.23915,0.139113 -0.48291,0.272893 -0.73244,0.402037 -0.0516,0.0267 -0.21455,0.097 -0.15716,0.07757 0.20732,-0.0702 0.39831,-0.165061 0.60859,-0.230423 0.018,-0.0056 -0.003,0.02844 -0.005,0.04267 0.0802,-0.183759 0.30323,-0.329569 0.44288,-0.488693 0.21423,-0.243613 0.41401,-0.493168 0.59568,-0.750675 0.2865,-0.449931 0.59432,-0.892019 0.85307,-1.351454 0.44106,-0.719428 0.83285,-1.45191 1.21221,-2.189784 0.17194,-0.360669 0.31463,-0.726769 0.43887,-1.097646 0.0792,-0.277783 0.23898,-0.531528 0.36576,-0.798606 0.23417,-0.433962 0.50224,-0.855512 0.82741,-1.257975 0.15947,-0.236167 0.67323,-0.875775 0.71691,-1.108736 0.009,-0.0458 0.017,-0.148705 -0.0436,-0.134991 -0.28531,0.06458 -0.52011,0.214296 -0.78017,0.321443 -0.42549,0.253577 -0.78975,0.563532 -1.28807,0.749154 -0.23793,0.120038 -0.47291,0.242084 -0.72032,0.351723 -0.087,0.03856 -0.35358,0.147263 -0.26323,0.113021 0.0343,-0.01301 0.91038,-0.367457 0.0887,-0.05463 -0.47479,0.164634 -0.12157,0.05418 -0.55123,0.162833 -0.0552,0.01396 -0.1054,0.04159 -0.16351,0.04622 -0.14247,0.01136 0.0482,-0.335351 0.0648,-0.299023 0.39051,-0.538226 0.76184,-1.083686 1.11695,-1.634851 0.32225,-0.479369 0.68616,-0.943265 0.98658,-1.430535 0.3766,-0.556222 0.76029,-1.109451 1.1518,-1.660097 0.20486,-0.27638 0.43733,-0.542127 0.68077,-0.801301 0.23464,-0.312223 0.48446,-0.616365 0.74282,-0.918169 0.32526,-0.420322 0.67391,-0.868195 0.78301,-1.346766 -0.015,-0.05071 -0.008,-0.10761 -0.0448,-0.152135 -0.14375,-0.175272 -0.87477,0.159597 -1.04764,0.212352 -0.76059,0.248229 -1.53747,0.471167 -2.21871,0.83123 -0.48491,0.258178 -0.99876,0.486458 -1.4597,0.767334 -0.40732,0.258319 -0.82763,0.50579 -1.23646,0.76302 -0.3858,0.256484 -0.73723,0.538957 -1.08514,0.822474 -0.28445,0.239218 -0.57651,0.473297 -0.85109,0.718566 -0.28311,0.290882 -0.56743,0.581161 -0.87239,0.860295 -0.32419,0.335218 -0.71227,0.630389 -1.06914,0.946668 -0.43361,0.405193 -0.83302,0.829262 -1.28816,1.222328 -0.31277,0.278073 -0.64784,0.542902 -0.98614,0.804609 -0.0684,0.05288 -0.30954,0.167087 -0.21144,0.154123 0.19462,-0.02572 0.35257,-0.130711 0.52885,-0.196066 -0.0305,0.01935 -0.0536,0.04798 -0.0916,0.05803 -0.17619,0.04653 -0.13155,-0.50743 -0.13637,-0.577488 -6.6e-4,-0.302309 -0.003,-0.604654 0.004,-0.906933 0.0118,-0.326572 0.034,-0.653882 0.12065,-0.975285 0.10954,-0.391783 0.2775,-0.776171 0.29467,-1.178873 0.001,-0.3801 0.005,-0.760309 -0.009,-1.140309 -0.002,-0.02574 -0.0341,-0.596865 -0.2076,-0.54385 -0.2778,0.08487 -0.52628,0.213662 -0.78942,0.320494 -0.26373,0.212843 -0.48803,0.446339 -0.72686,0.673521 -0.20521,0.194384 -0.4162,0.385173 -0.61961,0.580564 -0.30456,0.23471 -0.60573,0.471503 -0.89933,0.713605 -0.40959,0.314522 -0.86859,0.594186 -1.2405,0.935287 -0.42364,0.323794 -0.81654,0.665033 -1.20823,1.009051 -0.46676,0.360528 -0.97641,0.690111 -1.50215,1.004358 -0.53608,0.313735 -1.07429,0.625118 -1.61295,0.93648 -0.25083,0.145446 -1.74882,0.915961 -0.34922,0.273153 -0.007,0.01926 -0.0142,0.0383 -0.0192,0.05778 -0.001,0.0038 0.004,-0.0073 0.007,-0.01047 0.0199,-0.02134 0.0388,-0.04335 0.0616,-0.06307 0.14313,-0.123489 0.31285,-0.229872 0.46073,-0.350152 0.35631,-0.339791 0.24159,-0.398581 -0.25034,-0.238836 -0.35059,0.04634 -0.68962,0.128553 -1.04769,0.140904 -0.33984,0.04738 -0.64176,0.148595 -0.96275,0.236165 -0.38313,0.09926 -0.77987,0.162409 -1.15412,0.280625 -0.24319,0.05915 -0.49701,0.12806 -0.72243,0.217978 -0.1109,0.04424 -1.73488,0.72275 -0.32885,0.137698 -0.293,0.119807 -0.58579,0.239889 -0.87901,0.359421 -0.18164,0.07405 0.72394,-0.299565 0.5443,-0.222972 -0.49739,0.212067 -0.9989,0.410588 -1.47424,0.647124 -0.3953,0.193853 -0.78322,0.39566 -1.18509,0.582196 -0.4151,0.211989 -0.82002,0.433973 -1.23572,0.645382 -0.40316,0.238534 -0.80109,0.482109 -1.18452,0.737316 -0.28651,0.208689 -0.55135,0.433984 -0.7912,0.671809 -0.37174,0.359912 -0.68302,0.747089 -1.00011,1.133141 0,0 0.75189,-0.239668 0.75189,-0.239668 z" />
    <path
       style="fill:#c9fbff;fill-opacity:1;stroke-width:0;paint-order:fill markers stroke"
       d="m 128.39706,98.478768 c -1.42591,-0.631418 -4.06365,-2.758887 -5.26882,-4.249554 -1.6552,-2.047335 -2.38166,-3.594234 -3.01925,-6.429192 -0.50765,-2.257149 -0.50689,-2.332924 0.0362,-3.621058 0.84693,-2.008757 0.62784,-5.265496 -0.44415,-6.602117 -0.75516,-0.941583 -0.76912,-1.013896 -0.30071,-1.556933 0.27017,-0.313217 1.17313,-0.978816 2.00657,-1.479108 0.87273,-0.523879 2.32997,-1.875044 3.43631,-3.186177 3.5028,-4.151191 3.61504,-4.251345 4.7641,-4.251345 0.57695,0 1.96741,0.385021 3.08992,0.855603 2.24303,0.940324 4.04665,1.208892 8.22772,1.225149 l 2.76934,0.01077 0.50569,0.971064 c 0.27813,0.534085 1.02196,2.167608 1.65296,3.630052 1.09972,2.548778 1.21525,2.697389 2.78723,3.585465 0.95653,0.540374 1.70158,1.180773 1.7878,1.536674 0.0813,0.335609 -0.23316,1.747386 -0.69881,3.137283 -0.46566,1.389896 -1.06107,3.871633 -1.32312,5.514971 -0.48866,3.064381 -1.41169,6.310719 -1.96508,6.91126 -0.17125,0.185849 -1.40067,0.709003 -2.73204,1.162564 -1.33137,0.453562 -3.31776,1.306684 -4.41418,1.895833 -1.98691,1.067635 -2.00713,1.071427 -6.12289,1.147884 -2.27116,0.04219 -4.41982,-0.05191 -4.77479,-0.209086 z m 6.48351,-3.460502 c 0.86148,-0.419594 1.92743,-1.124169 2.36879,-1.565722 0.90921,-0.90962 3.12834,-5.643554 2.85948,-6.099973 -0.0976,-0.165716 -0.78962,-0.237164 -1.55233,-0.160273 -1.06238,0.107101 -1.62513,0.374695 -2.46789,1.173519 -0.66477,0.630115 -1.64346,1.179396 -2.50261,1.404574 -0.776,0.203384 -2.10213,0.725743 -2.94697,1.160798 -1.25361,0.64556 -1.63764,1.031934 -2.08849,2.101271 -0.30383,0.720645 -0.50967,1.35081 -0.45744,1.400365 0.0523,0.04956 0.60571,0.374519 1.22993,0.72214 1.57765,0.878593 3.57383,0.829494 5.55753,-0.136699 z m 7.43601,-13.297932 c 1.72466,-1.288448 3.70851,-6.253291 2.49732,-6.249848 -1.00889,0.0028 -4.57512,3.242861 -4.9563,4.50289 -0.10142,0.335299 -0.49383,0.733058 -0.87201,0.883911 -0.9289,0.370533 -0.86503,0.718876 0.23796,1.297806 1.04424,0.548099 1.94733,0.421159 3.09303,-0.434759 z m -16.52184,-3.286747 c 0.56323,-0.150344 1.54987,-0.672984 2.19254,-1.161421 1.28864,-0.979388 1.69203,-2.179885 1.35877,-4.043713 -0.24924,-1.39383 -0.9129,-1.366114 -2.53389,0.105823 -0.7227,0.65625 -1.81009,1.294745 -2.52803,1.484414 -1.67732,0.443123 -2.28093,1.178118 -2.16657,2.638193 0.0727,0.928163 0.19162,1.131519 0.617,1.055087 0.34412,-0.06183 0.45527,0.02701 0.32036,0.256041 -0.21237,0.360527 0.43015,0.282099 2.73982,-0.334424 z"
       id="path2032" />
    <path
       style="fill:#c9fbff;fill-opacity:1;stroke-width:0;paint-order:fill markers stroke"
       d="m 140.0067,81.29575 c -0.20931,-0.264603 -0.23467,-0.448184 -0.0619,-0.448184 0.16092,0 0.61693,-0.580663 1.01335,-1.290363 1.16881,-2.092499 3.32036,-3.991255 3.32036,-2.930245 0,0.66297 -0.91636,2.872881 -1.63051,3.932172 -0.85473,1.267806 -1.97414,1.579995 -2.64128,0.73662 z"
       id="path2034" />
    <path
       style="fill:#c9fbff;fill-opacity:1;stroke-width:0;paint-order:fill markers stroke"
       d="m 123.15521,77.258326 c -0.13657,-1.502507 -0.0443,-1.660201 1.1281,-1.927088 0.5151,-0.117263 1.51438,-0.675962 2.22061,-1.241554 0.70623,-0.565591 1.40614,-0.949197 1.55533,-0.852459 0.38937,0.25248 0.31772,2.89087 -0.0938,3.453191 -0.48063,0.656779 -1.28765,1.054961 -2.62522,1.29526 -0.62652,0.112559 -1.34954,0.269156 -1.6067,0.347992 -0.36847,0.112959 -0.49105,-0.11495 -0.57834,-1.075342 z"
       id="path2036" />
    <path
       style="fill:#c9fbff;fill-opacity:1;stroke-width:0;paint-order:fill markers stroke"
       d="m 131.32075,94.932291 c -1.21913,-0.453129 -2.13589,-1.04973 -2.13589,-1.389977 0,-0.849837 1.31674,-2.358435 2.27828,-2.610239 0.54822,-0.143564 1.47216,-0.390979 2.05322,-0.549813 0.58104,-0.158834 1.6352,-0.752277 2.34255,-1.318763 1.40337,-1.123889 2.37956,-1.488358 2.94559,-1.099764 0.28169,0.193382 0.15817,0.718292 -0.54562,2.318586 -1.22997,2.796733 -1.87246,3.706531 -2.95159,4.179588 -1.14565,0.502224 -3.23697,0.748983 -3.98654,0.470382 z"
       id="path2038" />
  </g>
</svg>
