<?xml version="1.0" encoding="UTF-8" standalone="no"?>
<svg
   xmlns:dc="http://purl.org/dc/elements/1.1/"
   xmlns:cc="http://creativecommons.org/ns#"
   xmlns:rdf="http://www.w3.org/1999/02/22-rdf-syntax-ns#"
   xmlns:svg="http://www.w3.org/2000/svg"
   xmlns="http://www.w3.org/2000/svg"
   xmlns:sodipodi="http://sodipodi.sourceforge.net/DTD/sodipodi-0.dtd"
   xmlns:inkscape="http://www.inkscape.org/namespaces/inkscape"
   width="123.52277mm"
   height="112.38953mm"
   viewBox="0 0 123.52277 112.38953"
   version="1.1"
   id="svg8"
   inkscape:version="1.0.1 (3bc2e813f5, 2020-09-07)"
   sodipodi:docname="moon.svg">
  <defs
     id="defs2">
    <filter
       style="color-interpolation-filters:sRGB"
       inkscape:label="Drop Shadow"
       id="filter3351"
       x="-0.078873277"
       y="-0.051302552"
       width="1.1507043"
       height="1.1138431">
      <feFlood
         flood-opacity="1"
         flood-color="rgb(255,255,255)"
         result="flood"
         id="feFlood3341" />
      <feComposite
         in="flood"
         in2="SourceGraphic"
         operator="in"
         result="composite1"
         id="feComposite3343" />
      <feGaussianBlur
         in="composite1"
         stdDeviation="7.78443"
         result="blur"
         id="feGaussianBlur3345" />
      <feOffset
         dx="-1.79641"
         dy="-1.49701"
         result="offset"
         id="feOffset3347" />
      <feComposite
         in="SourceGraphic"
         in2="offset"
         operator="over"
         result="composite2"
         id="feComposite3349" />
    </filter>
    <filter
       style="color-interpolation-filters:sRGB"
       inkscape:label="Drop Shadow"
       id="filter4875">
      <feFlood
         flood-opacity="1"
         flood-color="rgb(255,255,255)"
         result="flood"
         id="feFlood4865" />
      <feComposite
         in="flood"
         in2="SourceGraphic"
         operator="in"
         result="composite1"
         id="feComposite4867" />
      <feGaussianBlur
         in="composite1"
         stdDeviation="1.4"
         result="blur"
         id="feGaussianBlur4869" />
      <feOffset
         dx="0"
         dy="0"
         result="offset"
         id="feOffset4871" />
      <feComposite
         in="SourceGraphic"
         in2="offset"
         operator="over"
         result="composite2"
         id="feComposite4873" />
    </filter>
    <filter
       style="color-interpolation-filters:sRGB"
       inkscape:label="Drop Shadow"
       id="filter4887">
      <feFlood
         flood-opacity="1"
         flood-color="rgb(255,255,255)"
         result="flood"
         id="feFlood4877" />
      <feComposite
         in="flood"
         in2="SourceGraphic"
         operator="in"
         result="composite1"
         id="feComposite4879" />
      <feGaussianBlur
         in="composite1"
         stdDeviation="1.4"
         result="blur"
         id="feGaussianBlur4881" />
      <feOffset
         dx="0"
         dy="0"
         result="offset"
         id="feOffset4883" />
      <feComposite
         in="SourceGraphic"
         in2="offset"
         operator="over"
         result="composite2"
         id="feComposite4885" />
    </filter>
    <filter
       style="color-interpolation-filters:sRGB"
       inkscape:label="Drop Shadow"
       id="filter4899">
      <feFlood
         flood-opacity="1"
         flood-color="rgb(255,255,255)"
         result="flood"
         id="feFlood4889" />
      <feComposite
         in="flood"
         in2="SourceGraphic"
         operator="in"
         result="composite1"
         id="feComposite4891" />
      <feGaussianBlur
         in="composite1"
         stdDeviation="1.4"
         result="blur"
         id="feGaussianBlur4893" />
      <feOffset
         dx="0"
         dy="0"
         result="offset"
         id="feOffset4895" />
      <feComposite
         in="SourceGraphic"
         in2="offset"
         operator="over"
         result="composite2"
         id="feComposite4897" />
    </filter>
  </defs>
  <sodipodi:namedview
     id="base"
     pagecolor="#170940"
     bordercolor="#666666"
     borderopacity="1.0"
     inkscape:pageopacity="0"
     inkscape:pageshadow="2"
     inkscape:zoom="0.7"
     inkscape:cx="36.681715"
     inkscape:cy="148.18375"
     inkscape:document-units="mm"
     inkscape:current-layer="layer1"
     inkscape:document-rotation="0"
     showgrid="false"
     inkscape:window-width="1819"
     inkscape:window-height="1528"
     inkscape:window-x="3932"
     inkscape:window-y="0"
     inkscape:window-maximized="0" />
  <metadata
     id="metadata5">
    <rdf:RDF>
      <cc:Work
         rdf:about="">
        <dc:format>image/svg+xml</dc:format>
        <dc:type
           rdf:resource="http://purl.org/dc/dcmitype/StillImage" />
        <dc:title />
      </cc:Work>
    </rdf:RDF>
  </metadata>
  <g
     inkscape:label="Layer 1"
     inkscape:groupmode="layer"
     id="layer1"
     transform="translate(-24.039361,-94.155364)">
    <path
       id="path833"
       style="opacity:1;fill:none;fill-opacity:1;stroke:#ffffff;stroke-width:6;stroke-miterlimit:4;stroke-dasharray:none;stroke-opacity:1;paint-order:stroke fill markers"
       d="m 186.42578,714.69141 a 41.428566,42.142855 0 0 0 0.11719,-0.18555 41.428566,42.142855 0 0 0 0.2832,-0.4668 41.428566,42.142855 0 0 0 0.27735,-0.4707 41.428566,42.142855 0 0 0 0.27148,-0.47266 41.428566,42.142855 0 0 0 0.26367,-0.47851 41.428566,42.142855 0 0 0 0.25977,-0.48047 41.428566,42.142855 0 0 0 0.25195,-0.48438 41.428566,42.142855 0 0 0 0.24609,-0.48828 41.428566,42.142855 0 0 0 0.24024,-0.49023 41.428566,42.142855 0 0 0 0.23437,-0.49414 41.428566,42.142855 0 0 0 0.22657,-0.4961 41.428566,42.142855 0 0 0 0.22265,-0.5 41.428566,42.142855 0 0 0 0.21289,-0.5039 41.428566,42.142855 0 0 0 0.20899,-0.50391 41.428566,42.142855 0 0 0 0.20117,-0.50976 41.428566,42.142855 0 0 0 0.19531,-0.50977 41.428566,42.142855 0 0 0 0.18945,-0.51367 41.428566,42.142855 0 0 0 0.18165,-0.51563 41.428566,42.142855 0 0 0 0.17578,-0.51953 41.428566,42.142855 0 0 0 0.16797,-0.51953 41.428566,42.142855 0 0 0 0.16406,-0.52344 41.428566,42.142855 0 0 0 0.1543,-0.52539 41.428566,42.142855 0 0 0 0.14843,-0.52734 41.428566,42.142855 0 0 0 0.14258,-0.52734 41.428566,42.142855 0 0 0 0.13477,-0.53126 41.428566,42.142855 0 0 0 0.1289,-0.5332 41.428566,42.142855 0 0 0 0.1211,-0.5332 41.428566,42.142855 0 0 0 0.11523,-0.53516 41.428566,42.142855 0 0 0 0.10742,-0.53711 41.428566,42.142855 0 0 0 0.10157,-0.53906 41.428566,42.142855 0 0 0 0.0937,-0.53906 41.428566,42.142855 0 0 0 0.0879,-0.54102 41.428566,42.142855 0 0 0 0.0801,-0.54297 41.428566,42.142855 0 0 0 0.0742,-0.54296 41.428566,42.142855 0 0 0 0.0664,-0.54297 41.428566,42.142855 0 0 0 0.0586,-0.54493 41.428566,42.142855 0 0 0 0.0527,-0.54687 41.428566,42.142855 0 0 0 0.0449,-0.54492 41.428566,42.142855 0 0 0 0.0391,-0.54688 41.428566,42.142855 0 0 0 0.0312,-0.54883 41.428566,42.142855 0 0 0 0.0254,-0.54687 41.428566,42.142855 0 0 0 0.0176,-0.54883 41.428566,42.142855 0 0 0 0.01,-0.54687 41.428566,42.142855 0 0 0 0.004,-0.54883 41.428566,42.142855 0 0 0 -0.002,-0.41211 41.428566,42.142855 0 0 0 -0.01,-0.54883 41.428566,42.142855 0 0 0 -0.0156,-0.54883 41.428566,42.142855 0 0 0 -0.0215,-0.54687 41.428566,42.142855 0 0 0 -0.0312,-0.54688 41.428566,42.142855 0 0 0 -0.0371,-0.54687 41.428566,42.142855 0 0 0 -0.043,-0.54688 41.428566,42.142855 0 0 0 -0.0508,-0.54492 41.428566,42.142855 0 0 0 -0.0586,-0.54492 41.428566,42.142855 0 0 0 -0.0644,-0.54492 41.428566,42.142855 0 0 0 -0.0703,-0.54297 41.428566,42.142855 0 0 0 -0.0801,-0.54297 41.428566,42.142855 0 0 0 -0.084,-0.54102 41.428566,42.142855 0 0 0 -0.0937,-0.54101 41.428566,42.142855 0 0 0 -0.0996,-0.53711 41.428566,42.142855 0 0 0 -0.10547,-0.53906 41.428566,42.142855 0 0 0 -0.11328,-0.53516 41.428566,42.142855 0 0 0 -0.11914,-0.53516 41.428566,42.142855 0 0 0 -0.12695,-0.5332 41.428566,42.142855 0 0 0 -0.13477,-0.5293 41.428566,42.142855 0 0 0 -0.13867,-0.52929 41.428566,42.142855 0 0 0 -0.14844,-0.52735 41.428566,42.142855 0 0 0 -0.15429,-0.52539 41.428566,42.142855 0 0 0 -0.16016,-0.52344 41.428566,42.142855 0 0 0 -0.16601,-0.52148 41.428566,42.142855 0 0 0 -0.17383,-0.51953 41.428566,42.142855 0 0 0 -0.18164,-0.51563 41.428566,42.142855 0 0 0 -0.1875,-0.51562 41.428566,42.142855 0 0 0 -0.19336,-0.51172 41.428566,42.142855 0 0 0 -0.19922,-0.50781 41.428566,42.142855 0 0 0 -0.20703,-0.50586 41.428566,42.142855 0 0 0 -0.21289,-0.50391 41.428566,42.142855 0 0 0 -0.21875,-0.5 41.428566,42.142855 0 0 0 -0.22657,-0.49804 41.428566,42.142855 0 0 0 -0.23242,-0.4961 41.428566,42.142855 0 0 0 -0.23828,-0.49023 41.428566,42.142855 0 0 0 -0.24609,-0.48828 41.428566,42.142855 0 0 0 -0.25,-0.48633 41.428566,42.142855 0 0 0 -0.25782,-0.48047 41.428566,42.142855 0 0 0 -0.26367,-0.47852 41.428566,42.142855 0 0 0 -0.26953,-0.47461 41.428566,42.142855 0 0 0 -0.27539,-0.4707 41.428566,42.142855 0 0 0 -0.28125,-0.46875 41.428566,42.142855 0 0 0 -0.28711,-0.46289 41.428566,42.142855 0 0 0 -0.29297,-0.46094 41.428566,42.142855 0 0 0 -0.29882,-0.45508 41.428566,42.142855 0 0 0 -0.30665,-0.45312 41.428566,42.142855 0 0 0 -0.31054,-0.44727 41.428566,42.142855 0 0 0 -0.31641,-0.44335 41.428566,42.142855 0 0 0 -0.32226,-0.43946 41.428566,42.142855 0 0 0 -0.32813,-0.43554 41.428566,42.142855 0 0 0 -0.33203,-0.42969 41.428566,42.142855 0 0 0 -0.33984,-0.42774 41.428566,42.142855 0 0 0 -0.34375,-0.42187 41.428566,42.142855 0 0 0 -0.34961,-0.41602 41.428566,42.142855 0 0 0 -0.35352,-0.41406 41.428566,42.142855 0 0 0 -0.36133,-0.40625 41.428566,42.142855 0 0 0 -0.36523,-0.4043 41.428566,42.142855 0 0 0 -0.36914,-0.39843 41.428566,42.142855 0 0 0 -0.37696,-0.39258 41.428566,42.142855 0 0 0 -0.38086,-0.38867 41.428566,42.142855 0 0 0 -0.38476,-0.38282 41.428566,42.142855 0 0 0 -0.39063,-0.3789 41.428566,42.142855 0 0 0 -0.39453,-0.3711 41.428566,42.142855 0 0 0 -0.40039,-0.36914 41.428566,42.142855 0 0 0 -0.40429,-0.36133 41.428566,42.142855 0 0 0 -0.40821,-0.35742 41.428566,42.142855 0 0 0 -0.41406,-0.35156 41.428566,42.142855 0 0 0 -0.41797,-0.3457 41.428566,42.142855 0 0 0 -0.42187,-0.33985 41.428566,42.142855 0 0 0 -0.42774,-0.33593 41.428566,42.142855 0 0 0 -0.42969,-0.32813 41.428566,42.142855 0 0 0 -0.43554,-0.32422 41.428566,42.142855 0 0 0 -0.43946,-0.3164 41.428566,42.142855 0 0 0 -0.44336,-0.3125 41.428566,42.142855 0 0 0 -0.44726,-0.30665 41.428566,42.142855 0 0 0 -0.45117,-0.29882 41.428566,42.142855 0 0 0 -0.45508,-0.29492 41.428566,42.142855 0 0 0 -0.45899,-0.28711 41.428566,42.142855 0 0 0 -0.46093,-0.28125 41.428566,42.142855 0 0 0 -0.4668,-0.2754 41.428566,42.142855 0 0 0 -0.46875,-0.26953 41.428566,42.142855 0 0 0 -0.47266,-0.26367 41.428566,42.142855 0 0 0 -0.47656,-0.25781 41.428566,42.142855 0 0 0 -0.47851,-0.25 41.428566,42.142855 0 0 0 -0.48243,-0.24414 41.428566,42.142855 0 0 0 -0.48632,-0.23828 41.428566,42.142855 0 0 0 -0.48828,-0.23047 41.428566,42.142855 0 0 0 -0.49219,-0.22461 41.428566,42.142855 0 0 0 -0.49414,-0.21875 41.428566,42.142855 0 0 0 -0.4961,-0.21289 41.428566,42.142855 0 0 0 -0.5,-0.20508 41.428566,42.142855 0 0 0 -0.50195,-0.19727 41.428566,42.142855 0 0 0 -0.50586,-0.19335 41.428566,42.142855 0 0 0 -0.50781,-0.18555 41.428566,42.142855 0 0 0 -0.50781,-0.17774 41.428566,42.142855 0 0 0 -0.51172,-0.17187 41.428566,42.142855 0 0 0 -0.51563,-0.16406 41.428566,42.142855 0 0 0 -0.51562,-0.15821 41.428566,42.142855 0 0 0 -0.51758,-0.15234 41.428566,42.142855 0 0 0 -0.51953,-0.14453 41.428566,42.142855 0 0 0 -0.52149,-0.13672 41.428566,42.142855 0 0 0 -0.52343,-0.13086 41.428566,42.142855 0 0 0 -0.5254,-0.125 41.428566,42.142855 0 0 0 -0.52734,-0.11523 41.428566,42.142855 0 0 0 -0.52734,-0.11133 41.428566,42.142855 0 0 0 -0.5293,-0.10156 41.428566,42.142855 0 0 0 -0.53125,-0.0957 41.428566,42.142855 0 0 0 -0.53125,-0.0898 41.428566,42.142855 0 0 0 -0.5332,-0.0801 41.428566,42.142855 0 0 0 -0.53321,-0.0762 41.428566,42.142855 0 0 0 -0.53515,-0.0664 41.428566,42.142855 0 0 0 -0.53516,-0.0605 41.428566,42.142855 0 0 0 -0.53711,-0.0547 41.428566,42.142855 0 0 0 -0.53711,-0.0449 41.428566,42.142855 0 0 0 -0.53711,-0.0391 41.428566,42.142855 0 0 0 -0.53711,-0.0332 41.428566,42.142855 0 0 0 -0.53906,-0.0254 41.428566,42.142855 0 0 0 -0.53906,-0.0176 41.428566,42.142855 0 0 0 -0.53906,-0.01 41.428566,42.142855 0 0 0 -0.53907,-0.004 41.428566,42.142855 0 0 0 -0.40429,0.002 41.428566,42.142855 0 0 0 -0.53906,0.01 41.428566,42.142855 0 0 0 -0.53907,0.0156 41.428566,42.142855 0 0 0 -0.53906,0.0234 41.428566,42.142855 0 0 0 -0.53711,0.0293 41.428566,42.142855 0 0 0 -0.53906,0.0371 41.428566,42.142855 0 0 0 -0.53711,0.0449 41.428566,42.142855 0 0 0 -0.53516,0.0527 41.428566,42.142855 0 0 0 -0.53711,0.0586 41.428566,42.142855 0 0 0 -0.53515,0.0644 41.428566,42.142855 0 0 0 -0.53321,0.0742 41.428566,42.142855 0 0 0 -0.5332,0.0801 41.428566,42.142855 0 0 0 -0.53125,0.0859 41.428566,42.142855 0 0 0 -0.53125,0.0938 41.428566,42.142855 0 0 0 -0.5293,0.10156 41.428566,42.142855 0 0 0 -0.52929,0.10742 41.428566,42.142855 0 0 0 -0.52735,0.11523 41.428566,42.142855 0 0 0 -0.52539,0.12305 41.428566,42.142855 0 0 0 -0.52343,0.12891 41.428566,42.142855 0 0 0 -0.52149,0.13476 41.428566,42.142855 0 0 0 -0.48633,0.13477 202.85714,197.36843 0 0 0 46.01172,63.17383 z"
       transform="scale(0.26458333)" />
    <path
       id="path866"
       style="opacity:1;fill:none;fill-opacity:1;stroke:#ffffff;stroke-width:6;stroke-miterlimit:4;stroke-dasharray:none;stroke-opacity:1;paint-order:stroke fill markers"
       d="m 435.41406,737.06445 a 91.428574,87.142862 0 0 0 0.008,-0.0937 91.428574,87.142862 0 0 0 0.0605,-0.77343 91.428574,87.142862 0 0 0 0.0547,-0.77344 91.428574,87.142862 0 0 0 0.0469,-0.77344 91.428574,87.142862 0 0 0 0.0391,-0.77539 91.428574,87.142862 0 0 0 0.0332,-0.77344 91.428574,87.142862 0 0 0 0.0254,-0.77539 91.428574,87.142862 0 0 0 0.0176,-0.77539 91.428574,87.142862 0 0 0 0.0117,-0.77539 91.428574,87.142862 0 0 0 0.004,-0.77539 91.428574,87.142862 0 0 0 -0.002,-0.41406 91.428574,87.142862 0 0 0 -0.008,-0.77539 91.428574,87.142862 0 0 0 -0.0137,-0.77539 91.428574,87.142862 0 0 0 -0.0215,-0.77539 91.428574,87.142862 0 0 0 -0.0293,-0.77539 91.428574,87.142862 0 0 0 -0.0371,-0.7754 91.428574,87.142862 0 0 0 -0.043,-0.77343 91.428574,87.142862 0 0 0 -0.0508,-0.77344 91.428574,87.142862 0 0 0 -0.0586,-0.77344 91.428574,87.142862 0 0 0 -0.0664,-0.77344 91.428574,87.142862 0 0 0 -0.0723,-0.77148 91.428574,87.142862 0 0 0 -0.0801,-0.77148 91.428574,87.142862 0 0 0 -0.0859,-0.77149 91.428574,87.142862 0 0 0 -0.0937,-0.76953 91.428574,87.142862 0 0 0 -0.10156,-0.76953 91.428574,87.142862 0 0 0 -0.10937,-0.76953 91.428574,87.142862 0 0 0 -0.11524,-0.76758 91.428574,87.142862 0 0 0 -0.12304,-0.76563 91.428574,87.142862 0 0 0 -0.12891,-0.76562 91.428574,87.142862 0 0 0 -0.13867,-0.76367 91.428574,87.142862 0 0 0 -0.14453,-0.76367 91.428574,87.142862 0 0 0 -0.15039,-0.76172 91.428574,87.142862 0 0 0 -0.15821,-0.76172 91.428574,87.142862 0 0 0 -0.16601,-0.75781 91.428574,87.142862 0 0 0 -0.17188,-0.75782 91.428574,87.142862 0 0 0 -0.17969,-0.75586 91.428574,87.142862 0 0 0 -0.1875,-0.75586 91.428574,87.142862 0 0 0 -0.19335,-0.75195 91.428574,87.142862 0 0 0 -0.20118,-0.75195 91.428574,87.142862 0 0 0 -0.20703,-0.75 91.428574,87.142862 0 0 0 -0.21484,-0.74805 91.428574,87.142862 0 0 0 -0.22266,-0.74609 91.428574,87.142862 0 0 0 -0.22851,-0.74414 91.428574,87.142862 0 0 0 -0.23633,-0.74219 91.428574,87.142862 0 0 0 -0.24219,-0.74024 91.428574,87.142862 0 0 0 -0.25,-0.73828 91.428574,87.142862 0 0 0 -0.25586,-0.73437 91.428574,87.142862 0 0 0 -0.26367,-0.73438 91.428574,87.142862 0 0 0 -0.26953,-0.73047 91.428574,87.142862 0 0 0 -0.27735,-0.73046 91.428574,87.142862 0 0 0 -0.2832,-0.72657 91.428574,87.142862 0 0 0 -0.29101,-0.72461 91.428574,87.142862 0 0 0 -0.29688,-0.7207 91.428574,87.142862 0 0 0 -0.30469,-0.71875 91.428574,87.142862 0 0 0 -0.31054,-0.7168 91.428574,87.142862 0 0 0 -0.31641,-0.71484 91.428574,87.142862 0 0 0 -0.32422,-0.71094 91.428574,87.142862 0 0 0 -0.33008,-0.70898 91.428574,87.142862 0 0 0 -0.33789,-0.70508 91.428574,87.142862 0 0 0 -0.34375,-0.70312 91.428574,87.142862 0 0 0 -0.34961,-0.69922 91.428574,87.142862 0 0 0 -0.35742,-0.69727 91.428574,87.142862 0 0 0 -0.36328,-0.69336 91.428574,87.142862 0 0 0 -0.37109,-0.6914 91.428574,87.142862 0 0 0 -0.375,-0.6875 91.428574,87.142862 0 0 0 -0.38282,-0.6836 91.428574,87.142862 0 0 0 -0.38867,-0.68164 91.428574,87.142862 0 0 0 -0.39648,-0.67773 91.428574,87.142862 0 0 0 -0.40039,-0.67383 91.428574,87.142862 0 0 0 -0.40821,-0.66992 91.428574,87.142862 0 0 0 -0.41406,-0.66797 91.428574,87.142862 0 0 0 -0.42187,-0.66406 91.428574,87.142862 0 0 0 -0.42578,-0.66016 91.428574,87.142862 0 0 0 -0.4336,-0.65625 91.428574,87.142862 0 0 0 -0.4375,-0.65234 91.428574,87.142862 0 0 0 -0.44531,-0.6504 91.428574,87.142862 0 0 0 -0.45117,-0.64453 91.428574,87.142862 0 0 0 -0.45703,-0.64257 91.428574,87.142862 0 0 0 -0.46289,-0.63672 91.428574,87.142862 0 0 0 -0.46876,-0.63477 91.428574,87.142862 0 0 0 -0.4746,-0.62891 91.428574,87.142862 0 0 0 -0.48047,-0.625 91.428574,87.142862 0 0 0 -0.48633,-0.62109 91.428574,87.142862 0 0 0 -0.49219,-0.61914 91.428574,87.142862 0 0 0 -0.49805,-0.61133 91.428574,87.142862 0 0 0 -0.5039,-0.60937 91.428574,87.142862 0 0 0 -0.50977,-0.60547 91.428574,87.142862 0 0 0 -0.51562,-0.59961 91.428574,87.142862 0 0 0 -0.51953,-0.5957 91.428574,87.142862 0 0 0 -0.52735,-0.5918 91.428574,87.142862 0 0 0 -0.53125,-0.58594 91.428574,87.142862 0 0 0 -0.53711,-0.58398 91.428574,87.142862 0 0 0 -0.54101,-0.57813 91.428574,87.142862 0 0 0 -0.54883,-0.57226 91.428574,87.142862 0 0 0 -0.55273,-0.56836 91.428574,87.142862 0 0 0 -0.5586,-0.56446 91.428574,87.142862 0 0 0 -0.56445,-0.55859 91.428574,87.142862 0 0 0 -0.56836,-0.55469 91.428574,87.142862 0 0 0 -0.57422,-0.54882 91.428574,87.142862 0 0 0 -0.57813,-0.54493 91.428574,87.142862 0 0 0 -0.58593,-0.53906 91.428574,87.142862 0 0 0 -0.58789,-0.53516 91.428574,87.142862 0 0 0 -0.59375,-0.52929 91.428574,87.142862 0 0 0 -0.59961,-0.52539 91.428574,87.142862 0 0 0 -0.60352,-0.51953 91.428574,87.142862 0 0 0 -0.60937,-0.51368 91.428574,87.142862 0 0 0 -0.61328,-0.50976 91.428574,87.142862 0 0 0 -0.61915,-0.50391 91.428574,87.142862 0 0 0 -0.62304,-0.49805 91.428574,87.142862 0 0 0 -0.62696,-0.49218 91.428574,87.142862 0 0 0 -0.63281,-0.48828 91.428574,87.142862 0 0 0 -0.63672,-0.48243 91.428574,87.142862 0 0 0 -0.64062,-0.47851 91.428574,87.142862 0 0 0 -0.64649,-0.4707 91.428574,87.142862 0 0 0 -0.65039,-0.4668 91.428574,87.142862 0 0 0 -0.65429,-0.46094 91.428574,87.142862 0 0 0 -0.65821,-0.45508 91.428574,87.142862 0 0 0 -0.66211,-0.44922 91.428574,87.142862 0 0 0 -0.66796,-0.44336 91.428574,87.142862 0 0 0 -0.66993,-0.43945 91.428574,87.142862 0 0 0 -0.67578,-0.43164 91.428574,87.142862 0 0 0 -0.67969,-0.42773 91.428574,87.142862 0 0 0 -0.68359,-0.41992 91.428574,87.142862 0 0 0 -0.6875,-0.41602 91.428574,87.142862 0 0 0 -0.68945,-0.4082 91.428574,87.142862 0 0 0 -0.69531,-0.4043 91.428574,87.142862 0 0 0 -0.69922,-0.39648 91.428574,87.142862 0 0 0 -0.70117,-0.39258 91.428574,87.142862 0 0 0 -0.70508,-0.38477 91.428574,87.142862 0 0 0 -0.71094,-0.38086 91.428574,87.142862 0 0 0 -0.71289,-0.37305 91.428574,87.142862 0 0 0 -0.71485,-0.36718 91.428574,87.142862 0 0 0 -0.7207,-0.36133 91.428574,87.142862 0 0 0 -0.72265,-0.35547 91.428574,87.142862 0 0 0 -0.72657,-0.34961 91.428574,87.142862 0 0 0 -0.73047,-0.3418 91.428574,87.142862 0 0 0 -0.73242,-0.33789 91.428574,87.142862 0 0 0 -0.73437,-0.33007 91.428574,87.142862 0 0 0 -0.74024,-0.32422 91.428574,87.142862 0 0 0 -0.74218,-0.31836 91.428574,87.142862 0 0 0 -0.74414,-0.3125 91.428574,87.142862 0 0 0 -0.74805,-0.30469 91.428574,87.142862 0 0 0 -0.75,-0.29883 91.428574,87.142862 0 0 0 -0.75391,-0.29297 91.428574,87.142862 0 0 0 -0.75586,-0.28711 91.428574,87.142862 0 0 0 -0.75781,-0.27929 91.428574,87.142862 0 0 0 -0.76172,-0.27344 91.428574,87.142862 0 0 0 -0.76367,-0.26758 91.428574,87.142862 0 0 0 -0.76758,-0.25976 91.428574,87.142862 0 0 0 -0.76758,-0.25391 91.428574,87.142862 0 0 0 -0.77148,-0.24805 91.428574,87.142862 0 0 0 -0.77344,-0.24023 91.428574,87.142862 0 0 0 -0.77539,-0.23438 91.428574,87.142862 0 0 0 -0.77734,-0.22656 91.428574,87.142862 0 0 0 -0.7793,-0.22266 91.428574,87.142862 0 0 0 -0.7832,-0.21484 91.428574,87.142862 0 0 0 -0.78321,-0.20703 91.428574,87.142862 0 0 0 -0.78515,-0.20117 91.428574,87.142862 0 0 0 -0.78711,-0.19531 91.428574,87.142862 0 0 0 -0.78906,-0.1875 91.428574,87.142862 0 0 0 -0.79102,-0.17969 91.428574,87.142862 0 0 0 -0.79297,-0.17578 91.428574,87.142862 0 0 0 -0.79492,-0.16797 91.428574,87.142862 0 0 0 -0.79492,-0.16016 91.428574,87.142862 0 0 0 -0.79883,-0.1543 91.428574,87.142862 0 0 0 -0.79688,-0.14843 91.428574,87.142862 0 0 0 -0.80078,-0.14063 91.428574,87.142862 0 0 0 -0.80078,-0.13281 91.428574,87.142862 0 0 0 -0.80273,-0.12695 91.428574,87.142862 0 0 0 -0.80469,-0.1211 91.428574,87.142862 0 0 0 -0.80469,-0.11328 91.428574,87.142862 0 0 0 -0.80469,-0.10547 91.428574,87.142862 0 0 0 -0.80664,-0.0996 91.428574,87.142862 0 0 0 -0.80859,-0.0937 91.428574,87.142862 0 0 0 -0.80859,-0.0859 91.428574,87.142862 0 0 0 -0.8086,-0.0801 91.428574,87.142862 0 0 0 -0.81054,-0.0723 91.428574,87.142862 0 0 0 -0.81055,-0.0645 91.428574,87.142862 0 0 0 -0.81055,-0.0586 91.428574,87.142862 0 0 0 -0.8125,-0.0527 91.428574,87.142862 0 0 0 -0.8125,-0.0449 91.428574,87.142862 0 0 0 -0.8125,-0.0371 91.428574,87.142862 0 0 0 -0.8125,-0.0312 91.428574,87.142862 0 0 0 -0.8125,-0.0234 91.428574,87.142862 0 0 0 -0.81445,-0.0176 91.428574,87.142862 0 0 0 -0.8125,-0.01 91.428574,87.142862 0 0 0 -0.81445,-0.004 91.428574,87.142862 0 0 0 -0.43555,0 91.428574,87.142862 0 0 0 -0.8125,0.008 91.428574,87.142862 0 0 0 -0.81445,0.0137 91.428574,87.142862 0 0 0 -0.8125,0.0215 91.428574,87.142862 0 0 0 -0.8125,0.0273 91.428574,87.142862 0 0 0 -0.8125,0.0352 91.428574,87.142862 0 0 0 -0.8125,0.041 91.428574,87.142862 0 0 0 -0.8125,0.0488 91.428574,87.142862 0 0 0 -0.81055,0.0547 91.428574,87.142862 0 0 0 -0.8125,0.0625 91.428574,87.142862 0 0 0 -0.80859,0.0703 91.428574,87.142862 0 0 0 -0.81055,0.0762 91.428574,87.142862 0 0 0 -0.80859,0.082 91.428574,87.142862 0 0 0 -0.8086,0.0898 91.428574,87.142862 0 0 0 -0.80664,0.0957 91.428574,87.142862 0 0 0 -0.80664,0.10352 91.428574,87.142862 0 0 0 -0.80469,0.11133 91.428574,87.142862 0 0 0 -0.80469,0.11719 91.428574,87.142862 0 0 0 -0.80273,0.12304 91.428574,87.142862 0 0 0 -0.80273,0.13086 91.428574,87.142862 0 0 0 -0.80078,0.13867 91.428574,87.142862 0 0 0 -0.79883,0.14258 91.428574,87.142862 0 0 0 -0.79688,0.15235 91.428574,87.142862 0 0 0 -0.79687,0.1582 91.428574,87.142862 0 0 0 -0.79492,0.16406 91.428574,87.142862 0 0 0 -0.79297,0.17188 91.428574,87.142862 0 0 0 -0.79297,0.17773 91.428574,87.142862 0 0 0 -0.78906,0.18359 91.428574,87.142862 0 0 0 -0.78907,0.19141 91.428574,87.142862 0 0 0 -0.78711,0.19922 91.428574,87.142862 0 0 0 -0.7832,0.20508 91.428574,87.142862 0 0 0 -0.7832,0.21093 91.428574,87.142862 0 0 0 -0.78125,0.2168 91.428574,87.142862 0 0 0 -0.7793,0.22461 91.428574,87.142862 0 0 0 -0.77539,0.23242 91.428574,87.142862 0 0 0 -0.77539,0.23828 91.428574,87.142862 0 0 0 -0.77149,0.24415 91.428574,87.142862 0 0 0 -0.76953,0.25 91.428574,87.142862 0 0 0 -0.76757,0.25781 91.428574,87.142862 0 0 0 -0.76368,0.26367 91.428574,87.142862 0 0 0 -0.76367,0.27148 91.428574,87.142862 0 0 0 -0.75976,0.27539 91.428574,87.142862 0 0 0 -0.75782,0.28321 91.428574,87.142862 0 0 0 -0.7539,0.29101 91.428574,87.142862 0 0 0 -0.75196,0.29493 91.428574,87.142862 0 0 0 -0.74804,0.30273 91.428574,87.142862 0 0 0 -0.74805,0.30859 91.428574,87.142862 0 0 0 -0.74219,0.31641 91.428574,87.142862 0 0 0 -0.74023,0.32031 91.428574,87.142862 0 0 0 -0.73828,0.32813 91.428574,87.142862 0 0 0 -0.73438,0.33398 91.428574,87.142862 0 0 0 -0.73047,0.33985 91.428574,87.142862 0 0 0 -0.72851,0.3457 91.428574,87.142862 0 0 0 -0.72461,0.35351 91.428574,87.142862 0 0 0 -0.72071,0.35743 91.428574,87.142862 0 0 0 -0.71679,0.36523 91.428574,87.142862 0 0 0 -0.71485,0.37109 91.428574,87.142862 0 0 0 -0.71093,0.37696 91.428574,87.142862 0 0 0 -0.70899,0.38281 91.428574,87.142862 0 0 0 -0.70312,0.38867 91.428574,87.142862 0 0 0 -0.69922,0.39453 91.428574,87.142862 0 0 0 -0.69727,0.40039 91.428574,87.142862 0 0 0 -0.69336,0.40821 91.428574,87.142862 0 0 0 -0.6875,0.41211 91.428574,87.142862 0 0 0 -0.68554,0.41796 91.428574,87.142862 0 0 0 -0.68164,0.42383 91.428574,87.142862 0 0 0 -0.67579,0.42969 91.428574,87.142862 0 0 0 -0.67382,0.43555 91.428574,87.142862 0 0 0 -0.66992,0.4414 91.428574,87.142862 0 0 0 -0.66407,0.44727 91.428574,87.142862 0 0 0 -0.66015,0.45312 91.428574,87.142862 0 0 0 -0.65625,0.45704 91.428574,87.142862 0 0 0 -0.65235,0.46289 91.428574,87.142862 0 0 0 -0.64844,0.4707 91.428574,87.142862 0 0 0 -0.64257,0.47461 91.428574,87.142862 0 0 0 -0.63867,0.48047 91.428574,87.142862 0 0 0 -0.63477,0.48437 91.428574,87.142862 0 0 0 -0.62891,0.49024 91.428574,87.142862 0 0 0 -0.625,0.49609 91.428574,87.142862 0 0 0 -0.62109,0.50195 91.428574,87.142862 0 0 0 -0.61523,0.50782 91.428574,87.142862 0 0 0 -0.61133,0.51171 91.428574,87.142862 0 0 0 -0.60743,0.51563 91.428574,87.142862 0 0 0 -0.60156,0.52344 91.428574,87.142862 0 0 0 -0.5957,0.52734 91.428574,87.142862 0 0 0 -0.5918,0.53125 91.428574,87.142862 0 0 0 -0.58594,0.53711 91.428574,87.142862 0 0 0 -0.58203,0.54297 91.428574,87.142862 0 0 0 -0.57617,0.54687 91.428574,87.142862 0 0 0 -0.57226,0.55274 91.428574,87.142862 0 0 0 -0.56446,0.55664 91.428574,87.142862 0 0 0 -0.5625,0.56055 91.428574,87.142862 0 0 0 -0.55468,0.5664 91.428574,87.142862 0 0 0 -0.55079,0.57227 91.428574,87.142862 0 0 0 -0.54492,0.57422 91.428574,87.142862 0 0 0 -0.53906,0.58203 91.428574,87.142862 0 0 0 -0.53516,0.58398 91.428574,87.142862 0 0 0 -0.52734,0.58985 91.428574,87.142862 0 0 0 -0.52344,0.59375 91.428574,87.142862 0 0 0 -0.51758,0.59765 91.428574,87.142862 0 0 0 -0.51171,0.60352 91.428574,87.142862 0 0 0 -0.50782,0.60547 91.428574,87.142862 0 0 0 -0.5,0.61132 91.428574,87.142862 0 0 0 -0.49414,0.61524 91.428574,87.142862 0 0 0 -0.49023,0.62109 91.428574,87.142862 0 0 0 -0.48242,0.62305 91.428574,87.142862 0 0 0 -0.47852,0.62695 91.428574,87.142862 0 0 0 -0.4707,0.63282 91.428574,87.142862 0 0 0 -0.4668,0.63476 91.428574,87.142862 0 0 0 -0.45898,0.64063 91.428574,87.142862 0 0 0 -0.45313,0.64257 91.428574,87.142862 0 0 0 -0.44922,0.64844 91.428574,87.142862 0 0 0 -0.4414,0.65039 91.428574,87.142862 0 0 0 -0.43555,0.6543 91.428574,87.142862 0 0 0 -0.42969,0.66015 91.428574,87.142862 0 0 0 -0.42187,0.66211 91.428574,87.142862 0 0 0 -0.41797,0.66602 91.428574,87.142862 0 0 0 -0.41016,0.66797 91.428574,87.142862 0 0 0 -0.4043,0.67383 91.428574,87.142862 0 0 0 -0.39843,0.67578 91.428574,87.142862 0 0 0 -0.39258,0.67969 91.428574,87.142862 0 0 0 -0.38477,0.68164 91.428574,87.142862 0 0 0 -0.38086,0.68554 91.428574,87.142862 0 0 0 -0.37304,0.68946 91.428574,87.142862 0 0 0 -0.36524,0.69336 91.428574,87.142862 0 0 0 -0.35937,0.69531 91.428574,87.142862 0 0 0 -0.35352,0.69726 91.428574,87.142862 0 0 0 -0.34765,0.70118 91.428574,87.142862 0 0 0 -0.33985,0.70507 91.428574,87.142862 0 0 0 -0.33398,0.70704 91.428574,87.142862 0 0 0 -0.32617,0.71093 91.428574,87.142862 0 0 0 -0.32032,0.71289 91.428574,87.142862 0 0 0 -0.31445,0.71485 91.428574,87.142862 0 0 0 -0.30664,0.71679 91.428574,87.142862 0 0 0 -0.30078,0.72071 91.428574,87.142862 0 0 0 -0.29297,0.72461 91.428574,87.142862 0 0 0 -0.28711,0.72461 91.428574,87.142862 0 0 0 -0.28125,0.72851 91.428574,87.142862 0 0 0 -0.27344,0.73047 91.428574,87.142862 0 0 0 -0.26562,0.73242 91.428574,87.142862 0 0 0 -0.25977,0.73438 91.428574,87.142862 0 0 0 -0.25195,0.73828 91.428574,87.142862 0 0 0 -0.24609,0.73828 91.428574,87.142862 0 0 0 -0.24024,0.74023 91.428574,87.142862 0 0 0 -0.23047,0.74414 91.428574,87.142862 0 0 0 -0.22656,0.74414 91.428574,87.142862 0 0 0 -0.2168,0.74805 91.428574,87.142862 0 0 0 -0.21093,0.74805 91.428574,87.142862 0 0 0 -0.20508,0.75195 91.428574,87.142862 0 0 0 -0.19727,0.75195 91.428574,87.142862 0 0 0 -0.18945,0.75391 91.428574,87.142862 0 0 0 -0.18359,0.75586 91.428574,87.142862 0 0 0 -0.17579,0.75586 91.428574,87.142862 0 0 0 -0.16797,0.75977 91.428574,87.142862 0 0 0 -0.1621,0.75976 91.428574,87.142862 0 0 0 -0.1543,0.75977 91.428574,87.142862 0 0 0 -0.14844,0.76367 91.428574,87.142862 0 0 0 -0.14062,0.76367 91.428574,87.142862 0 0 0 -0.13282,0.76367 91.428574,87.142862 0 0 0 -0.12695,0.76758 91.428574,87.142862 0 0 0 -0.11914,0.76563 91.428574,87.142862 0 0 0 -0.11133,0.76953 91.428574,87.142862 0 0 0 -0.10351,0.76758 91.428574,87.142862 0 0 0 -0.0977,0.76953 91.428574,87.142862 0 0 0 -0.0918,0.77148 91.428574,87.142862 0 0 0 -0.082,0.77149 91.428574,87.142862 0 0 0 -0.0762,0.77148 91.428574,87.142862 0 0 0 -0.0684,0.77344 91.428574,87.142862 0 0 0 -0.0625,0.77343 91.428574,87.142862 0 0 0 -0.0527,0.77344 91.428574,87.142862 0 0 0 -0.0469,0.77344 91.428574,87.142862 0 0 0 -0.041,0.77539 91.428574,87.142862 0 0 0 -0.0312,0.77344 91.428574,87.142862 0 0 0 -0.0254,0.77539 91.428574,87.142862 0 0 0 -0.0195,0.77539 91.428574,87.142862 0 0 0 -0.01,0.77539 91.428574,87.142862 0 0 0 -0.004,0.77539 91.428574,87.142862 0 0 0 0,0.41406 91.428574,87.142862 0 0 0 0.008,0.77539 91.428574,87.142862 0 0 0 0.0156,0.77539 91.428574,87.142862 0 0 0 0.0215,0.77539 91.428574,87.142862 0 0 0 0.0293,0.77539 91.428574,87.142862 0 0 0 0.0371,0.7754 91.428574,87.142862 0 0 0 0.043,0.77343 91.428574,87.142862 0 0 0 0.0508,0.77344 91.428574,87.142862 0 0 0 0.0586,0.77344 91.428574,87.142862 0 0 0 0.0645,0.77344 91.428574,87.142862 0 0 0 0.0723,0.77148 91.428574,87.142862 0 0 0 0.0801,0.77148 91.428574,87.142862 0 0 0 0.0879,0.77149 91.428574,87.142862 0 0 0 0.0937,0.76953 91.428574,87.142862 0 0 0 0.10156,0.76953 91.428574,87.142862 0 0 0 0.10743,0.76953 91.428574,87.142862 0 0 0 0.11718,0.76758 91.428574,87.142862 0 0 0 0.12305,0.76563 91.428574,87.142862 0 0 0 0.12891,0.76562 91.428574,87.142862 0 0 0 0.13672,0.76367 91.428574,87.142862 0 0 0 0.14453,0.76367 91.428574,87.142862 0 0 0 0.15234,0.76172 91.428574,87.142862 0 0 0 0.1582,0.76172 91.428574,87.142862 0 0 0 0.16602,0.75781 91.428574,87.142862 0 0 0 0.17187,0.75782 91.428574,87.142862 0 0 0 0.17969,0.75586 91.428574,87.142862 0 0 0 0.1875,0.75586 91.428574,87.142862 0 0 0 0.19336,0.75195 91.428574,87.142862 0 0 0 0.20117,0.75195 91.428574,87.142862 0 0 0 0.20703,0.75 91.428574,87.142862 0 0 0 0.21485,0.74805 91.428574,87.142862 0 0 0 0.22265,0.74609 91.428574,87.142862 0 0 0 0.22852,0.74414 91.428574,87.142862 0 0 0 0.23437,0.74219 91.428574,87.142862 0 0 0 0.24414,0.74024 91.428574,87.142862 0 0 0 0.14454,0.43164 c 21.78638,7.60447 44.87016,11.7813 68.42968,11.78125 40.45566,5e-5 78.05301,-11.65254 109.69922,-31.50782 z"
       transform="scale(0.26458333)" />
    <path
       id="path882"
       style="opacity:1;fill:none;fill-opacity:1;stroke:#ffffff;stroke-width:6;stroke-miterlimit:4;stroke-dasharray:none;stroke-opacity:1;paint-order:stroke fill markers;filter:url(#filter3351)"
       d="m 351.43164,375.42773 c 0.0105,0.0423 0.0209,0.0846 0.0312,0.12696 0.0461,0.19048 0.091,0.38123 0.13477,0.57226 0.0441,0.19114 0.0871,0.38255 0.1289,0.57422 0.0415,0.19181 0.0819,0.38387 0.1211,0.57617 0.0396,0.19247 0.078,0.38519 0.11523,0.57813 0.0376,0.19248 0.0741,0.38519 0.10938,0.57812 0.0344,0.19315 0.0676,0.38652 0.0996,0.58008 0.0331,0.19316 0.065,0.38653 0.0957,0.58008 0.0298,0.19383 0.0584,0.38785 0.0859,0.58203 0.0279,0.1945 0.0545,0.38916 0.0801,0.58399 0.0259,0.19451 0.0506,0.38917 0.0742,0.58398 0.0233,0.19518 0.0454,0.39049 0.0664,0.58594 0.0213,0.19453 0.0415,0.3892 0.0605,0.58398 0.0181,0.19586 0.035,0.39182 0.0508,0.58789 0.0168,0.19522 0.0324,0.39053 0.0469,0.58594 0.0135,0.19589 0.0259,0.39185 0.0371,0.58789 0.0122,0.19589 0.0233,0.39186 0.0332,0.58789 0.009,0.19591 0.0168,0.39188 0.0234,0.58789 0.007,0.19658 0.0129,0.3932 0.0176,0.58985 0.004,0.19594 0.008,0.39191 0.01,0.58789 0.002,0.1966 0.004,0.39322 0.004,0.58984 2e-5,0.14909 -5.8e-4,0.29818 -0.002,0.44727 -10e-4,0.19598 -0.004,0.39194 -0.008,0.58789 -0.004,0.19664 -0.009,0.39326 -0.0156,0.58984 -0.007,0.19601 -0.0145,0.39198 -0.0234,0.58789 -0.009,0.19602 -0.0184,0.39199 -0.0293,0.58789 -0.0112,0.19604 -0.0236,0.392 -0.0371,0.58789 -0.0138,0.19605 -0.0288,0.39202 -0.0449,0.58789 -0.0158,0.19542 -0.0327,0.39073 -0.0508,0.58594 -0.0177,0.19543 -0.0366,0.39074 -0.0566,0.58594 -0.021,0.19479 -0.0431,0.38946 -0.0664,0.58398 -0.0223,0.19546 -0.0457,0.39077 -0.0703,0.58594 -0.0255,0.19417 -0.0522,0.38819 -0.0801,0.58203 -0.0275,0.19483 -0.0561,0.38951 -0.0859,0.58398 -0.0294,0.19355 -0.06,0.38691 -0.0918,0.58008 -0.0321,0.19356 -0.0653,0.38693 -0.0996,0.58008 -0.034,0.19357 -0.0692,0.38694 -0.10547,0.58008 -0.0366,0.19229 -0.0744,0.38435 -0.11328,0.57617 -0.0392,0.1923 -0.0796,0.38436 -0.12109,0.57617 -0.0412,0.19167 -0.0835,0.38308 -0.12695,0.57422 -0.0431,0.19168 -0.0874,0.38309 -0.13282,0.57422 -0.0457,0.19039 -0.0926,0.3805 -0.14062,0.57031 -0.0484,0.19041 -0.0978,0.38052 -0.14844,0.57032 -0.0503,0.18911 -0.10175,0.37792 -0.1543,0.5664 -0.0523,0.18913 -0.10564,0.37794 -0.16015,0.56641 -0.0549,0.18849 -0.11086,0.37665 -0.16797,0.56445 -0.0575,0.18721 -0.11608,0.37406 -0.17578,0.56055 -0.0588,0.18721 -0.11868,0.37407 -0.17969,0.56054 -0.0614,0.18593 -0.1239,0.37149 -0.1875,0.55665 -0.064,0.18529 -0.12911,0.37019 -0.19531,0.55468 -0.066,0.18466 -0.13302,0.36891 -0.20117,0.55274 -0.0679,0.18337 -0.13694,0.36631 -0.20704,0.54883 -0.0705,0.18273 -0.14214,0.36502 -0.21484,0.54687 -0.0725,0.18209 -0.14605,0.36373 -0.2207,0.54492 -0.0744,0.18145 -0.14996,0.36245 -0.22656,0.54297 -0.0764,0.17951 -0.15389,0.35855 -0.23243,0.53711 -0.079,0.17953 -0.15909,0.35857 -0.24023,0.53711 -0.081,0.17824 -0.163,0.35597 -0.24609,0.5332 -0.0829,0.17695 -0.16693,0.35338 -0.25196,0.5293 -0.0855,0.17631 -0.17213,0.3521 -0.25976,0.52734 -0.0875,0.17502 -0.17605,0.34951 -0.26563,0.52344 -0.0895,0.17373 -0.17996,0.34691 -0.27148,0.51953 -0.0914,0.17309 -0.18387,0.34562 -0.27735,0.51758 -0.0934,0.1718 -0.18778,0.34303 -0.2832,0.51367 -0.0953,0.17051 -0.1917,0.34044 -0.28906,0.50977 -0.098,0.16923 -0.19692,0.33785 -0.29688,0.50586 -0.0993,0.16858 -0.19952,0.33655 -0.30078,0.5039 -0.10187,0.16665 -0.20474,0.33267 -0.30859,0.49805 -0.10318,0.166 -0.20735,0.33137 -0.3125,0.49609 -0.1058,0.16407 -0.21257,0.32748 -0.32031,0.49024 -0.1071,0.16342 -0.21518,0.32619 -0.32422,0.48828 -0.10972,0.16149 -0.2204,0.3223 -0.33203,0.48242 -0.11103,0.16019 -0.22301,0.3197 -0.33594,0.47852 -0.11363,0.15956 -0.22822,0.31842 -0.34375,0.47656 -0.11496,0.15696 -0.23085,0.31321 -0.34766,0.46875 -0.11691,0.15632 -0.23475,0.31193 -0.35351,0.4668 -0.11887,0.15503 -0.23867,0.30933 -0.35938,0.46289 -0.12084,0.15309 -0.24258,0.30544 -0.36523,0.45703 -0.12215,0.15179 -0.2452,0.30284 -0.36914,0.45312 -0.12476,0.15051 -0.25041,0.30026 -0.37696,0.44922 -0.12607,0.14857 -0.25303,0.29636 -0.38086,0.44336 -0.12739,0.14662 -0.25564,0.29245 -0.38476,0.4375 -0.12999,0.14599 -0.26085,0.29118 -0.39258,0.43555 -0.13131,0.14404 -0.26347,0.28727 -0.39648,0.42969 -0.13262,0.14209 -0.2661,0.28337 -0.40039,0.42382 -0.13523,0.14081 -0.27131,0.28079 -0.40821,0.41993 -0.1359,0.13886 -0.27261,0.27688 -0.41015,0.41406 -0.13786,0.13757 -0.27653,0.2743 -0.41602,0.41015 -0.13982,0.13563 -0.28045,0.2704 -0.42188,0.4043 -0.14113,0.13368 -0.28306,0.2665 -0.42578,0.39844 -0.1431,0.13174 -0.28698,0.26261 -0.43164,0.39258 -0.14441,0.13045 -0.28959,0.26001 -0.43554,0.38867 -0.14573,0.1285 -0.29222,0.25611 -0.43946,0.38281 -0.14768,0.12722 -0.29612,0.25352 -0.44531,0.37891 -0.149,0.12462 -0.29875,0.24832 -0.44922,0.37109 -0.15031,0.12333 -0.30135,0.24572 -0.45312,0.36719 -0.15163,0.12138 -0.30397,0.24182 -0.45703,0.36133 -0.15359,0.11944 -0.30789,0.23793 -0.4629,0.35547 -0.15424,0.11749 -0.3092,0.23403 -0.46484,0.34961 -0.15622,0.11555 -0.31312,0.23013 -0.4707,0.34375 -0.15753,0.1136 -0.31574,0.22623 -0.47461,0.33789 -0.15885,0.11166 -0.31836,0.22234 -0.47852,0.33203 -0.16016,0.10971 -0.32097,0.21844 -0.48242,0.32617 -0.16147,0.10777 -0.32359,0.21454 -0.48633,0.32031 -0.16278,0.10582 -0.3262,0.21065 -0.49023,0.31445 -0.1641,0.10323 -0.32882,0.20545 -0.49414,0.30665 -0.16477,0.10193 -0.33013,0.20284 -0.4961,0.30273 -0.16672,0.1 -0.33404,0.19895 -0.50195,0.29688 -0.16739,0.0974 -0.33537,0.19374 -0.5039,0.28906 -0.16871,0.0954 -0.33799,0.18984 -0.50782,0.2832 -0.16937,0.0935 -0.33929,0.18594 -0.50976,0.27734 -0.17133,0.0916 -0.34321,0.18205 -0.51563,0.27149 -0.172,0.0889 -0.34453,0.17684 -0.51758,0.26367 -0.17266,0.0876 -0.34584,0.17425 -0.51953,0.25977 -0.17398,0.0844 -0.34847,0.16774 -0.52344,0.25 -0.17528,0.0831 -0.35107,0.16514 -0.52734,0.24609 -0.17596,0.0805 -0.3524,0.15994 -0.5293,0.23828 -0.17727,0.0786 -0.35501,0.15604 -0.5332,0.23242 -0.17794,0.0766 -0.35632,0.15215 -0.53516,0.22657 -0.17859,0.074 -0.35763,0.14693 -0.5371,0.21875 -0.17992,0.0721 -0.36026,0.14304 -0.54102,0.21289 -0.18058,0.0695 -0.36157,0.13783 -0.54297,0.20507 -0.18124,0.0675 -0.36289,0.13393 -0.54492,0.19922 -0.18191,0.0656 -0.3642,0.13003 -0.54688,0.19336 -0.18322,0.063 -0.36682,0.12483 -0.55078,0.18555 -0.18324,0.0604 -0.36684,0.11961 -0.55078,0.17773 -0.18455,0.0591 -0.36945,0.11703 -0.55469,0.17383 -0.18457,0.0558 -0.36946,0.11051 -0.55468,0.16406 -0.18588,0.0539 -0.37209,0.10662 -0.5586,0.15821 -0.18654,0.0519 -0.37339,0.10271 -0.56054,0.15234 -0.18656,0.0493 -0.37342,0.0975 -0.56055,0.14453 -0.18788,0.0467 -0.37603,0.0923 -0.56445,0.13672 -0.18789,0.0448 -0.37605,0.0884 -0.56446,0.13086 -0.18855,0.0428 -0.37735,0.0845 -0.5664,0.125 -0.18922,0.0402 -0.37868,0.0793 -0.56836,0.11719 -0.18923,0.0376 -0.37869,0.0741 -0.56836,0.10937 -0.1899,0.035 -0.38001,0.0689 -0.57031,0.10157 -0.19056,0.0337 -0.38132,0.0663 -0.57227,0.0976 -0.19058,0.0305 -0.38134,0.0598 -0.57227,0.0879 -0.19124,0.0285 -0.38265,0.0559 -0.57421,0.082 -0.19126,0.0259 -0.38267,0.0507 -0.57422,0.0742 -0.19192,0.024 -0.38399,0.0468 -0.57618,0.0684 -0.19192,0.0214 -0.38399,0.0416 -0.57617,0.0606 -0.19195,0.0188 -0.38401,0.0363 -0.57617,0.0527 -0.19261,0.0168 -0.38532,0.0324 -0.57812,0.0469 -0.19263,0.0142 -0.38534,0.0272 -0.57813,0.0391 -0.19264,0.0116 -0.38535,0.022 -0.57812,0.0312 -0.19266,0.01 -0.38537,0.0181 -0.57813,0.0254 -0.19332,0.007 -0.38669,0.0129 -0.58008,0.0176 -0.19269,0.004 -0.3854,0.008 -0.57812,0.01 -0.19335,0.002 -0.38671,0.004 -0.58008,0.004 -0.14649,3e-5 -0.29297,-5.7e-4 -0.43945,-0.002 -0.19337,-0.001 -0.38674,-0.004 -0.58008,-0.008 -0.19274,-0.005 -0.38546,-0.0105 -0.57813,-0.0176 -0.1934,-0.007 -0.38676,-0.0144 -0.58007,-0.0234 -0.19277,-0.009 -0.38548,-0.0183 -0.57813,-0.0293 -0.19278,-0.0112 -0.38549,-0.0236 -0.57812,-0.0371 -0.1928,-0.0138 -0.38551,-0.0288 -0.57813,-0.0449 -0.19216,-0.0157 -0.38422,-0.0327 -0.57617,-0.0508 -0.19218,-0.019 -0.38424,-0.0392 -0.57617,-0.0606 -0.19218,-0.0203 -0.38425,-0.0418 -0.57617,-0.0644 -0.19155,-0.0236 -0.38296,-0.0483 -0.57422,-0.0742 -0.19156,-0.0255 -0.38297,-0.0522 -0.57422,-0.0801 -0.19093,-0.0275 -0.38169,-0.0561 -0.57227,-0.0859 -0.19094,-0.0301 -0.38169,-0.0614 -0.57226,-0.0937 -0.19031,-0.0327 -0.38042,-0.0665 -0.57032,-0.10157 -0.19032,-0.0353 -0.38043,-0.0717 -0.57031,-0.10937 -0.18968,-0.0366 -0.37913,-0.0744 -0.56836,-0.11328 -0.18904,-0.0399 -0.37785,-0.0809 -0.5664,-0.12305 -0.18841,-0.0418 -0.37656,-0.0848 -0.56446,-0.12891 -0.18842,-0.0444 -0.37657,-0.09 -0.56445,-0.13671 -0.18778,-0.0464 -0.37528,-0.0939 -0.5625,-0.14258 -0.18715,-0.049 -0.374,-0.0991 -0.56055,-0.15039 -0.18651,-0.0509 -0.37271,-0.10302 -0.55859,-0.15625 -0.18587,-0.0535 -0.37142,-0.10824 -0.55664,-0.16407 -0.18458,-0.0555 -0.36883,-0.11215 -0.55274,-0.16992 -0.18459,-0.0581 -0.36884,-0.11735 -0.55273,-0.17773 -0.18396,-0.0601 -0.36755,-0.12127 -0.55078,-0.1836 -0.18332,-0.0627 -0.36627,-0.12647 -0.54883,-0.1914 -0.18203,-0.0646 -0.36367,-0.1304 -0.54492,-0.19727 -0.18139,-0.0666 -0.36238,-0.1343 -0.54297,-0.20312 -0.18076,-0.0692 -0.3611,-0.13952 -0.54102,-0.21094 -0.18012,-0.0718 -0.35981,-0.14473 -0.53906,-0.21875 -0.17883,-0.0738 -0.35722,-0.14864 -0.53516,-0.22461 -0.17818,-0.0757 -0.35593,-0.15255 -0.5332,-0.23047 -0.17755,-0.0777 -0.35464,-0.15646 -0.53125,-0.23633 -0.17626,-0.0803 -0.35205,-0.16168 -0.52734,-0.24414 -0.17497,-0.0823 -0.34946,-0.1656 -0.52344,-0.25 -0.17434,-0.0849 -0.34817,-0.1708 -0.52148,-0.25781 -0.17304,-0.0862 -0.34557,-0.17342 -0.51758,-0.26172 -0.17241,-0.0888 -0.34429,-0.17863 -0.51563,-0.26953 -0.17112,-0.0908 -0.34169,-0.18255 -0.51172,-0.27539 -0.17048,-0.0933 -0.34041,-0.18775 -0.50976,-0.2832 -0.16854,-0.0947 -0.33651,-0.19038 -0.50391,-0.28711 -0.1679,-0.0973 -0.33522,-0.19558 -0.50195,-0.29492 -0.16661,-0.0992 -0.33263,-0.19951 -0.49805,-0.30079 -0.16532,-0.1012 -0.33004,-0.20341 -0.49414,-0.30664 -0.16468,-0.10315 -0.32875,-0.20732 -0.49219,-0.3125 -0.16274,-0.10577 -0.32485,-0.21254 -0.48632,-0.32031 -0.16145,-0.10708 -0.32226,-0.21516 -0.48243,-0.32422 -0.16081,-0.10904 -0.32096,-0.21907 -0.48046,-0.33008 -0.15887,-0.111 -0.31707,-0.22298 -0.47461,-0.33593 -0.15824,-0.11361 -0.31579,-0.2282 -0.47266,-0.34375 -0.15629,-0.11493 -0.31189,-0.23082 -0.4668,-0.34766 -0.155,-0.11689 -0.3093,-0.23474 -0.46289,-0.35351 -0.15371,-0.11885 -0.3067,-0.23865 -0.45898,-0.35938 -0.15177,-0.12081 -0.30281,-0.24256 -0.45313,-0.36523 -0.15113,-0.12277 -0.30152,-0.24647 -0.45117,-0.3711 -0.14918,-0.12474 -0.29762,-0.25039 -0.44531,-0.37695 -0.14789,-0.12605 -0.29503,-0.253 -0.44141,-0.38086 -0.14594,-0.12801 -0.29113,-0.25692 -0.43554,-0.38672 -0.14531,-0.12997 -0.28985,-0.26083 -0.4336,-0.39258 -0.14272,-0.13194 -0.28464,-0.26476 -0.42578,-0.39844 -0.14207,-0.13323 -0.28335,-0.26736 -0.42383,-0.40234 -0.13948,-0.13521 -0.27815,-0.27128 -0.41601,-0.4082 -0.13885,-0.13717 -0.27687,-0.27519 -0.41407,-0.41406 -0.13624,-0.13849 -0.27166,-0.27782 -0.40625,-0.41797 -0.13561,-0.14044 -0.27037,-0.28172 -0.40429,-0.42383 -0.13301,-0.14177 -0.26518,-0.28435 -0.39649,-0.42774 -0.13172,-0.14372 -0.26259,-0.28826 -0.39257,-0.43359 -0.13043,-0.14503 -0.25999,-0.29087 -0.38868,-0.4375 -0.12783,-0.147 -0.25479,-0.29479 -0.38086,-0.44336 -0.12654,-0.14831 -0.25219,-0.2974 -0.37695,-0.44726 -0.12459,-0.14963 -0.24829,-0.30003 -0.37109,-0.45118 -0.1233,-0.15159 -0.2457,-0.30393 -0.36719,-0.45703 -0.12071,-0.15291 -0.2405,-0.30656 -0.35938,-0.46094 -0.11941,-0.15421 -0.2379,-0.30917 -0.35546,-0.46484 -0.11746,-0.15553 -0.234,-0.31179 -0.34961,-0.46875 -0.11553,-0.1575 -0.23011,-0.3157 -0.34375,-0.47461 -0.11358,-0.15881 -0.22621,-0.31832 -0.33789,-0.47851 -0.11229,-0.16012 -0.22362,-0.32094 -0.33399,-0.48243 -0.10969,-0.16144 -0.21841,-0.32355 -0.32617,-0.48632 -0.10774,-0.16276 -0.21451,-0.32617 -0.32031,-0.49024 -0.10645,-0.16406 -0.21192,-0.32878 -0.31641,-0.49414 -0.10385,-0.16538 -0.20672,-0.3314 -0.30859,-0.49805 -0.10191,-0.16669 -0.20282,-0.33401 -0.30274,-0.50195 -0.0999,-0.16736 -0.19891,-0.33534 -0.29687,-0.5039 -0.098,-0.16932 -0.19503,-0.33925 -0.29102,-0.50977 -0.0961,-0.16999 -0.19112,-0.34056 -0.28515,-0.51172 -0.0941,-0.17195 -0.18723,-0.34448 -0.2793,-0.51758 -0.0922,-0.17261 -0.18333,-0.34579 -0.27344,-0.51953 -0.0896,-0.17328 -0.17811,-0.34711 -0.26562,-0.52148 -0.0883,-0.17524 -0.17553,-0.35103 -0.26172,-0.52735 -0.0857,-0.17591 -0.17032,-0.35234 -0.25391,-0.52929 -0.0837,-0.17657 -0.16642,-0.35366 -0.24805,-0.53125 -0.0811,-0.17789 -0.16122,-0.35628 -0.24023,-0.53516 -0.0799,-0.1792 -0.15863,-0.35889 -0.23633,-0.53906 -0.0772,-0.17987 -0.15341,-0.36021 -0.22851,-0.54102 -0.0746,-0.18054 -0.14822,-0.36153 -0.22071,-0.54297 -0.0734,-0.18184 -0.14561,-0.36414 -0.21679,-0.54687 -0.0708,-0.18251 -0.14042,-0.36546 -0.20899,-0.54883 -0.0682,-0.18383 -0.13521,-0.36808 -0.20117,-0.55273 -0.0669,-0.18449 -0.13262,-0.36939 -0.19727,-0.55469 -0.0643,-0.18516 -0.12741,-0.37071 -0.18945,-0.55664 -0.0616,-0.18583 -0.1222,-0.37203 -0.18164,-0.5586 -0.0597,-0.18648 -0.1183,-0.37333 -0.17578,-0.56054 -0.0578,-0.18715 -0.1144,-0.37465 -0.16992,-0.5625 -0.0552,-0.18847 -0.1092,-0.37728 -0.16211,-0.56641 -0.0532,-0.18848 -0.10529,-0.37729 -0.15625,-0.56641 -0.0506,-0.1898 -0.10009,-0.3799 -0.14844,-0.57031 -0.0487,-0.18981 -0.0962,-0.37992 -0.14258,-0.57031 -0.0467,-0.19047 -0.0923,-0.38123 -0.13672,-0.57227 -0.0435,-0.19114 -0.0858,-0.38256 -0.12695,-0.57421 -0.0422,-0.19181 -0.0832,-0.38387 -0.12305,-0.57618 -0.0395,-0.19182 -0.078,-0.38388 -0.11523,-0.57617 -0.0369,-0.19248 -0.0728,-0.38519 -0.10742,-0.57812 -0.035,-0.19315 -0.0689,-0.38651 -0.10157,-0.58008 -0.0324,-0.19382 -0.0636,-0.38783 -0.0937,-0.58203 -0.0304,-0.19383 -0.0598,-0.38784 -0.0879,-0.58203 -0.0278,-0.19385 -0.0545,-0.38786 -0.0801,-0.58204 -0.0259,-0.19451 -0.0506,-0.38917 -0.0742,-0.58398 -0.0233,-0.19518 -0.0454,-0.39049 -0.0664,-0.58594 -0.0207,-0.19519 -0.0402,-0.39051 -0.0586,-0.58593 -0.0187,-0.1952 -0.0363,-0.39052 -0.0527,-0.58594 -0.0161,-0.19587 -0.0311,-0.39184 -0.0449,-0.58789 -0.0142,-0.19588 -0.0272,-0.39185 -0.0391,-0.58789 -0.0116,-0.1959 -0.0221,-0.39186 -0.0312,-0.58789 -0.01,-0.19591 -0.0181,-0.39189 -0.0254,-0.58789 -0.007,-0.19593 -0.0129,-0.3919 -0.0176,-0.5879 -0.004,-0.19659 -0.008,-0.39321 -0.01,-0.58984 -0.002,-0.19595 -0.004,-0.39192 -0.004,-0.58789 -2.6e-4,-0.0924 -2.6e-4,-0.18489 0,-0.27734 10e-4,-0.19598 0.004,-0.39194 0.008,-0.58789 0.003,-0.19664 0.008,-0.39326 0.0137,-0.58985 0.004,-0.10743 0.007,-0.21485 0.0117,-0.32226 -17.46119,6.09857 -33.66232,14.36611 -48.32951,24.42381 -53.01463,36.35365 -85.98877,96.09532 -85.98885,161.3379 4.9e-4,27.67295 5.98213,55.03652 17.55664,80.31446 0.16184,-0.0459 0.32395,-0.0908 0.48633,-0.13477 0.17354,-0.0461 0.34738,-0.091 0.52149,-0.13476 0.17419,-0.0441 0.34868,-0.0871 0.52343,-0.12891 0.17487,-0.0422 0.35,-0.0832 0.52539,-0.12305 0.17554,-0.0396 0.35132,-0.078 0.52735,-0.11523 0.1762,-0.037 0.35263,-0.0728 0.52929,-0.10742 0.17622,-0.035 0.35265,-0.0689 0.5293,-0.10156 0.17688,-0.0324 0.35397,-0.0637 0.53125,-0.0938 0.1769,-0.0298 0.35399,-0.0585 0.53125,-0.0859 0.17756,-0.0279 0.3553,-0.0546 0.5332,-0.0801 0.17758,-0.0259 0.35532,-0.0507 0.53321,-0.0742 0.17824,-0.0227 0.35663,-0.0443 0.53515,-0.0644 0.17891,-0.0207 0.35795,-0.0403 0.53711,-0.0586 0.17827,-0.0187 0.35666,-0.0363 0.53516,-0.0527 0.17894,-0.0162 0.35798,-0.0311 0.53711,-0.0449 0.17961,-0.0136 0.3593,-0.0259 0.53906,-0.0371 0.17897,-0.0109 0.35801,-0.0207 0.53711,-0.0293 0.17963,-0.009 0.35933,-0.0168 0.53906,-0.0234 0.17965,-0.006 0.35935,-0.0116 0.53907,-0.0156 0.17965,-0.004 0.35935,-0.008 0.53906,-0.01 0.13476,-10e-4 0.26952,-0.002 0.40429,-0.002 0.1797,1.1e-4 0.35939,9.1e-4 0.53907,0.004 0.17971,0.002 0.3594,0.005 0.53906,0.01 0.17972,0.005 0.35941,0.0105 0.53906,0.0176 0.17974,0.007 0.35943,0.0157 0.53906,0.0254 0.17911,0.01 0.35815,0.0209 0.53711,0.0332 0.17912,0.0118 0.35816,0.0249 0.53711,0.0391 0.17913,0.0138 0.35817,0.0288 0.53711,0.0449 0.17915,0.017 0.35819,0.0353 0.53711,0.0547 0.17851,0.019 0.3569,0.0392 0.53516,0.0605 0.17852,0.021 0.35691,0.0431 0.53515,0.0664 0.1779,0.0242 0.35564,0.0496 0.53321,0.0762 0.1779,0.0255 0.35564,0.0522 0.5332,0.0801 0.17727,0.0288 0.35436,0.0587 0.53125,0.0898 0.17729,0.0307 0.35437,0.0626 0.53125,0.0957 0.17665,0.0327 0.35308,0.0665 0.5293,0.10156 0.17602,0.036 0.3518,0.0731 0.52734,0.11133 0.17602,0.0372 0.35182,0.0757 0.52734,0.11523 0.1754,0.0405 0.35054,0.0822 0.5254,0.125 0.17475,0.0425 0.34923,0.0861 0.52343,0.13086 0.17412,0.0444 0.34795,0.09 0.52149,0.13672 0.17348,0.047 0.34666,0.0952 0.51953,0.14453 0.17285,0.0496 0.34538,0.10042 0.51758,0.15234 0.17221,0.0516 0.34409,0.10434 0.51562,0.15821 0.17223,0.0535 0.34411,0.10823 0.51563,0.16406 0.17094,0.0562 0.34151,0.11345 0.51172,0.17187 0.16965,0.0581 0.33892,0.11738 0.50781,0.17774 0.16966,0.0607 0.33894,0.12258 0.50781,0.18555 0.16903,0.0633 0.33766,0.12779 0.50586,0.19335 0.16773,0.0647 0.33505,0.13041 0.50195,0.19727 0.1671,0.0673 0.33377,0.13562 0.5,0.20508 0.16582,0.0699 0.33119,0.14083 0.4961,0.21289 0.16518,0.0718 0.32989,0.14474 0.49414,0.21875 0.16454,0.0738 0.32861,0.14865 0.49219,0.22461 0.16324,0.0758 0.32601,0.15257 0.48828,0.23047 0.16261,0.0784 0.32472,0.15778 0.48632,0.23828 0.16133,0.0803 0.32214,0.1617 0.48243,0.24414 0.16003,0.0823 0.31954,0.16561 0.47851,0.25 0.1594,0.0849 0.31826,0.17082 0.47656,0.25781 0.15811,0.0868 0.31567,0.17474 0.47266,0.26367 0.15682,0.0888 0.31308,0.17866 0.46875,0.26953 0.15619,0.0908 0.31179,0.18257 0.4668,0.2754 0.15424,0.0927 0.3079,0.18649 0.46093,0.28125 0.15361,0.0947 0.30661,0.1904 0.45899,0.28711 0.15232,0.0973 0.30402,0.19561 0.45508,0.29492 0.15102,0.0986 0.30142,0.19823 0.45117,0.29882 0.14974,0.10123 0.29884,0.20345 0.44726,0.30665 0.14845,0.10319 0.29624,0.20736 0.44336,0.3125 0.14716,0.1045 0.29365,0.20997 0.43946,0.3164 0.14587,0.10711 0.29105,0.21519 0.43554,0.32422 0.14393,0.10843 0.28716,0.21781 0.42969,0.32813 0.1433,0.11103 0.28588,0.22301 0.42774,0.33593 0.14135,0.11235 0.28197,0.22564 0.42187,0.33985 0.14006,0.11431 0.27938,0.22955 0.41797,0.3457 0.13877,0.11627 0.27679,0.23346 0.41406,0.35156 0.13683,0.11824 0.2729,0.23738 0.40821,0.35742 0.13553,0.11955 0.2703,0.24 0.40429,0.36133 0.13425,0.12216 0.26772,0.24521 0.40039,0.36914 0.1323,0.12283 0.26381,0.24653 0.39453,0.3711 0.13102,0.12544 0.26123,0.25174 0.39063,0.3789 0.12907,0.12676 0.25733,0.25437 0.38476,0.38282 0.12778,0.12871 0.25474,0.25827 0.38086,0.38867 0.12649,0.13003 0.25215,0.26089 0.37696,0.39258 0.12389,0.132 0.24694,0.26481 0.36914,0.39843 0.12261,0.13396 0.24435,0.26873 0.36523,0.4043 0.12131,0.13462 0.24175,0.27004 0.36133,0.40625 0.11872,0.13724 0.23656,0.27526 0.35352,0.41406 0.11742,0.1379 0.23396,0.27658 0.34961,0.41602 0.11548,0.13986 0.23007,0.28049 0.34375,0.42187 0.11419,0.14183 0.22748,0.28441 0.33984,0.42774 0.11159,0.1425 0.22227,0.28573 0.33203,0.42969 0.1103,0.14444 0.21968,0.28964 0.32813,0.43554 0.10836,0.14577 0.21578,0.29226 0.32226,0.43946 0.10641,0.14707 0.21189,0.29487 0.31641,0.44335 0.10446,0.1484 0.20798,0.2975 0.31054,0.44727 0.10318,0.15036 0.2054,0.30141 0.30665,0.45312 0.10056,0.15103 0.20018,0.30273 0.29882,0.45508 0.0986,0.153 0.1963,0.30665 0.29297,0.46094 0.0967,0.15366 0.19239,0.30796 0.28711,0.46289 0.0948,0.15563 5.86819,27.01501 5.96094,27.17188 0.0928,0.15629 -5.49509,-26.38994 -5.4043,-26.23243 0.0909,0.15761 0.1807,0.31581 0.26953,0.47461 0.0889,0.15892 0.17681,0.31843 0.26367,0.47852 0.087,0.15959 0.1729,0.31975 0.25782,0.48047 0.0844,0.16156 0.16771,0.32367 0.25,0.48633 0.0831,0.16222 0.1651,0.32498 0.24609,0.48828 0.0805,0.16288 0.1599,0.3263 0.23828,0.49023 0.0785,0.16485 0.15601,0.33022 0.23242,0.4961 0.0766,0.16551 0.15211,0.33153 0.22657,0.49804 0.074,0.16618 0.1469,0.33285 0.21875,0.5 0.072,0.1675 0.143,0.33547 0.21289,0.50391 0.0701,0.16816 0.1391,0.33679 0.20703,0.50586 0.0675,0.16883 0.13389,0.3381 0.19922,0.50781 0.0655,0.17015 0.13,0.34072 0.19336,0.51172 0.0636,0.17146 0.1261,0.34333 0.1875,0.51562 0.0616,0.17147 0.12219,0.34335 0.18164,0.51563 0.0591,0.17279 0.117,0.34597 0.17383,0.51953 0.0564,0.17346 0.11179,0.3473 0.16601,0.52148 0.0545,0.17412 0.10789,0.34861 0.16016,0.52344 0.0525,0.17479 0.10398,0.34992 0.15429,0.52539 0.0506,0.17545 0.10009,0.35124 0.14844,0.52735 0.0474,0.17612 0.0936,0.35256 0.13867,0.52929 0.046,0.17614 0.091,0.35257 0.13477,0.5293 0.0434,0.17745 0.0858,0.35519 0.12695,0.5332 0.0409,0.17812 0.0806,0.35651 0.11914,0.53516 0.0389,0.17814 0.0767,0.35653 0.11328,0.53516 0.0363,0.17945 0.0715,0.35914 0.10547,0.53906 0.0343,0.17882 0.0676,0.35786 0.0996,0.53711 0.0324,0.18013 0.0637,0.36047 0.0937,0.54101 0.0291,0.18015 0.0572,0.3605 0.084,0.54102 0.0279,0.18081 0.0545,0.36181 0.0801,0.54297 0.0246,0.18083 0.048,0.36183 0.0703,0.54297 0.0226,0.1815 0.0442,0.36314 0.0644,0.54492 0.0207,0.18151 0.0402,0.36315 0.0586,0.54492 0.0181,0.18153 0.035,0.36317 0.0508,0.54492 0.0155,0.1822 0.0298,0.36449 0.043,0.54688 0.0135,0.18221 0.0259,0.3645 0.0371,0.54687 0.0116,0.18222 0.022,0.36452 0.0312,0.54688 0.008,0.18224 0.0155,0.36453 0.0215,0.54687 0.006,0.18291 0.0116,0.36585 0.0156,0.54883 0.004,0.18292 0.008,0.36587 0.01,0.54883 0.001,0.13737 0.002,0.27474 0.002,0.41211 -1.3e-4,0.18295 -9e-4,0.3659 -0.004,0.54883 -0.002,0.18231 -0.005,0.3646 -0.01,0.54687 -0.005,0.18298 -0.0105,0.36593 -0.0176,0.54883 -0.007,0.18234 -0.0158,0.36464 -0.0254,0.54687 -0.009,0.18301 -0.0198,0.36596 -0.0312,0.54883 -0.0119,0.18238 -0.0249,0.36467 -0.0391,0.54688 -0.0138,0.18174 -0.0288,0.36338 -0.0449,0.54492 -0.0164,0.1824 -0.034,0.3647 -0.0527,0.54687 -0.0184,0.18177 -0.0379,0.36342 -0.0586,0.54493 -0.021,0.18113 -0.0431,0.36213 -0.0664,0.54297 -0.0236,0.18114 -0.0483,0.36214 -0.0742,0.54296 -0.0255,0.18116 -0.0522,0.36216 -0.0801,0.54297 -0.0282,0.18053 -0.0575,0.36088 -0.0879,0.54102 -0.0301,0.17989 -0.0615,0.35958 -0.0937,0.53906 -0.0327,0.17991 -0.0666,0.3596 -0.10157,0.53906 -0.0347,0.17927 -0.0705,0.35831 -0.10742,0.53711 -0.0373,0.17864 -0.0757,0.35703 -0.11523,0.53516 -0.0392,0.178 -0.0796,0.35574 -0.1211,0.5332 -0.0418,0.17802 -0.0848,0.35576 -0.1289,0.5332 -0.0438,0.17738 -0.0887,0.35447 -0.13477,0.53126 -0.0464,0.17608 -0.0939,0.35188 -0.14258,0.52734 -0.0483,0.17611 -0.0978,0.35189 -0.14843,0.52734 -0.0503,0.17547 -0.10175,0.3506 -0.1543,0.52539 -0.0536,0.17484 -0.10826,0.34932 -0.16406,0.52344 -0.0549,0.17354 -0.11088,0.34672 -0.16797,0.51953 -0.0575,0.17356 -0.11608,0.34674 -0.17578,0.51953 -0.0594,0.17228 -0.12,0.34416 -0.18165,0.51563 -0.062,0.17164 -0.12521,0.34287 -0.18945,0.51367 -0.064,0.17035 -0.12912,0.34028 -0.19531,0.50977 -0.066,0.17036 -0.13303,0.34029 -0.20117,0.50976 -0.0686,0.16843 -0.13826,0.3364 -0.20899,0.50391 -0.0699,0.16843 -0.14085,0.3364 -0.21289,0.5039 -0.0731,0.16716 -0.14737,0.33383 -0.22265,0.5 -0.0745,0.16586 -0.14999,0.33123 -0.22657,0.4961 -0.0771,0.16523 -0.15519,0.32995 -0.23437,0.49414 -0.079,0.16394 -0.15912,0.32735 -0.24024,0.49023 -0.081,0.1633 -0.16302,0.32606 -0.24609,0.48828 -0.0829,0.16201 -0.16694,0.32348 -0.25195,0.48438 -0.0856,0.16073 -0.17216,0.32089 -0.25977,0.48047 -0.0869,0.16008 -0.17476,0.31959 -0.26367,0.47851 -0.0895,0.15815 -0.17998,0.31571 -0.27148,0.47266 -0.0914,0.15751 -0.1839,0.31441 -0.27735,0.4707 -0.0934,0.15622 -0.18781,0.31183 -0.2832,0.4668 -0.0389,0.062 -0.078,0.1238 -0.11719,0.18555 20.52886,18.8643 44.74698,32.98514 70.85938,42.09961 -0.0486,-0.14376 -0.0968,-0.28764 -0.14454,-0.43164 -0.0825,-0.2464 -0.16391,-0.49315 -0.24414,-0.74024 -0.0793,-0.24706 -0.1574,-0.49446 -0.23437,-0.74219 -0.0773,-0.24772 -0.1535,-0.49577 -0.22852,-0.74414 -0.0754,-0.24838 -0.1496,-0.49708 -0.22265,-0.74609 -0.0728,-0.24905 -0.1444,-0.4984 -0.21485,-0.74805 -0.0702,-0.24971 -0.13919,-0.49971 -0.20703,-0.75 -0.0682,-0.25036 -0.13528,-0.50102 -0.20117,-0.75195 -0.0656,-0.25038 -0.13008,-0.50103 -0.19336,-0.75195 -0.0637,-0.25169 -0.12618,-0.50364 -0.1875,-0.75586 -0.0611,-0.2517 -0.12097,-0.50365 -0.17969,-0.75586 -0.0585,-0.25236 -0.11576,-0.50497 -0.17187,-0.75782 -0.0565,-0.25237 -0.11186,-0.50497 -0.16602,-0.75781 -0.0539,-0.25368 -0.10665,-0.50759 -0.1582,-0.76172 -0.052,-0.25369 -0.10275,-0.5076 -0.15234,-0.76172 -0.0494,-0.25435 -0.0975,-0.50891 -0.14453,-0.76367 -0.0468,-0.25436 -0.0923,-0.50892 -0.13672,-0.76367 -0.0442,-0.25502 -0.0871,-0.51023 -0.12891,-0.76562 -0.0422,-0.25503 -0.0832,-0.51025 -0.12305,-0.76563 -0.0402,-0.25569 -0.0793,-0.51156 -0.11718,-0.76758 -0.037,-0.25636 -0.0728,-0.51287 -0.10743,-0.76953 -0.0351,-0.25637 -0.0689,-0.51288 -0.10156,-0.76953 -0.0325,-0.25638 -0.0637,-0.51289 -0.0937,-0.76953 -0.0305,-0.25704 -0.0598,-0.5142 -0.0879,-0.77149 -0.0279,-0.25705 -0.0546,-0.51421 -0.0801,-0.77148 -0.0253,-0.25706 -0.0494,-0.51422 -0.0723,-0.77148 -0.0227,-0.25772 -0.0442,-0.51554 -0.0645,-0.77344 -0.0207,-0.25773 -0.0403,-0.51555 -0.0586,-0.77344 -0.0181,-0.25774 -0.0351,-0.51556 -0.0508,-0.77344 -0.0155,-0.25775 -0.0299,-0.51556 -0.043,-0.77343 -0.0136,-0.25841 -0.0259,-0.51688 -0.0371,-0.7754 -0.011,-0.25842 -0.0207,-0.51689 -0.0293,-0.77539 -0.008,-0.25843 -0.0155,-0.5169 -0.0215,-0.77539 -0.006,-0.25844 -0.0116,-0.51691 -0.0156,-0.77539 -0.004,-0.25845 -0.006,-0.51692 -0.008,-0.77539 -3.4e-4,-0.13802 -3.4e-4,-0.27604 0,-0.41406 1e-4,-0.25847 0.001,-0.51693 0.004,-0.77539 0.002,-0.25848 0.005,-0.51694 0.01,-0.77539 0.005,-0.25849 0.0118,-0.51696 0.0195,-0.77539 0.007,-0.2585 0.0157,-0.51696 0.0254,-0.77539 0.009,-0.25786 0.0196,-0.51567 0.0312,-0.77344 0.0125,-0.25852 0.0261,-0.51699 0.041,-0.77539 0.0144,-0.25788 0.03,-0.51569 0.0469,-0.77344 0.0164,-0.25789 0.034,-0.5157 0.0527,-0.77344 0.0196,-0.2579 0.0405,-0.51571 0.0625,-0.77343 0.0216,-0.25791 0.0444,-0.51572 0.0684,-0.77344 0.0242,-0.25727 0.0496,-0.51443 0.0762,-0.77148 0.0261,-0.25728 0.0535,-0.51444 0.082,-0.77149 0.0294,-0.25729 0.06,-0.51445 0.0918,-0.77148 0.0314,-0.25665 0.0639,-0.51316 0.0977,-0.76953 0.0333,-0.256 0.0678,-0.51187 0.10351,-0.76758 0.0359,-0.25667 0.073,-0.51318 0.11133,-0.76953 0.0385,-0.25538 0.0782,-0.51059 0.11914,-0.76563 0.0411,-0.25604 0.0834,-0.5119 0.12695,-0.76758 0.0431,-0.25474 0.0874,-0.5093 0.13282,-0.76367 0.0457,-0.25475 0.0926,-0.50931 0.14062,-0.76367 0.0483,-0.25477 0.0978,-0.50932 0.14844,-0.76367 0.0503,-0.25347 0.10169,-0.50673 0.1543,-0.75977 0.0529,-0.25348 0.10688,-0.50674 0.1621,-0.75976 0.0548,-0.25349 0.1108,-0.50675 0.16797,-0.75977 0.0574,-0.2522 0.11602,-0.50416 0.17579,-0.75586 0.06,-0.25221 0.12122,-0.50417 0.18359,-0.75586 0.062,-0.25157 0.12513,-0.50288 0.18945,-0.75391 0.0646,-0.25093 0.13034,-0.50158 0.19727,-0.75195 0.0672,-0.25094 0.13555,-0.50159 0.20508,-0.75195 0.0692,-0.24965 0.13946,-0.499 0.21093,-0.74805 0.0711,-0.24966 0.14337,-0.49901 0.2168,-0.74805 0.0744,-0.24837 0.14988,-0.49641 0.22656,-0.74414 0.0757,-0.24837 0.15249,-0.49642 0.23047,-0.74414 0.0789,-0.24708 0.15901,-0.49383 0.24024,-0.74023 0.0809,-0.24644 0.16291,-0.49254 0.24609,-0.73828 0.0828,-0.24645 0.16682,-0.49254 0.25195,-0.73828 0.0854,-0.24516 0.17204,-0.48995 0.25977,-0.73438 0.0874,-0.24451 0.17594,-0.48866 0.26562,-0.73242 0.09,-0.24388 0.18116,-0.48737 0.27344,-0.73047 0.0926,-0.24323 0.18637,-0.48607 0.28125,-0.72851 0.0946,-0.24194 0.19028,-0.48348 0.28711,-0.72461 0.0965,-0.24195 0.19418,-0.48349 0.29297,-0.72461 0.0991,-0.24066 0.1994,-0.4809 0.30078,-0.72071 0.1011,-0.23936 0.20331,-0.47829 0.30664,-0.71679 0.1037,-0.23873 0.20852,-0.47701 0.31445,-0.71485 0.10566,-0.23808 0.21244,-0.47571 0.32032,-0.71289 0.10762,-0.23744 0.21634,-0.47442 0.32617,-0.71093 0.11023,-0.23615 0.22155,-0.47183 0.33398,-0.70704 0.11218,-0.2355 0.22547,-0.47053 0.33985,-0.70507 0.11479,-0.23422 0.23068,-0.46795 0.34765,-0.70118 0.11676,-0.23292 0.2346,-0.46534 0.35352,-0.69726 0.11871,-0.23228 0.2385,-0.46405 0.35937,-0.69531 0.12067,-0.23164 0.24241,-0.46276 0.36524,-0.69336 0.12327,-0.23035 0.24762,-0.46017 0.37304,-0.68946 0.12589,-0.22905 0.25284,-0.45757 0.38086,-0.68554 0.1272,-0.22776 0.25546,-0.45497 0.38477,-0.68164 0.1298,-0.22712 0.26066,-0.45368 0.39258,-0.67969 0.13176,-0.22582 0.26457,-0.45108 0.39843,-0.67578 0.13372,-0.22518 0.26848,-0.44979 0.4043,-0.67383 0.13568,-0.22323 0.2724,-0.44589 0.41016,-0.66797 0.13829,-0.2226 0.27761,-0.44461 0.41797,-0.66602 0.13959,-0.2213 0.28022,-0.442 0.42187,-0.66211 0.1422,-0.22066 0.28543,-0.44071 0.42969,-0.66015 0.14417,-0.21871 0.28935,-0.43682 0.43555,-0.6543 0.14612,-0.21742 0.29326,-0.43422 0.4414,-0.65039 0.14873,-0.21678 0.29847,-0.43293 0.44922,-0.64844 0.15004,-0.21483 0.30109,-0.42902 0.45313,-0.64257 0.152,-0.21419 0.30499,-0.42774 0.45898,-0.64063 0.15461,-0.21225 0.31021,-0.42383 0.4668,-0.63476 0.15591,-0.2116 0.31282,-0.42255 0.4707,-0.63282 0.15853,-0.20966 0.31804,-0.41864 0.47852,-0.62695 0.15984,-0.20836 0.32065,-0.41605 0.48242,-0.62305 0.16244,-0.20772 0.32585,-0.41476 0.49023,-0.62109 0.16376,-0.20578 0.32847,-0.41086 0.49414,-0.61524 0.16571,-0.20448 0.33238,-0.40825 0.5,-0.61132 0.16833,-0.20254 0.33761,-0.40437 0.50782,-0.60547 0.16963,-0.2019 0.3402,-0.40307 0.51171,-0.60352 0.1716,-0.19995 0.34412,-0.39917 0.51758,-0.59765 0.17356,-0.19866 0.34804,-0.39657 0.52344,-0.59375 0.17486,-0.19736 0.35064,-0.39398 0.52734,-0.58985 0.17748,-0.19542 0.35587,-0.39008 0.53516,-0.58398 0.17878,-0.19477 0.35847,-0.38878 0.53906,-0.58203 0.18075,-0.19217 0.36239,-0.38358 0.54492,-0.57422 0.1827,-0.19154 0.3663,-0.38229 0.55079,-0.57227 0.18401,-0.18958 0.36891,-0.37838 0.55468,-0.5664 0.18663,-0.18764 0.37413,-0.3745 0.5625,-0.56055 0.18729,-0.18634 0.37544,-0.37189 0.56446,-0.55664 0.18989,-0.18506 0.38065,-0.3693 0.57226,-0.55274 0.19121,-0.1831 0.38326,-0.36539 0.57617,-0.54687 0.19316,-0.18181 0.38718,-0.3628 0.58203,-0.54297 0.19448,-0.17986 0.38979,-0.3589 0.58594,-0.53711 0.19644,-0.17792 0.39371,-0.355 0.5918,-0.53125 0.19775,-0.17662 0.39631,-0.3524 0.5957,-0.52734 0.1997,-0.17533 0.40023,-0.34981 0.60156,-0.52344 0.20167,-0.17273 0.40415,-0.34461 0.60743,-0.51563 0.20298,-0.17143 0.40676,-0.34201 0.61133,-0.51171 0.20429,-0.17014 0.40936,-0.33942 0.61523,-0.50782 0.20625,-0.16819 0.41328,-0.33551 0.62109,-0.50195 0.20756,-0.16625 0.4159,-0.33161 0.625,-0.49609 0.20887,-0.1643 0.41851,-0.32772 0.62891,-0.49024 0.21084,-0.16235 0.42243,-0.32381 0.63477,-0.48437 0.21214,-0.16106 0.42503,-0.32122 0.63867,-0.48047 0.21345,-0.15911 0.42764,-0.31732 0.64257,-0.47461 0.21541,-0.15782 0.43156,-0.31472 0.64844,-0.4707 0.21673,-0.15522 0.43418,-0.30952 0.65235,-0.46289 0.21804,-0.15327 0.43679,-0.30562 0.65625,-0.45704 0.21934,-0.15197 0.4394,-0.30301 0.66015,-0.45312 0.22066,-0.15003 0.44202,-0.29912 0.66407,-0.44727 0.22262,-0.14808 0.44593,-0.29522 0.66992,-0.4414 0.22393,-0.14614 0.44854,-0.29132 0.67382,-0.43555 0.22459,-0.14418 0.44986,-0.28741 0.67579,-0.42969 0.22655,-0.14224 0.45377,-0.28352 0.68164,-0.42383 0.22786,-0.14029 0.45638,-0.27961 0.68554,-0.41796 0.22853,-0.13834 0.45769,-0.27571 0.6875,-0.41211 0.23048,-0.13705 0.4616,-0.27312 0.69336,-0.40821 0.2318,-0.13445 0.46422,-0.26791 0.69727,-0.40039 0.23246,-0.1325 0.46553,-0.26401 0.69922,-0.39453 0.23377,-0.13055 0.46814,-0.26011 0.70312,-0.38867 0.23573,-0.12861 0.47206,-0.25621 0.70899,-0.38281 0.23639,-0.12666 0.47337,-0.25231 0.71093,-0.37696 0.2377,-0.12471 0.47599,-0.2484 0.71485,-0.37109 0.23836,-0.12275 0.47729,-0.2445 0.71679,-0.36523 0.23968,-0.12016 0.47992,-0.2393 0.72071,-0.35743 0.24099,-0.11886 0.48252,-0.2367 0.72461,-0.35351 0.2423,-0.11626 0.48514,-0.2315 0.72851,-0.3457 0.24296,-0.11431 0.48645,-0.2276 0.73047,-0.33985 0.24427,-0.11236 0.48907,-0.22369 0.73438,-0.33398 0.24558,-0.11042 0.49168,-0.2198 0.73828,-0.32813 0.24624,-0.10782 0.49299,-0.21459 0.74023,-0.32031 0.2469,-0.10652 0.4943,-0.21199 0.74219,-0.31641 0.24887,-0.10392 0.49822,-0.20679 0.74805,-0.30859 0.24887,-0.10197 0.49822,-0.20288 0.74804,-0.30273 0.25019,-0.0994 0.50085,-0.19768 0.75196,-0.29493 0.25085,-0.0981 0.50215,-0.19507 0.7539,-0.29101 0.25216,-0.0955 0.50477,-0.18988 0.75782,-0.28321 0.25282,-0.0929 0.50608,-0.18467 0.75976,-0.27539 0.25413,-0.0916 0.50869,-0.18207 0.76367,-0.27148 0.25415,-0.089 0.50871,-0.17686 0.76368,-0.26367 0.25545,-0.087 0.51131,-0.17296 0.76757,-0.25781 0.25612,-0.0844 0.51263,-0.16775 0.76953,-0.25 0.25678,-0.0825 0.51395,-0.16386 0.77149,-0.24415 0.25809,-0.0805 0.51656,-0.15995 0.77539,-0.23828 0.2581,-0.0786 0.51657,-0.15604 0.77539,-0.23242 0.25942,-0.076 0.51918,-0.15084 0.7793,-0.22461 0.26008,-0.0734 0.5205,-0.14564 0.78125,-0.2168 0.26074,-0.0714 0.52181,-0.14173 0.7832,-0.21093 0.26075,-0.0695 0.52182,-0.13783 0.7832,-0.20508 0.26206,-0.0675 0.52443,-0.13393 0.78711,-0.19922 0.26272,-0.0649 0.52575,-0.12872 0.78907,-0.19141 0.26273,-0.0623 0.52576,-0.12351 0.78906,-0.18359 0.26405,-0.0604 0.52837,-0.11961 0.79297,-0.17773 0.26405,-0.0584 0.52838,-0.11571 0.79297,-0.17188 0.26472,-0.0558 0.52969,-0.1105 0.79492,-0.16406 0.26538,-0.0539 0.531,-0.10659 0.79687,-0.1582 0.26539,-0.0519 0.53102,-0.10269 0.79688,-0.15235 0.26605,-0.0487 0.53233,-0.0962 0.79883,-0.14258 0.26671,-0.0474 0.53364,-0.0936 0.80078,-0.13867 0.26737,-0.0448 0.53495,-0.0884 0.80273,-0.13086 0.26738,-0.0421 0.53496,-0.0832 0.80273,-0.12304 0.26805,-0.0402 0.53628,-0.0793 0.80469,-0.11719 0.26806,-0.0382 0.53629,-0.0754 0.80469,-0.11133 0.26872,-0.0357 0.5376,-0.0702 0.80664,-0.10352 0.26873,-0.033 0.53761,-0.0649 0.80664,-0.0957 0.26939,-0.0311 0.53893,-0.061 0.8086,-0.0898 0.2694,-0.0285 0.53893,-0.0558 0.80859,-0.082 0.27006,-0.0265 0.54025,-0.0519 0.81055,-0.0762 0.26942,-0.0246 0.53895,-0.048 0.80859,-0.0703 0.27073,-0.022 0.54157,-0.0428 0.8125,-0.0625 0.2701,-0.0194 0.54028,-0.0376 0.81055,-0.0547 0.27076,-0.0174 0.54159,-0.0337 0.8125,-0.0488 0.27077,-0.0148 0.5416,-0.0285 0.8125,-0.041 0.27078,-0.0129 0.54161,-0.0246 0.8125,-0.0352 0.27079,-0.0103 0.54163,-0.0194 0.8125,-0.0273 0.2708,-0.008 0.54163,-0.0155 0.8125,-0.0215 0.27146,-0.006 0.54295,-0.0103 0.81445,-0.0137 0.27082,-0.004 0.54166,-0.006 0.8125,-0.008 0.14518,-3.3e-4 0.29037,-3.3e-4 0.43555,0 0.27149,1.5e-4 0.54297,10e-4 0.81445,0.004 0.27085,0.002 0.54168,0.005 0.8125,0.01 0.27151,0.005 0.543,0.0106 0.81445,0.0176 0.27087,0.007 0.5417,0.0145 0.8125,0.0234 0.27088,0.009 0.54172,0.0197 0.8125,0.0312 0.27089,0.0112 0.54173,0.0236 0.8125,0.0371 0.2709,0.0138 0.54174,0.0288 0.8125,0.0449 0.27091,0.0164 0.54175,0.034 0.8125,0.0527 0.27027,0.0184 0.54046,0.0379 0.81055,0.0586 0.27028,0.0203 0.54047,0.0418 0.81055,0.0645 0.27029,0.0229 0.54047,0.047 0.81054,0.0723 0.26966,0.0255 0.53919,0.0522 0.8086,0.0801 0.26966,0.0275 0.5392,0.0561 0.80859,0.0859 0.26967,0.0301 0.53921,0.0614 0.80859,0.0937 0.26903,0.0321 0.53792,0.0653 0.80664,0.0996 0.26839,0.034 0.53663,0.0692 0.80469,0.10547 0.2684,0.0366 0.53664,0.0744 0.80469,0.11328 0.26842,0.0392 0.53665,0.0796 0.80469,0.1211 0.26777,0.0412 0.53535,0.0835 0.80273,0.12695 0.26713,0.0431 0.53406,0.0874 0.80078,0.13281 0.26714,0.0457 0.53407,0.0926 0.80078,0.14063 0.26586,0.0483 0.53149,0.0978 0.79688,0.14843 0.26652,0.0503 0.5328,0.10174 0.79883,0.1543 0.26522,0.0523 0.5302,0.10565 0.79492,0.16016 0.26523,0.0549 0.53021,0.11086 0.79492,0.16797 0.2646,0.0575 0.52892,0.11607 0.79297,0.17578 0.26395,0.0588 0.52763,0.11868 0.79102,0.17969 0.26331,0.0614 0.52633,0.12389 0.78906,0.1875 0.26267,0.064 0.52505,0.12909 0.78711,0.19531 0.26203,0.0659 0.52375,0.133 0.78515,0.20117 0.26139,0.0679 0.52246,0.13691 0.78321,0.20703 0.2614,0.0705 0.52247,0.14212 0.7832,0.21484 0.26011,0.0731 0.51988,0.14734 0.7793,0.22266 0.25946,0.0744 0.51858,0.14994 0.77734,0.22656 0.25883,0.077 0.51729,0.15516 0.77539,0.23438 0.25819,0.079 0.516,0.15906 0.77344,0.24023 0.25754,0.0816 0.51471,0.16428 0.77148,0.24805 0.25625,0.0836 0.51212,0.16819 0.76758,0.25391 0.25626,0.0855 0.51213,0.17209 0.76758,0.25976 0.25497,0.0881 0.50953,0.17731 0.76367,0.26758 0.25433,0.0901 0.50824,0.18122 0.76172,0.27344 0.25304,0.092 0.50564,0.18512 0.75781,0.27929 0.2524,0.0946 0.50435,0.19034 0.75586,0.28711 0.25176,0.0966 0.50306,0.19425 0.75391,0.29297 0.25046,0.0985 0.50047,0.19816 0.75,0.29883 0.24982,0.10051 0.49918,0.20207 0.74805,0.30469 0.24853,0.10311 0.49658,0.20728 0.74414,0.3125 0.24789,0.10507 0.49528,0.21119 0.74218,0.31836 0.24725,0.10703 0.494,0.2151 0.74024,0.32422 0.2453,0.10899 0.49009,0.21901 0.73437,0.33007 0.24466,0.11159 0.48881,0.22423 0.73242,0.33789 0.24402,0.1129 0.48751,0.22683 0.73047,0.3418 0.24273,0.11551 0.48493,0.23205 0.72657,0.34961 0.24144,0.11747 0.48232,0.23596 0.72265,0.35547 0.24079,0.11942 0.48103,0.23987 0.7207,0.36133 0.23885,0.12138 0.47714,0.24378 0.71485,0.36718 0.23821,0.12334 0.47584,0.24769 0.71289,0.37305 0.23757,0.12595 0.47456,0.2529 0.71094,0.38086 0.23562,0.12726 0.47065,0.25552 0.70508,0.38477 0.23433,0.12987 0.46806,0.26073 0.70117,0.39258 0.23369,0.13117 0.46676,0.26333 0.69922,0.39648 0.2324,0.13378 0.46417,0.26855 0.69531,0.4043 0.23045,0.13509 0.46027,0.27116 0.68945,0.4082 0.22981,0.1377 0.45898,0.27637 0.6875,0.41602 0.22852,0.13901 0.45638,0.27898 0.68359,0.41992 0.22723,0.14161 0.45379,0.28419 0.67969,0.42773 0.22593,0.14292 0.45119,0.28681 0.67578,0.43164 0.22399,0.14554 0.4473,0.29202 0.66993,0.43945 0.22334,0.14684 0.446,0.29463 0.66796,0.44336 0.2214,0.1488 0.44211,0.29855 0.66211,0.44922 0.22011,0.15076 0.43952,0.30246 0.65821,0.45508 0.21881,0.15272 0.43691,0.30637 0.65429,0.46094 0.21752,0.15468 0.43432,0.31028 0.65039,0.4668 0.21623,0.15599 0.43173,0.31289 0.64649,0.4707 0.21428,0.1586 0.42783,0.3181 0.64062,0.47851 0.21299,0.15991 0.42523,0.32072 0.63672,0.48243 0.2117,0.16186 0.42263,0.32463 0.63281,0.48828 0.20975,0.16317 0.41874,0.32724 0.62696,0.49218 0.20845,0.16514 0.41614,0.33115 0.62304,0.49805 0.20717,0.16709 0.41355,0.33506 0.61915,0.50391 0.20522,0.16905 0.40965,0.33897 0.61328,0.50976 0.20392,0.17036 0.40705,0.34159 0.60937,0.51368 0.20198,0.17232 0.40316,0.3455 0.60352,0.51953 0.20069,0.17428 0.40056,0.34941 0.59961,0.52539 0.19874,0.17559 0.39666,0.35202 0.59375,0.52929 0.19679,0.17756 0.39276,0.35594 0.58789,0.53516 0.19615,0.17886 0.39146,0.35855 0.58593,0.53906 0.19356,0.18083 0.38627,0.36247 0.57813,0.54493 0.19226,0.18213 0.38367,0.36507 0.57422,0.54882 0.19032,0.18409 0.37977,0.36899 0.56836,0.55469 0.18902,0.1854 0.37717,0.3716 0.56445,0.55859 0.18708,0.18736 0.37328,0.37552 0.5586,0.56446 0.18513,0.18867 0.36937,0.37813 0.55273,0.56836 0.18383,0.18998 0.36678,0.38073 0.54883,0.57226 0.18123,0.19195 0.36157,0.38466 0.54101,0.57813 0.17995,0.1939 0.35898,0.38856 0.53711,0.58398 0.17799,0.19456 0.35508,0.38988 0.53125,0.58594 0.1767,0.19652 0.35249,0.39379 0.52735,0.5918 0.1741,0.19783 0.34728,0.3964 0.51953,0.5957 0.17281,0.19914 0.34468,0.39901 0.51562,0.59961 0.17087,0.2011 0.34079,0.40293 0.50977,0.60547 0.16891,0.20241 0.33688,0.40553 0.5039,0.60937 0.16697,0.20307 0.33298,0.40685 0.49805,0.61133 0.16503,0.20568 0.32909,0.41206 0.49219,0.61914 0.16308,0.20634 0.32519,0.41337 0.48633,0.62109 0.16113,0.20765 0.32129,0.41599 0.48047,0.625 0.15918,0.20897 0.31738,0.4186 0.4746,0.62891 0.15724,0.21093 0.3135,0.42252 0.46876,0.63477 0.15529,0.21159 0.30958,0.42383 0.46289,0.63672 0.15334,0.21354 0.30569,0.42773 0.45703,0.64257 0.15139,0.21421 0.30178,0.42905 0.45117,0.64453 0.14945,0.21617 0.29789,0.43297 0.44531,0.6504 0.14685,0.21683 0.29268,0.43428 0.4375,0.65234 0.14555,0.21814 0.29009,0.43689 0.4336,0.65625 0.14295,0.21945 0.28488,0.43951 0.42578,0.66016 0.14166,0.22076 0.28228,0.44211 0.42187,0.66406 0.13906,0.22207 0.27708,0.44473 0.41406,0.66797 0.13711,0.22273 0.27318,0.44604 0.40821,0.66992 0.13451,0.22404 0.26797,0.44866 0.40039,0.67383 0.13321,0.22535 0.26538,0.45126 0.39648,0.67773 0.13062,0.22666 0.26018,0.45388 0.38867,0.68164 0.12867,0.22732 0.25628,0.45519 0.38282,0.6836 0.12607,0.22864 0.25107,0.4578 0.375,0.6875 0.12477,0.22994 0.24847,0.46041 0.37109,0.6914 0.12217,0.23061 0.24327,0.46173 0.36328,0.69336 0.12023,0.23192 0.23937,0.46434 0.35742,0.69727 0.11762,0.23258 0.23416,0.46565 0.34961,0.69922 0.11568,0.23389 0.23026,0.46826 0.34375,0.70312 0.11373,0.23455 0.22636,0.46958 0.33789,0.70508 0.11113,0.23586 0.22116,0.47219 0.33008,0.70898 0.10918,0.23652 0.21725,0.4735 0.32422,0.71094 0.10658,0.23783 0.21205,0.47611 0.31641,0.71484 0.10463,0.23849 0.20814,0.47743 0.31054,0.7168 0.10268,0.23915 0.20425,0.47874 0.30469,0.71875 0.10008,0.23981 0.19904,0.48005 0.29688,0.7207 0.0981,0.24112 0.19514,0.48266 0.29101,0.72461 0.0955,0.24179 0.18993,0.48398 0.2832,0.72657 0.0936,0.24309 0.18604,0.48658 0.27735,0.73046 0.091,0.24311 0.18082,0.4866 0.26953,0.73047 0.089,0.24442 0.17692,0.48921 0.26367,0.73438 0.0864,0.24443 0.17171,0.48922 0.25586,0.73437 0.0845,0.24574 0.16782,0.49183 0.25,0.73828 0.0819,0.2464 0.16261,0.49315 0.24219,0.74024 0.0799,0.24706 0.15871,0.49446 0.23633,0.74219 0.0773,0.24772 0.1535,0.49577 0.22851,0.74414 0.0754,0.24838 0.1496,0.49708 0.22266,0.74609 0.0728,0.24905 0.14439,0.4984 0.21484,0.74805 0.0702,0.24971 0.13919,0.49971 0.20703,0.75 0.0682,0.25036 0.13529,0.50102 0.20118,0.75195 0.0656,0.25038 0.13007,0.50103 0.19335,0.75195 0.0637,0.25169 0.12618,0.50364 0.1875,0.75586 0.0611,0.2517 0.12097,0.50365 0.17969,0.75586 0.0585,0.25236 0.11577,0.50497 0.17188,0.75782 0.0565,0.25237 0.11185,0.50497 0.16601,0.75781 0.0539,0.25368 0.10666,0.50759 0.15821,0.76172 0.0513,0.25369 0.10144,0.5076 0.15039,0.76172 0.0494,0.25435 0.0975,0.50891 0.14453,0.76367 0.0474,0.25436 0.0936,0.50892 0.13867,0.76367 0.0442,0.25502 0.0871,0.51023 0.12891,0.76562 0.0422,0.25504 0.0832,0.51025 0.12304,0.76563 0.0396,0.2557 0.078,0.51156 0.11524,0.76758 0.0377,0.25635 0.0741,0.51287 0.10937,0.76953 0.0351,0.25637 0.0689,0.51288 0.10156,0.76953 0.0324,0.25638 0.0637,0.51289 0.0937,0.76953 0.0299,0.25704 0.0585,0.51421 0.0859,0.77149 0.0279,0.25705 0.0546,0.51421 0.0801,0.77148 0.0253,0.25706 0.0494,0.51422 0.0723,0.77148 0.0233,0.25772 0.0455,0.51553 0.0664,0.77344 0.0207,0.25773 0.0403,0.51555 0.0586,0.77344 0.0181,0.25774 0.0351,0.51556 0.0508,0.77344 0.0155,0.25775 0.0299,0.51556 0.043,0.77343 0.0136,0.25841 0.0259,0.51688 0.0371,0.7754 0.011,0.25842 0.0207,0.51689 0.0293,0.77539 0.008,0.25843 0.0155,0.5169 0.0215,0.77539 0.006,0.25844 0.0103,0.51691 0.0137,0.77539 0.004,0.25845 0.006,0.51692 0.008,0.77539 9.9e-4,0.13802 0.002,0.27604 0.002,0.41406 -9e-5,0.25847 -10e-4,0.51693 -0.004,0.77539 -0.003,0.25848 -0.007,0.51694 -0.0117,0.77539 -0.005,0.25849 -0.0105,0.51695 -0.0176,0.77539 -0.007,0.2585 -0.0157,0.51696 -0.0254,0.77539 -0.01,0.25786 -0.0209,0.51567 -0.0332,0.77344 -0.0118,0.25852 -0.0248,0.51698 -0.0391,0.77539 -0.0144,0.25788 -0.03,0.51569 -0.0469,0.77344 -0.017,0.25789 -0.0353,0.51571 -0.0547,0.77344 -0.019,0.25789 -0.0392,0.51571 -0.0605,0.77343 l -0.008,0.0937 c 55.99279,-35.13066 93.15847,-96.2184 93.15821,-165.86133 -3.4e-4,-99.32983 -75.87216,-183.18319 -177.14063,-195.77539 z"
       transform="scale(0.26458333)"
       sodipodi:nodetypes="ccccccccccccccccccccsscscscccccccccccccccccccccccccsccccssscsscsscccccccccccsccccssssccscsccssccscccsssssccccscccccccsccsccccsccccccccccccccccccccccccsscccscccccccccccccccccccccccccccscccscccscccsscccccccsscccccccccccccscccscccscsccsccsccccccccccccccccccccccccccccccccccccccccccccscccccsccccccccccccccccccccscscsscccccccccccccccccccccssccccccscsscssccccccscccsssscccccssccsccccsscsssccccccsscccccccsccssccccccccccccccccccccccccsscscssccccccccccccccccccccccscsccccccscsccccsccccccccccscscccccsccccccccccccccccccccccccccccccccccscsccscsccsccscccccccccccsccsccccccsccccccsccccccssccccccssscccscccccscccsssccsccccssccsscscscsccsccccsccscccccssccccccccccsccscccccsccscccccccccccccccccccccccccccccccccccccccccccccccccscccccccccccccscccsccsccccccccsccccccccccccccccssscccsssscccsscccccccsccscscccscccsscccccsccccccccccccscscccccccscssssscccccccscscccsccccccscccccccccccccccccccccccscsc" />
    <path
       id="path861"
       style="opacity:1;fill:none;fill-opacity:1;stroke:#ffffff;stroke-width:6;stroke-miterlimit:4;stroke-dasharray:none;stroke-opacity:1;paint-order:stroke fill markers"
       d="m 257.17578,385.44141 a 47.857119,48.646624 0 0 0 -0.0117,0.32226 47.857119,48.646624 0 0 0 -0.0137,0.58985 47.857119,48.646624 0 0 0 -0.008,0.58789 47.857119,48.646624 0 0 0 0,0.27734 47.857119,48.646624 0 0 0 0.004,0.58789 47.857119,48.646624 0 0 0 0.01,0.58984 47.857119,48.646624 0 0 0 0.0176,0.5879 47.857119,48.646624 0 0 0 0.0254,0.58789 47.857119,48.646624 0 0 0 0.0312,0.58789 47.857119,48.646624 0 0 0 0.0391,0.58789 47.857119,48.646624 0 0 0 0.0449,0.58789 47.857119,48.646624 0 0 0 0.0527,0.58594 47.857119,48.646624 0 0 0 0.0586,0.58593 47.857119,48.646624 0 0 0 0.0664,0.58594 47.857119,48.646624 0 0 0 0.0742,0.58398 47.857119,48.646624 0 0 0 0.0801,0.58204 47.857119,48.646624 0 0 0 0.0879,0.58203 47.857119,48.646624 0 0 0 0.0937,0.58203 47.857119,48.646624 0 0 0 0.10157,0.58008 47.857119,48.646624 0 0 0 0.10742,0.57812 47.857119,48.646624 0 0 0 0.11523,0.57617 47.857119,48.646624 0 0 0 0.12305,0.57618 47.857119,48.646624 0 0 0 0.12695,0.57421 47.857119,48.646624 0 0 0 0.13672,0.57227 47.857119,48.646624 0 0 0 0.14258,0.57031 47.857119,48.646624 0 0 0 0.14844,0.57031 47.857119,48.646624 0 0 0 0.15625,0.56641 47.857119,48.646624 0 0 0 0.16211,0.56641 47.857119,48.646624 0 0 0 0.16992,0.5625 47.857119,48.646624 0 0 0 0.17578,0.56054 47.857119,48.646624 0 0 0 0.18164,0.5586 47.857119,48.646624 0 0 0 0.18945,0.55664 47.857119,48.646624 0 0 0 0.19727,0.55469 47.857119,48.646624 0 0 0 0.20117,0.55273 47.857119,48.646624 0 0 0 0.20899,0.54883 47.857119,48.646624 0 0 0 0.21679,0.54687 47.857119,48.646624 0 0 0 0.22071,0.54297 47.857119,48.646624 0 0 0 0.22851,0.54102 47.857119,48.646624 0 0 0 0.23633,0.53906 47.857119,48.646624 0 0 0 0.24023,0.53516 47.857119,48.646624 0 0 0 0.24805,0.53125 47.857119,48.646624 0 0 0 0.25391,0.52929 47.857119,48.646624 0 0 0 0.26172,0.52735 47.857119,48.646624 0 0 0 0.26562,0.52148 47.857119,48.646624 0 0 0 0.27344,0.51953 47.857119,48.646624 0 0 0 0.2793,0.51758 47.857119,48.646624 0 0 0 0.28515,0.51172 47.857119,48.646624 0 0 0 0.29102,0.50977 47.857119,48.646624 0 0 0 0.29687,0.5039 47.857119,48.646624 0 0 0 0.30274,0.50195 47.857119,48.646624 0 0 0 0.30859,0.49805 47.857119,48.646624 0 0 0 0.31641,0.49414 47.857119,48.646624 0 0 0 0.32031,0.49024 47.857119,48.646624 0 0 0 0.32617,0.48632 47.857119,48.646624 0 0 0 0.33399,0.48243 47.857119,48.646624 0 0 0 0.33789,0.47851 47.857119,48.646624 0 0 0 0.34375,0.47461 47.857119,48.646624 0 0 0 0.34961,0.46875 47.857119,48.646624 0 0 0 0.35546,0.46484 47.857119,48.646624 0 0 0 0.35938,0.46094 47.857119,48.646624 0 0 0 0.36719,0.45703 47.857119,48.646624 0 0 0 0.37109,0.45118 47.857119,48.646624 0 0 0 0.37695,0.44726 47.857119,48.646624 0 0 0 0.38086,0.44336 47.857119,48.646624 0 0 0 0.38868,0.4375 47.857119,48.646624 0 0 0 0.39257,0.43359 47.857119,48.646624 0 0 0 0.39649,0.42774 47.857119,48.646624 0 0 0 0.40429,0.42383 47.857119,48.646624 0 0 0 0.40625,0.41797 47.857119,48.646624 0 0 0 0.41407,0.41406 47.857119,48.646624 0 0 0 0.41601,0.4082 47.857119,48.646624 0 0 0 0.42383,0.40234 47.857119,48.646624 0 0 0 0.42578,0.39844 47.857119,48.646624 0 0 0 0.4336,0.39258 47.857119,48.646624 0 0 0 0.43554,0.38672 47.857119,48.646624 0 0 0 0.44141,0.38086 47.857119,48.646624 0 0 0 0.44531,0.37695 47.857119,48.646624 0 0 0 0.45117,0.3711 47.857119,48.646624 0 0 0 0.45313,0.36523 47.857119,48.646624 0 0 0 0.45898,0.35938 47.857119,48.646624 0 0 0 0.46289,0.35351 47.857119,48.646624 0 0 0 0.4668,0.34766 47.857119,48.646624 0 0 0 0.47266,0.34375 47.857119,48.646624 0 0 0 0.47461,0.33593 47.857119,48.646624 0 0 0 0.48046,0.33008 47.857119,48.646624 0 0 0 0.48243,0.32422 47.857119,48.646624 0 0 0 0.48632,0.32031 47.857119,48.646624 0 0 0 0.49219,0.3125 47.857119,48.646624 0 0 0 0.49414,0.30664 47.857119,48.646624 0 0 0 0.49805,0.30079 47.857119,48.646624 0 0 0 0.50195,0.29492 47.857119,48.646624 0 0 0 0.50391,0.28711 47.857119,48.646624 0 0 0 0.50976,0.2832 47.857119,48.646624 0 0 0 0.51172,0.27539 47.857119,48.646624 0 0 0 0.51563,0.26953 47.857119,48.646624 0 0 0 0.51758,0.26172 47.857119,48.646624 0 0 0 0.52148,0.25781 47.857119,48.646624 0 0 0 0.52344,0.25 47.857119,48.646624 0 0 0 0.52734,0.24414 47.857119,48.646624 0 0 0 0.53125,0.23633 47.857119,48.646624 0 0 0 0.5332,0.23047 47.857119,48.646624 0 0 0 0.53516,0.22461 47.857119,48.646624 0 0 0 0.53906,0.21875 47.857119,48.646624 0 0 0 0.54102,0.21094 47.857119,48.646624 0 0 0 0.54297,0.20312 47.857119,48.646624 0 0 0 0.54492,0.19727 47.857119,48.646624 0 0 0 0.54883,0.1914 47.857119,48.646624 0 0 0 0.55078,0.1836 47.857119,48.646624 0 0 0 0.55273,0.17773 47.857119,48.646624 0 0 0 0.55274,0.16992 47.857119,48.646624 0 0 0 0.55664,0.16407 47.857119,48.646624 0 0 0 0.55859,0.15625 47.857119,48.646624 0 0 0 0.56055,0.15039 47.857119,48.646624 0 0 0 0.5625,0.14258 47.857119,48.646624 0 0 0 0.56445,0.13671 47.857119,48.646624 0 0 0 0.56446,0.12891 47.857119,48.646624 0 0 0 0.5664,0.12305 47.857119,48.646624 0 0 0 0.56836,0.11328 47.857119,48.646624 0 0 0 0.57031,0.10937 47.857119,48.646624 0 0 0 0.57032,0.10157 47.857119,48.646624 0 0 0 0.57226,0.0937 47.857119,48.646624 0 0 0 0.57227,0.0859 47.857119,48.646624 0 0 0 0.57422,0.0801 47.857119,48.646624 0 0 0 0.57422,0.0742 47.857119,48.646624 0 0 0 0.57617,0.0644 47.857119,48.646624 0 0 0 0.57617,0.0606 47.857119,48.646624 0 0 0 0.57617,0.0508 47.857119,48.646624 0 0 0 0.57813,0.0449 47.857119,48.646624 0 0 0 0.57812,0.0371 47.857119,48.646624 0 0 0 0.57813,0.0293 47.857119,48.646624 0 0 0 0.58007,0.0234 47.857119,48.646624 0 0 0 0.57813,0.0176 47.857119,48.646624 0 0 0 0.58008,0.008 47.857119,48.646624 0 0 0 0.43945,0.002 47.857119,48.646624 0 0 0 0.58008,-0.004 47.857119,48.646624 0 0 0 0.57812,-0.01 47.857119,48.646624 0 0 0 0.58008,-0.0176 47.857119,48.646624 0 0 0 0.57813,-0.0254 47.857119,48.646624 0 0 0 0.57812,-0.0312 47.857119,48.646624 0 0 0 0.57813,-0.0391 47.857119,48.646624 0 0 0 0.57812,-0.0469 47.857119,48.646624 0 0 0 0.57617,-0.0527 47.857119,48.646624 0 0 0 0.57617,-0.0606 47.857119,48.646624 0 0 0 0.57618,-0.0684 47.857119,48.646624 0 0 0 0.57422,-0.0742 47.857119,48.646624 0 0 0 0.57421,-0.082 47.857119,48.646624 0 0 0 0.57227,-0.0879 47.857119,48.646624 0 0 0 0.57227,-0.0976 47.857119,48.646624 0 0 0 0.57031,-0.10157 47.857119,48.646624 0 0 0 0.56836,-0.10937 47.857119,48.646624 0 0 0 0.56836,-0.11719 47.857119,48.646624 0 0 0 0.5664,-0.125 47.857119,48.646624 0 0 0 0.56446,-0.13086 47.857119,48.646624 0 0 0 0.56445,-0.13672 47.857119,48.646624 0 0 0 0.56055,-0.14453 47.857119,48.646624 0 0 0 0.56054,-0.15234 47.857119,48.646624 0 0 0 0.5586,-0.15821 47.857119,48.646624 0 0 0 0.55468,-0.16406 47.857119,48.646624 0 0 0 0.55469,-0.17383 47.857119,48.646624 0 0 0 0.55078,-0.17773 47.857119,48.646624 0 0 0 0.55078,-0.18555 47.857119,48.646624 0 0 0 0.54688,-0.19336 47.857119,48.646624 0 0 0 0.54492,-0.19922 47.857119,48.646624 0 0 0 0.54297,-0.20507 47.857119,48.646624 0 0 0 0.54102,-0.21289 47.857119,48.646624 0 0 0 0.5371,-0.21875 47.857119,48.646624 0 0 0 0.53516,-0.22657 47.857119,48.646624 0 0 0 0.5332,-0.23242 47.857119,48.646624 0 0 0 0.5293,-0.23828 47.857119,48.646624 0 0 0 0.52734,-0.24609 47.857119,48.646624 0 0 0 0.52344,-0.25 47.857119,48.646624 0 0 0 0.51953,-0.25977 47.857119,48.646624 0 0 0 0.51758,-0.26367 47.857119,48.646624 0 0 0 0.51563,-0.27149 47.857119,48.646624 0 0 0 0.50976,-0.27734 47.857119,48.646624 0 0 0 0.50782,-0.2832 47.857119,48.646624 0 0 0 0.5039,-0.28906 47.857119,48.646624 0 0 0 0.50195,-0.29688 47.857119,48.646624 0 0 0 0.4961,-0.30273 47.857119,48.646624 0 0 0 0.49414,-0.30665 47.857119,48.646624 0 0 0 0.49023,-0.31445 47.857119,48.646624 0 0 0 0.48633,-0.32031 47.857119,48.646624 0 0 0 0.48242,-0.32617 47.857119,48.646624 0 0 0 0.47852,-0.33203 47.857119,48.646624 0 0 0 0.47461,-0.33789 47.857119,48.646624 0 0 0 0.4707,-0.34375 47.857119,48.646624 0 0 0 0.46484,-0.34961 47.857119,48.646624 0 0 0 0.4629,-0.35547 47.857119,48.646624 0 0 0 0.45703,-0.36133 47.857119,48.646624 0 0 0 0.45312,-0.36719 47.857119,48.646624 0 0 0 0.44922,-0.37109 47.857119,48.646624 0 0 0 0.44531,-0.37891 47.857119,48.646624 0 0 0 0.43946,-0.38281 47.857119,48.646624 0 0 0 0.43554,-0.38867 47.857119,48.646624 0 0 0 0.43164,-0.39258 47.857119,48.646624 0 0 0 0.42578,-0.39844 47.857119,48.646624 0 0 0 0.42188,-0.4043 47.857119,48.646624 0 0 0 0.41602,-0.41015 47.857119,48.646624 0 0 0 0.41015,-0.41406 47.857119,48.646624 0 0 0 0.40821,-0.41993 47.857119,48.646624 0 0 0 0.40039,-0.42382 47.857119,48.646624 0 0 0 0.39648,-0.42969 47.857119,48.646624 0 0 0 0.39258,-0.43555 47.857119,48.646624 0 0 0 0.38476,-0.4375 47.857119,48.646624 0 0 0 0.38086,-0.44336 47.857119,48.646624 0 0 0 0.37696,-0.44922 47.857119,48.646624 0 0 0 0.36914,-0.45312 47.857119,48.646624 0 0 0 0.36523,-0.45703 47.857119,48.646624 0 0 0 0.35938,-0.46289 47.857119,48.646624 0 0 0 0.35351,-0.4668 47.857119,48.646624 0 0 0 0.34766,-0.46875 47.857119,48.646624 0 0 0 0.34375,-0.47656 47.857119,48.646624 0 0 0 0.33594,-0.47852 47.857119,48.646624 0 0 0 0.33203,-0.48242 47.857119,48.646624 0 0 0 0.32422,-0.48828 47.857119,48.646624 0 0 0 0.32031,-0.49024 47.857119,48.646624 0 0 0 0.3125,-0.49609 47.857119,48.646624 0 0 0 0.30859,-0.49805 47.857119,48.646624 0 0 0 0.30078,-0.5039 47.857119,48.646624 0 0 0 0.29688,-0.50586 47.857119,48.646624 0 0 0 0.28906,-0.50977 47.857119,48.646624 0 0 0 0.2832,-0.51367 47.857119,48.646624 0 0 0 0.27735,-0.51758 47.857119,48.646624 0 0 0 0.27148,-0.51953 47.857119,48.646624 0 0 0 0.26563,-0.52344 47.857119,48.646624 0 0 0 0.25976,-0.52734 47.857119,48.646624 0 0 0 0.25196,-0.5293 47.857119,48.646624 0 0 0 0.24609,-0.5332 47.857119,48.646624 0 0 0 0.24023,-0.53711 47.857119,48.646624 0 0 0 0.23243,-0.53711 47.857119,48.646624 0 0 0 0.22656,-0.54297 47.857119,48.646624 0 0 0 0.2207,-0.54492 47.857119,48.646624 0 0 0 0.21484,-0.54687 47.857119,48.646624 0 0 0 0.20704,-0.54883 47.857119,48.646624 0 0 0 0.20117,-0.55274 47.857119,48.646624 0 0 0 0.19531,-0.55468 47.857119,48.646624 0 0 0 0.1875,-0.55665 47.857119,48.646624 0 0 0 0.17969,-0.56054 47.857119,48.646624 0 0 0 0.17578,-0.56055 47.857119,48.646624 0 0 0 0.16797,-0.56445 47.857119,48.646624 0 0 0 0.16015,-0.56641 47.857119,48.646624 0 0 0 0.1543,-0.5664 47.857119,48.646624 0 0 0 0.14844,-0.57032 47.857119,48.646624 0 0 0 0.14062,-0.57031 47.857119,48.646624 0 0 0 0.13282,-0.57422 47.857119,48.646624 0 0 0 0.12695,-0.57422 47.857119,48.646624 0 0 0 0.12109,-0.57617 47.857119,48.646624 0 0 0 0.11328,-0.57617 47.857119,48.646624 0 0 0 0.10547,-0.58008 47.857119,48.646624 0 0 0 0.0996,-0.58008 47.857119,48.646624 0 0 0 0.0918,-0.58008 47.857119,48.646624 0 0 0 0.0859,-0.58398 47.857119,48.646624 0 0 0 0.0801,-0.58203 47.857119,48.646624 0 0 0 0.0703,-0.58594 47.857119,48.646624 0 0 0 0.0664,-0.58398 47.857119,48.646624 0 0 0 0.0566,-0.58594 47.857119,48.646624 0 0 0 0.0508,-0.58594 47.857119,48.646624 0 0 0 0.0449,-0.58789 47.857119,48.646624 0 0 0 0.0371,-0.58789 47.857119,48.646624 0 0 0 0.0293,-0.58789 47.857119,48.646624 0 0 0 0.0234,-0.58789 47.857119,48.646624 0 0 0 0.0156,-0.58984 47.857119,48.646624 0 0 0 0.008,-0.58789 47.857119,48.646624 0 0 0 0.002,-0.44727 47.857119,48.646624 0 0 0 -0.004,-0.58984 47.857119,48.646624 0 0 0 -0.01,-0.58789 47.857119,48.646624 0 0 0 -0.0176,-0.58985 47.857119,48.646624 0 0 0 -0.0234,-0.58789 47.857119,48.646624 0 0 0 -0.0332,-0.58789 47.857119,48.646624 0 0 0 -0.0371,-0.58789 47.857119,48.646624 0 0 0 -0.0469,-0.58594 47.857119,48.646624 0 0 0 -0.0508,-0.58789 47.857119,48.646624 0 0 0 -0.0605,-0.58398 47.857119,48.646624 0 0 0 -0.0664,-0.58594 47.857119,48.646624 0 0 0 -0.0742,-0.58398 47.857119,48.646624 0 0 0 -0.0801,-0.58399 47.857119,48.646624 0 0 0 -0.0859,-0.58203 47.857119,48.646624 0 0 0 -0.0957,-0.58008 47.857119,48.646624 0 0 0 -0.0996,-0.58008 47.857119,48.646624 0 0 0 -0.10938,-0.57812 47.857119,48.646624 0 0 0 -0.11523,-0.57813 47.857119,48.646624 0 0 0 -0.1211,-0.57617 47.857119,48.646624 0 0 0 -0.1289,-0.57422 47.857119,48.646624 0 0 0 -0.13477,-0.57226 47.857119,48.646624 0 0 0 -0.0312,-0.12696 202.85714,197.36843 0 0 0 -25.7168,-1.59375 202.85714,197.36843 0 0 0 -68.53906,11.60743 z"
       transform="scale(0.26458333)" />
    <ellipse
       style="fill:none;stroke:#ffffff;stroke-width:1.587;stroke-miterlimit:4;stroke-dasharray:none;paint-order:stroke fill markers;filter:url(#filter4887)"
       id="path869"
       cx="110.936"
       cy="123.9762"
       rx="3.5907736"
       ry="3.4017856" />
    <ellipse
       style="fill:none;stroke:#ffffff;stroke-width:1.58701;stroke-miterlimit:4;stroke-dasharray:none;paint-order:stroke fill markers;filter:url(#filter4875)"
       id="path871"
       cx="58.019341"
       cy="143.25296"
       rx="14.930058"
       ry="15.119047" />
    <circle
       style="fill:none;stroke:#ffffff;stroke-width:1.587;stroke-miterlimit:4;stroke-dasharray:none;paint-order:stroke fill markers;filter:url(#filter4899)"
       id="path873"
       cx="127.94494"
       cy="148.73364"
       r="6.9925599" />
  </g>
</svg>
