<?xml version="1.0" encoding="UTF-8" standalone="no"?>
<svg
   xmlns:dc="http://purl.org/dc/elements/1.1/"
   xmlns:cc="http://creativecommons.org/ns#"
   xmlns:rdf="http://www.w3.org/1999/02/22-rdf-syntax-ns#"
   xmlns:svg="http://www.w3.org/2000/svg"
   xmlns="http://www.w3.org/2000/svg"
   xmlns:sodipodi="http://sodipodi.sourceforge.net/DTD/sodipodi-0.dtd"
   xmlns:inkscape="http://www.inkscape.org/namespaces/inkscape"
   width="57.84243mm"
   height="58.162029mm"
   viewBox="0 0 57.84243 58.16203"
   version="1.1"
   id="svg8"
   inkscape:version="1.0.1 (3bc2e813f5, 2020-09-07)"
   sodipodi:docname="moonnstarts.svg">
  <defs
     id="defs2">
    <filter
       inkscape:collect="always"
       style="color-interpolation-filters:sRGB"
       id="filter1722-5"
       x="-0.12238502"
       width="1.2447701"
       y="-0.12238502"
       height="1.2447701">
      <feGaussianBlur
         inkscape:collect="always"
         stdDeviation="0.50113508"
         id="feGaussianBlur1724-2" />
    </filter>
    <filter
       inkscape:collect="always"
       style="color-interpolation-filters:sRGB"
       id="filter1722-7"
       x="-0.12238502"
       width="1.2447701"
       y="-0.12238502"
       height="1.2447701">
      <feGaussianBlur
         inkscape:collect="always"
         stdDeviation="0.50113508"
         id="feGaussianBlur1724-9" />
    </filter>
    <filter
       inkscape:collect="always"
       style="color-interpolation-filters:sRGB"
       id="filter2015"
       x="-0.01422893"
       width="1.0284579"
       y="-0.014650527"
       height="1.029301">
      <feGaussianBlur
         inkscape:collect="always"
         stdDeviation="0.31148718"
         id="feGaussianBlur2017" />
    </filter>
    <filter
       inkscape:collect="always"
       style="color-interpolation-filters:sRGB"
       id="filter2027"
       x="-0.12486993"
       width="1.2497399"
       y="-0.12486993"
       height="1.2497399">
      <feGaussianBlur
         inkscape:collect="always"
         stdDeviation="0.51131015"
         id="feGaussianBlur2029" />
    </filter>
    <filter
       inkscape:collect="always"
       style="color-interpolation-filters:sRGB"
       id="filter2035"
       x="-0.068378769"
       width="1.1367575"
       y="-0.068378769"
       height="1.1367575">
      <feGaussianBlur
         inkscape:collect="always"
         stdDeviation="0.27999344"
         id="feGaussianBlur2037" />
    </filter>
  </defs>
  <sodipodi:namedview
     id="base"
     pagecolor="#ffffff"
     bordercolor="#666666"
     borderopacity="1.0"
     inkscape:pageopacity="0.0"
     inkscape:pageshadow="2"
     inkscape:zoom="0.7"
     inkscape:cx="211.12612"
     inkscape:cy="106.74943"
     inkscape:document-units="mm"
     inkscape:current-layer="layer1"
     inkscape:document-rotation="0"
     showgrid="false"
     inkscape:window-width="1918"
     inkscape:window-height="1528"
     inkscape:window-x="1920"
     inkscape:window-y="0"
     inkscape:window-maximized="0" />
  <metadata
     id="metadata5">
    <rdf:RDF>
      <cc:Work
         rdf:about="">
        <dc:format>image/svg+xml</dc:format>
        <dc:type
           rdf:resource="http://purl.org/dc/dcmitype/StillImage" />
        <dc:title />
      </cc:Work>
    </rdf:RDF>
  </metadata>
  <g
     inkscape:label="Layer 1"
     inkscape:groupmode="layer"
     id="layer1"
     transform="translate(-49.139548,-120.25588)">
    <a
       id="a1001">
      <ellipse
         style="opacity:0.690323;fill:#ffe57d;fill-opacity:0.995984;stroke-width:0;paint-order:fill markers stroke;filter:url(#filter2015)"
         id="path833"
         cx="118.8735"
         cy="135.50447"
         rx="26.269342"
         ry="25.513391"
         transform="matrix(1.0704856,0,0,1.1073858,-49.191604,-0.71883189)" />
      <path
         style="fill:#fff6d5;stroke-width:0;paint-order:fill markers stroke"
         d="M 87.554691,212.23932 C 65.312617,207.49212 41.033999,192.16392 27.528083,174.34179 18.697516,162.68914 10.112629,144.41912 7.331887,131.361 4.3375021,117.29964 5.4410779,93.194483 9.7012943,79.606573 15.319149,61.688491 22.054511,50.731333 36.08075,36.692194 57.218576,15.53493 80.675084,5.5553509 108.98326,5.6757967 c 17.60872,0.074922 30.74535,3.0383346 45.71429,10.3124123 36.14636,17.56513 58.50833,53.719627 58.34584,94.332651 -0.26491,66.21658 -61.13508,115.65366 -125.488699,101.91846 z m 34.450259,-72.0082 c 14.91179,-13.75277 6.15921,-39.19598 -13.48359,-39.19598 -21.215453,0 -28.609734,29.5426 -10.339016,41.30779 5.582896,3.59503 18.916416,2.41305 23.822606,-2.11181 z M 59.270356,108.17357 c 4.377308,-3.06598 6.796147,-11.072533 4.617038,-15.282756 -3.115283,-6.018991 -5.999067,-8.28491 -10.482685,-8.236714 -6.545018,0.07036 -11.075775,4.551267 -11.884272,11.75353 -0.567666,5.05688 -0.07827,6.70427 2.966142,9.98466 4.129325,4.44939 9.969828,5.1531 14.783777,1.78128 z M 155.21789,83.590681 c 11.32306,-8.295638 11.32306,-26.815435 0,-35.111074 -5.67793,-4.15983 -15.22132,-4.66565 -20.89054,-1.107244 -7.59668,4.768211 -10.58828,10.882758 -9.97843,20.394961 0.55995,8.734052 2.67394,12.2317 10.34863,17.122085 5.28556,3.368007 14.98874,2.753894 20.52034,-1.298728 z M 90.816413,70.948424 c 9.656597,-6.763745 9.656597,-23.062814 0,-29.82656 -4.104506,-2.874907 -13.114514,-2.859914 -17.523799,0.02916 -1.895997,1.242306 -4.512038,5.0468 -5.813424,8.454433 -2.901409,7.597227 -1.050244,15.357997 4.854329,20.351165 4.535208,3.83517 13.719777,4.32802 18.482894,0.991804 z"
         id="path2643"
         transform="matrix(0.26458333,0,0,0.26458333,49.139548,120.25588)" />
    </a>
    <circle
       style="opacity:0.725807;fill:#ffeeaa;fill-opacity:0.823293;stroke-width:0;paint-order:fill markers stroke;filter:url(#filter2027)"
       id="path1379"
       cx="77.107147"
       cy="154.59225"
       r="4.9136906"
       transform="matrix(1.02669,0,0,1.0760656,-1.2983889,-13.557355)" />
    <circle
       style="opacity:0.725807;fill:#ffe549;fill-opacity:0.823293;stroke-width:0;paint-order:fill markers stroke;filter:url(#filter1722-5)"
       id="path1379-8"
       cx="36.663692"
       cy="27.59226"
       r="4.9136906"
       transform="matrix(0.76907065,0,0,0.84744392,42.684618,111.71853)" />
    <circle
       style="opacity:0.725807;fill:#ffeeaa;fill-opacity:0.823293;stroke-width:0;paint-order:fill markers stroke;filter:url(#filter2035)"
       id="path1379-5"
       cx="86.178566"
       cy="140.60715"
       r="4.9136906"
       transform="matrix(1.02669,0,0,1.0760656,-1.2983889,-13.557355)" />
    <circle
       style="opacity:0.774193;fill:#ffe57c;fill-opacity:0.823293;stroke-width:0;paint-order:fill markers stroke;filter:url(#filter1722-7)"
       id="path1379-2"
       cx="27.970238"
       cy="36.663689"
       r="4.9136906"
       transform="matrix(0.57874697,0,0,0.6479672,46.932608,122.32619)" />
  </g>
</svg>
